<?xml version="1.0" standalone="no"?>
<!DOCTYPE svg PUBLIC "-//W3C//DTD SVG 1.1//EN" "http://www.w3.org/Graphics/SVG/1.1/DTD/svg11.dtd" >
<svg xmlns="http://www.w3.org/2000/svg" xmlns:xlink="http://www.w3.org/1999/xlink" version="1.1">
<metadata></metadata>
<defs>
<font id="noto_serifitalic" horiz-adv-x="1110" >
<font-face units-per-em="2048" ascent="1638" descent="-410" />
<missing-glyph horiz-adv-x="516" />
<glyph unicode="&#xfb01;" horiz-adv-x="1180" d="M-278 -461l18 91q50 -13 91 -13q96 0 151.5 82.5t98.5 283.5l209 969h-180l11 71l191 42l26 109q82 356 453 356q153 0 230.5 -40.5t77.5 -107.5q0 -129 -215 -129q0 186 -131 186q-180 0 -228 -247l-26 -127h574l-135 -638q-30 -143 -30 -220q0 -101 66 -101 q57 0 142 51l36 -58q-138 -118 -268 -118q-74 0 -119.5 53t-45.5 135q0 94 43 312l100 471h-388l-206 -968q-52 -239 -151 -350t-280 -111q-56 0 -115 16z" />
<glyph unicode="&#xfb02;" horiz-adv-x="1177" d="M-278 -461l18 91q50 -13 91 -13q96 0 151.5 82.5t98.5 283.5l209 969h-180l11 71l191 42l26 109q82 356 453 356q106 0 195 -50l138 29h44l-230 -1082q-30 -142 -30 -220q0 -101 66 -101q57 0 142 51l36 -58q-138 -118 -268 -118q-74 0 -119.5 53t-45.5 135q0 94 43 312 l170 796l1 9q0 38 -44.5 95.5t-135.5 57.5q-89 0 -142 -56.5t-86 -190.5l-26 -127h220l-22 -113h-223l-206 -968q-52 -239 -151 -350t-280 -111q-56 0 -115 16z" />
<glyph unicode="&#xfb03;" horiz-adv-x="1770" d="M-278 -461l18 91q17 -4 43 -8.5t48 -4.5q49 0 85.5 20t66.5 63.5t53.5 113.5t44.5 169l209 969h-180l11 71l191 42l10 46q44 201 139 299.5t254 98.5q63 0 106.5 -9.5t70.5 -25.5t38.5 -37t11.5 -44q0 -52 -34.5 -83t-105.5 -31q0 21 -4.5 45t-16 45t-31.5 35t-51 14 q-36 0 -63 -16t-48.5 -50.5t-39 -89t-36.5 -132.5l-13 -65h403l25 109q21 85 57 151t91.5 111.5t131 69.5t173.5 24q154 0 231.5 -40.5t77.5 -107.5q0 -66 -56 -97.5t-159 -31.5q0 38 -5 72t-19.5 59t-40.5 40t-67 15q-94 0 -148 -60t-79 -187l-27 -127h575l-135 -638 q-4 -17 -9 -46t-10 -61t-8 -62.5t-3 -50.5q0 -101 66 -101q33 0 69 14.5t73 36.5l36 -58q-21 -19 -51.5 -40t-66.5 -38.5t-74.5 -28.5t-75.5 -11q-39 0 -69.5 15t-52 40.5t-32 59.5t-10.5 73q0 30 4 71.5t11 85.5t14.5 85t13.5 70l99 471h-387l-207 -968 q-28 -132 -68.5 -221t-94.5 -142.5t-121 -75.5t-147 -22q-30 0 -62.5 5t-52.5 11l18 91q16 -4 42.5 -8.5t48.5 -4.5q48 0 85 20t66.5 63.5t53.5 113.5t45 169l209 969h-406l-206 -968q-28 -132 -69 -221t-94.5 -142.5t-120 -75.5t-147.5 -22q-30 0 -63 5t-52 11z" />
<glyph unicode="&#xfb04;" horiz-adv-x="1768" d="M-278 -461l18 91q17 -4 43 -8.5t48 -4.5q49 0 85.5 20t66.5 63.5t53.5 113.5t44.5 169l209 969h-180l11 71l191 42l10 46q44 201 139 299.5t254 98.5q63 0 106.5 -9.5t70.5 -25.5t38.5 -37t11.5 -44q0 -52 -34.5 -83t-105.5 -31q0 21 -4.5 45t-16 45t-31.5 35t-51 14 q-36 0 -63 -16t-48.5 -50.5t-39 -89t-36.5 -132.5l-13 -65h403l25 109q21 85 57 151t91.5 111.5t131 69.5t173.5 24q25 0 52 -4t52.5 -11t49.5 -16t41 -19l139 29h44l-230 -1082q-4 -17 -9 -46t-10 -61t-8 -62.5t-3 -50.5q0 -101 66 -101q33 0 69 14.5t73 36.5l36 -58 q-21 -19 -51.5 -40t-66.5 -38.5t-74.5 -28.5t-75.5 -11q-39 0 -69.5 15t-52 40.5t-32 59.5t-10.5 73q0 30 4 71.5t11 85.5t14.5 85t13.5 70l169 796q-4 33 -18.5 63t-38 51.5t-54.5 34.5t-69 13q-46 0 -82 -15.5t-63 -46t-47 -77t-35 -108.5l-27 -127h222l-23 -113h-222 l-207 -968q-28 -132 -68.5 -221t-94.5 -142.5t-121 -75.5t-147 -22q-30 0 -62.5 5t-52.5 11l18 91q16 -4 42.5 -8.5t48.5 -4.5q48 0 85 20t66.5 63.5t53.5 113.5t45 169l209 969h-406l-206 -968q-28 -132 -69 -221t-94.5 -142.5t-120 -75.5t-147.5 -22q-30 0 -63 5t-52 11z " />
<glyph horiz-adv-x="0" />
<glyph horiz-adv-x="0" />
<glyph unicode="&#xd;" horiz-adv-x="1012" />
<glyph unicode=" "  horiz-adv-x="516" />
<glyph unicode="&#x09;" horiz-adv-x="516" />
<glyph unicode="&#xa0;" horiz-adv-x="516" />
<glyph unicode="!" horiz-adv-x="661" d="M119 106q0 69 35.5 110.5t95.5 41.5q123 0 123 -121q0 -71 -35 -112t-96 -41q-123 0 -123 122zM250 400l148 1018h230l-287 -1018h-91z" />
<glyph unicode="&#x22;" horiz-adv-x="810" d="M260 952l40 466h210l-159 -466h-91zM633 952l40 466h211l-158 -466h-93z" />
<glyph unicode="#" d="M46 404l13 117h205l115 389h-216l12 117h238l114 391h121l-115 -391h276l114 391h120l-116 -391h184l-12 -117h-205l-113 -389h216l-13 -117h-241l-117 -404h-120l118 404h-277l-116 -404h-119l117 404h-183zM385 521h277l113 389h-276z" />
<glyph unicode="$" d="M48 341q0 75 49 119t104 44q0 -131 58.5 -220.5t159.5 -110.5l104 487q-263 131 -263 339q0 162 108 256t305 104l32 150h99l-31 -150q286 -25 286 -199q0 -137 -161 -137q0 214 -145 247l-101 -478l21 -11q180 -98 228.5 -169t48.5 -157q0 -163 -120 -267t-333 -116 l-48 -229h-100l51 231q-165 11 -258.5 85t-93.5 182zM445 1027q0 -115 118 -189l91 434q-209 -35 -209 -245zM519 169q112 9 176.5 76t64.5 166q0 128 -146 205z" />
<glyph unicode="%" horiz-adv-x="1779" d="M131 874q0 209 114.5 386t302.5 177q265 0 265 -317q0 -200 -117 -381t-309 -181q-121 0 -188.5 81t-67.5 235zM288 844q0 -205 108 -205q107 0 179.5 172.5t72.5 340.5q0 205 -108 205q-107 0 -179.5 -171.5t-72.5 -341.5zM332 0l997 1418h139l-989 -1418h-147z M1009 300q0 209 114.5 385.5t302.5 176.5q265 0 265 -316q0 -201 -117 -381.5t-308 -180.5q-257 0 -257 316zM1166 271q0 -205 108 -205q107 0 179.5 171t72.5 341q0 205 -108 205t-180 -171.5t-72 -340.5z" />
<glyph unicode="&#x26;" horiz-adv-x="1474" d="M70 351q0 154 93 261t324 192q-96 162 -96 292q0 165 108 254t316 89q161 0 248 -70t87 -189q0 -129 -72.5 -208.5t-360.5 -182.5l278 -382q85 159 125 352l16 77h358l-18 -83h-18q-99 0 -143.5 -29.5t-64.5 -57.5t-100 -194q-37 -78 -87 -156l109 -149q61 -84 195 -84 h17l-17 -83h-304l-119 165q-180 -184 -440 -184q-204 0 -319 101t-115 269zM266 356q0 -115 69 -190t190 -75q205 0 357 159l-338 469q-155 -71 -216.5 -151t-61.5 -212zM582 1111q0 -111 80 -243q167 63 237 126.5t70 171.5q0 79 -46 127t-123 48q-218 0 -218 -230z" />
<glyph unicode="'" horiz-adv-x="437" d="M252 952l40 466h210l-159 -466h-91z" />
<glyph unicode="(" horiz-adv-x="687" d="M83 370q0 400 193 723t535 416l-20 -89q-275 -149 -397.5 -501.5t-122.5 -642.5q0 -311 184 -439l-19 -91q-353 154 -353 624z" />
<glyph unicode=")" horiz-adv-x="687" d="M-97 -271l19 91q276 148 398.5 503.5t122.5 639.5q0 311 -185 440l20 91q352 -153 352 -624q0 -402 -194 -725.5t-533 -415.5z" />
<glyph unicode="*" horiz-adv-x="993" d="M231 1118l347 29l-305 166l100 139l258 -252l17 320l169 -36l-120 -296l340 120l36 -167l-350 -26l308 -165l-99 -135l-263 244l-11 -318l-169 36l115 296l-338 -121z" />
<glyph unicode="+" d="M146 652v117h364v367h120v-367h367v-117h-367v-368h-120v368h-364z" />
<glyph unicode="," horiz-adv-x="496" d="M-55 -290l7 83q203 46 203 167q0 35 -64 76q-65 41 -65 101q0 53 34 85t89 32q67 0 111 -44t44 -119q0 -145 -92.5 -245.5t-266.5 -135.5z" />
<glyph unicode="-" horiz-adv-x="615" d="M28 467l31 149h517l-32 -149h-516z" />
<glyph unicode="." horiz-adv-x="496" d="M51 106q0 69 35.5 110.5t95.5 41.5q124 0 124 -121q0 -70 -35.5 -111.5t-95.5 -41.5q-124 0 -124 122z" />
<glyph unicode="/" horiz-adv-x="572" d="M-184 -241l815 1750h126l-816 -1750h-125z" />
<glyph unicode="0" d="M80 459q0 382 164.5 681.5t430.5 299.5q175 0 276 -119t101 -335q0 -383 -162 -695.5t-427 -312.5q-178 0 -280.5 127t-102.5 354zM273 402q0 -315 206 -315q173 0 277 287t104 649q0 310 -204 310q-174 0 -278.5 -288t-104.5 -643z" />
<glyph unicode="1" d="M76 0l15 83h106q94 0 136.5 35.5t57.5 107.5l155 731q34 159 74 313h-8q-125 -123 -186 -165t-114 -42q-79 0 -79 107q136 33 325 153l161 103h127l-256 -1208q-8 -37 -8 -55q0 -80 144 -80h106l-17 -83h-739z" />
<glyph unicode="2" d="M-34 0l42 161l466 421q186 167 260.5 289t74.5 268q0 92 -49.5 146t-133.5 54q-229 0 -283 -300q-140 0 -140 127q0 111 119.5 192t312.5 81q180 0 278 -76t98 -215q0 -118 -84.5 -243.5t-328.5 -343.5l-447 -402h461q65 0 111 29.5t86 118.5l14 33h83l-80 -340h-860z " />
<glyph unicode="3" d="M-6 189q0 66 42 106.5t110 40.5q0 -109 64.5 -178t183.5 -69q141 0 232 90.5t91 245.5q0 123 -73.5 191t-206.5 68h-86l21 101h64q168 0 277.5 103.5t109.5 269.5q0 181 -169 181q-221 0 -282 -296q-148 0 -148 127q0 115 123.5 192t314.5 77q168 0 266.5 -77t98.5 -208 q0 -151 -107 -262.5t-292 -144.5q142 -15 219.5 -96t77.5 -204q0 -224 -154.5 -345t-391.5 -121q-191 0 -288 56.5t-97 151.5z" />
<glyph unicode="4" d="M-28 389l18 81l814 948h191l-197 -917h247l-24 -112h-246l-34 -171q-8 -39 -8 -55q0 -80 143 -80h46l-18 -83h-650l17 83h87q94 0 136.5 35.5t57.5 107.5l32 163h-612zM157 501h451l78 371q47 225 97 385q-83 -125 -175 -228z" />
<glyph unicode="5" d="M16 178q0 124 149 124q7 -213 216 -213q160 0 250 100t90 280q0 128 -69.5 199t-184.5 71q-107 0 -217 -44l-68 14l214 709h663l-54 -300h-83q5 76 5 94q0 47 -91 47h-385l-131 -442q96 31 190 31q196 0 306.5 -97t110.5 -268q0 -221 -154.5 -361.5t-408.5 -140.5 q-348 0 -348 197z" />
<glyph unicode="6" d="M119 461q0 400 192.5 689t486.5 289q142 0 223.5 -51.5t81.5 -128.5q0 -148 -174 -148q0 134 -34 182.5t-101 48.5q-298 0 -445 -583q148 103 293 103q157 0 246.5 -94.5t89.5 -253.5q0 -231 -130.5 -382t-354.5 -151q-168 0 -271 127.5t-103 352.5zM300 387 q0 -298 204 -298q121 0 199 116.5t78 296.5q0 258 -179 258q-133 0 -274 -114q-28 -159 -28 -259z" />
<glyph unicode="7" d="M178 1059l86 359h888l-11 -57l-777 -1361h-150l736 1259h-523q-109 0 -137 -101l-28 -99h-84z" />
<glyph unicode="8" d="M19 322q0 138 87.5 231t306.5 173q-195 139 -195 328q0 182 123 283.5t353 101.5q168 0 266.5 -80.5t98.5 -210.5q0 -128 -78 -220.5t-268 -170.5q252 -147 252 -355q0 -203 -140.5 -312t-383.5 -109q-192 0 -307 95t-115 246zM210 318q0 -111 69 -175.5t188 -64.5 q139 0 224.5 73.5t85.5 202.5q0 103 -66 176t-207 143q-294 -107 -294 -355zM409 1077q0 -160 209 -273q264 113 264 330q0 97 -54.5 151t-150.5 54q-121 0 -194.5 -72t-73.5 -190z" />
<glyph unicode="9" d="M70 159q0 50 31 83t86 33q4 -91 51 -144t126 -53q137 0 235.5 141t185.5 462q-130 -135 -304 -135q-154 0 -244.5 90.5t-90.5 239.5q0 242 152.5 402.5t370.5 160.5q168 0 266 -103t98 -289q0 -383 -182.5 -724.5t-503.5 -341.5q-277 0 -277 178zM343 870q0 -106 51 -160 t137 -54q159 0 286 168q31 130 31 235q0 270 -185 270q-130 0 -225 -139.5t-95 -319.5z" />
<glyph unicode=":" horiz-adv-x="568" d="M64 106q0 69 35.5 110.5t95.5 41.5q58 0 90.5 -33t32.5 -88q0 -71 -35.5 -112t-95.5 -41q-123 0 -123 122zM242 922q0 68 35.5 110.5t95.5 42.5q124 0 124 -121q0 -72 -35.5 -113t-95.5 -41q-124 0 -124 122z" />
<glyph unicode=";" horiz-adv-x="568" d="M-16 -290l8 83q203 46 203 167q0 35 -64 76q-65 41 -65 101q0 53 34 85t89 32q67 0 111 -45t44 -118q0 -146 -93.5 -246t-266.5 -135zM246 922q0 68 35.5 110.5t95.5 42.5q124 0 124 -121q0 -72 -35.5 -113t-95.5 -41q-124 0 -124 122z" />
<glyph unicode="&#x3c;" d="M146 675v70l851 459v-133l-667 -362l667 -358v-133z" />
<glyph unicode="=" d="M146 455v117h851v-117h-851zM146 846v117h851v-117h-851z" />
<glyph unicode="&#x3e;" d="M146 218v133l667 358l-667 362v133l851 -459v-70z" />
<glyph unicode="?" horiz-adv-x="993" d="M260 1176q0 110 111 186.5t291 76.5q375 0 375 -330q0 -302 -489 -479l-49 -230h-122l62 294q403 149 403 430q0 97 -52.5 156t-139.5 59q-205 0 -246 -282q-144 0 -144 119zM271 106q0 69 35 110.5t96 41.5q58 0 90.5 -33t32.5 -88q0 -71 -35.5 -112t-95.5 -41 q-123 0 -123 122z" />
<glyph unicode="@" horiz-adv-x="1829" d="M129 433q0 425 262 705t661 280q313 0 493 -174t180 -465q0 -270 -121 -448t-269 -178q-173 0 -234 181h-11q-94 -181 -267 -181q-135 0 -218.5 90.5t-83.5 249.5q0 211 136.5 384.5t369.5 173.5q111 0 186 -60l80 42h48l-101 -506q-14 -68 -14 -133q0 -61 32.5 -98.5 t88.5 -37.5q98 0 177 148t79 379q0 247 -151 389.5t-411 142.5q-309 0 -532 -247.5t-223 -632.5q0 -295 158 -455t434 -160q273 0 504 164l47 -71q-267 -197 -571 -197q-341 0 -535 188.5t-194 526.5zM705 465q0 -105 42.5 -156t109.5 -51q166 0 214 248l76 404 q-29 59 -112 59q-149 0 -239.5 -163t-90.5 -341z" />
<glyph unicode="A" horiz-adv-x="1400" d="M-112 0l17 83h38q53 0 89 28t95 128l692 1179h155l188 -1229q10 -62 34 -84t83 -22h27l-17 -83h-540l15 83h47q143 0 143 101q0 41 -4 68l-32 222h-522l-120 -208q-37 -66 -37 -111q0 -72 110 -72h47l-17 -83h-491zM455 574h449l-49 348q-31 211 -32 314 q-46 -108 -156 -296z" />
<glyph unicode="B" horiz-adv-x="1298" d="M-42 0l16 83h26q165 0 195 143l207 974q7 37 7 55q0 80 -143 80h-25l17 83h515q465 0 465 -298q0 -294 -324 -369l-2 -8q242 -48 242 -290q0 -218 -146.5 -335.5t-425.5 -117.5h-624zM368 99h193q379 0 379 368q0 227 -278 227h-167zM514 792h153q354 0 354 302 q0 225 -274 225h-119z" />
<glyph unicode="C" horiz-adv-x="1245" d="M103 512q0 377 234.5 652t584.5 275q173 0 270 -60t97 -162q0 -70 -53.5 -112t-141.5 -42q0 270 -198 270q-245 0 -410.5 -267.5t-165.5 -584.5q0 -371 353 -371q230 0 368 180q26 -18 26 -66q0 -95 -110.5 -169t-304.5 -74q-259 0 -404 138.5t-145 392.5z" />
<glyph unicode="D" horiz-adv-x="1440" d="M-42 0l16 83h26q165 0 195 143l207 974q7 37 7 55q0 80 -143 80h-25l17 83h557q270 0 416.5 -140t146.5 -400q0 -380 -216 -629t-578 -249h-626zM368 101h172q287 0 454.5 220t167.5 579q0 419 -377 419h-157z" />
<glyph unicode="E" horiz-adv-x="1237" d="M-42 0l16 83h26q101 0 140 35.5t53 97.5l207 976q5 27 5 48q0 46 -27 70.5t-112 24.5h-25l17 83h1001l-63 -347h-104l6 61q5 47 5 54q0 133 -142 133h-333l-114 -528h479l-19 -97h-479l-127 -595h383q168 0 225 163l31 85h104l-88 -347h-1065z" />
<glyph unicode="F" horiz-adv-x="1171" d="M-42 0l16 83h26q93 0 134 32t59 101l209 984q7 37 7 55q0 80 -143 80h-25l17 83h1001l-63 -347h-104l4 35q1 18 3 35q4 33 4 45q0 133 -149 133h-326l-124 -574h480l-21 -97h-478l-89 -422q-7 -32 -7 -49q0 -94 138 -94h65l-16 -83h-618z" />
<glyph unicode="G" horiz-adv-x="1418" d="M103 512q0 395 242.5 661t611.5 266q198 0 308.5 -60.5t110.5 -154.5q0 -74 -59 -115.5t-151 -41.5q0 128 -65 197t-185 69q-246 0 -421 -254t-175 -598q0 -388 383 -388q112 0 224 28l66 316q8 37 8 56q0 79 -143 79h-18l18 84h529l-18 -84h-8q-80 0 -116.5 -35.5 t-52.5 -107.5l-76 -357q-210 -91 -449 -91q-271 0 -417.5 139t-146.5 392z" />
<glyph unicode="H" horiz-adv-x="1575" d="M-42 0l16 83h26q96 0 137.5 36.5t57.5 106.5l207 974q7 37 7 55q0 80 -143 80h-25l17 83h578l-17 -83h-27q-95 0 -136.5 -36t-56.5 -107l-85 -401h646l87 409q8 37 8 55q0 80 -142 80h-27l19 83h578l-18 -83h-26q-95 0 -136.5 -36.5t-56.5 -106.5l-206 -974 q-8 -37 -8 -55q0 -80 142 -80h27l-19 -83h-578l17 83h25q95 0 137.5 35.5t57.5 107.5l98 466h-646l-99 -474q-9 -41 -9 -55q0 -80 144 -80h25l-18 -83h-578z" />
<glyph unicode="I" horiz-adv-x="729" d="M-42 0l16 83h26q165 0 195 143l207 974q7 37 7 55q0 80 -143 80h-25l17 83h578l-17 -83h-27q-95 0 -136.5 -36t-56.5 -107l-205 -974q-9 -41 -9 -55q0 -80 144 -80h25l-18 -83h-578z" />
<glyph unicode="J" horiz-adv-x="709" d="M-307 -455l27 89q49 -17 129 -17q115 0 179 86.5t105 279.5l258 1217q9 41 9 55q0 80 -144 80h-25l17 83h578l-17 -83h-26q-95 0 -137 -36t-56 -107l-258 -1208q-53 -243 -167 -352t-311 -109q-88 0 -161 22z" />
<glyph unicode="K" horiz-adv-x="1390" d="M-42 0l16 83h26q96 0 137.5 36.5t57.5 106.5l207 974q7 37 7 55q0 80 -143 80h-25l17 83h578l-17 -83h-27q-95 0 -136.5 -36t-56.5 -107l-85 -401l-35 -147l512 471q150 136 150 178q0 44 -89 44l17 81h438l-15 -81q-52 0 -115 -34.5t-191 -152.5l-362 -327l241 -581 q66 -159 188 -159h6l-17 -83h-29q-157 0 -233.5 32.5t-122.5 151.5l-194 491l-204 -142l-65 -315q-9 -42 -9 -55q0 -80 144 -80h25l-18 -83h-578z" />
<glyph unicode="L" horiz-adv-x="1237" d="M-40 0l18 83h26q93 0 133.5 36.5t57.5 106.5l207 974q7 37 7 55q0 80 -143 80h-25l17 83h578l-17 -83h-27q-94 0 -134.5 -33.5t-55.5 -101.5l-234 -1101h391q152 0 212 179l52 149h103l-103 -427h-1063z" />
<glyph unicode="M" horiz-adv-x="1863" d="M-40 0l18 83h26q99 0 137 35t52 98l209 984q7 37 7 55q0 80 -143 80h-25l17 83h451l169 -1132l650 1132h443l-18 -83h-26q-95 0 -136.5 -36.5t-56.5 -106.5l-206 -974q-8 -37 -8 -55q0 -80 143 -80h26l-19 -83h-527l17 83h6q84 0 118 31.5t51 94.5l227 1061l-726 -1270 h-107l-193 1270l-222 -1052q-8 -41 -8 -55q0 -80 143 -80h25l-17 -83h-497z" />
<glyph unicode="N" horiz-adv-x="1516" d="M-40 0l18 83h26q93 0 133.5 36.5t57.5 106.5l207 974q7 37 7 55q0 80 -143 80h-25l17 83h362l481 -1096l186 878q8 37 8 55q0 80 -143 80h-26l19 83h498l-18 -83h-25q-96 0 -137 -36.5t-57 -106.5l-252 -1192h-129l-511 1164l-200 -946q-8 -41 -8 -55q0 -80 143 -80h25 l-17 -83h-497z" />
<glyph unicode="O" horiz-adv-x="1474" d="M103 529q0 341 223 626t572 285q231 0 372.5 -143.5t141.5 -402.5q0 -340 -221 -628t-567 -288q-236 0 -378.5 148.5t-142.5 402.5zM320 472q0 -186 84.5 -285.5t230.5 -99.5q248 0 403.5 274t155.5 587q0 185 -82 285t-230 100q-249 0 -405.5 -275t-156.5 -586z" />
<glyph unicode="P" horiz-adv-x="1231" d="M-40 0l18 83h26q93 0 134.5 36t56.5 107l207 974q7 37 7 55q0 80 -143 80h-25l17 83h509q216 0 334 -100t118 -283q0 -226 -151.5 -354.5t-455.5 -128.5h-147l-71 -334q-9 -40 -9 -55q0 -80 144 -80h65l-18 -83h-616zM485 646h105q419 0 419 387q0 290 -290 290h-91z" />
<glyph unicode="Q" horiz-adv-x="1474" d="M103 529q0 341 223 626t572 285q231 0 372.5 -143.5t141.5 -402.5q0 -301 -185 -580t-498 -328q9 -177 60 -257t155 -80q72 0 135 17l13 -83q-100 -32 -196 -32q-365 0 -382 437q-193 33 -302 177.5t-109 363.5zM320 472q0 -186 84.5 -285.5t230.5 -99.5q248 0 403.5 274 t155.5 587q0 185 -82 285t-230 100q-249 0 -405.5 -275t-156.5 -586z" />
<glyph unicode="R" horiz-adv-x="1319" d="M-40 0l19 83h25q99 0 137 35t52 98l209 984q7 37 7 55q0 80 -142 80h-26l17 83h521q455 0 455 -337q0 -328 -368 -416l144 -424q35 -102 70.5 -130t92.5 -28h15l-15 -83h-26q-171 0 -242 45t-113 188l-114 393h-197l-87 -408q-9 -40 -9 -55q0 -80 144 -80h66l-19 -83 h-616zM501 719h153q177 0 273 90.5t96 259.5q0 132 -58.5 193t-201.5 61h-135z" />
<glyph unicode="S" horiz-adv-x="1080" d="M14 264q0 69 43 110t110 41q0 -152 80.5 -244.5t221.5 -92.5q138 0 220 68.5t82 187.5q0 94 -47 159t-203 153q-159 92 -220.5 189t-61.5 219q0 172 130 278.5t352 106.5q172 0 275 -60.5t103 -154.5q0 -138 -176 -138q0 117 -55 185t-163 68q-118 0 -193.5 -68 t-75.5 -183q0 -84 40 -145.5t205 -157.5q156 -91 225.5 -181.5t69.5 -205.5q0 -197 -138 -307t-383 -110q-203 0 -322 80t-119 203z" />
<glyph unicode="T" horiz-adv-x="1217" d="M151 1071l84 347h1118l-64 -347h-103q10 77 10 121q0 127 -131 127h-193l-235 -1101q-7 -37 -7 -55q0 -80 143 -80h46l-19 -83h-618l19 83h45q100 0 139 34.5t52 98.5l234 1103h-190q-141 0 -199 -163l-28 -85h-103z" />
<glyph unicode="U" horiz-adv-x="1450" d="M191 324q0 80 21 177l148 699q8 37 8 55q0 80 -144 80h-25l17 83h578l-15 -83h-26q-93 0 -136 -35.5t-59 -107.5l-149 -701q-24 -115 -24 -185q0 -207 286 -207q161 0 255 71.5t131 238.5l169 791q8 36 8 55q0 80 -144 80h-25l18 83h498l-15 -83h-27q-93 0 -135.5 -35.5 t-59.5 -107.5l-166 -787q-91 -424 -536 -424q-219 0 -335 89t-116 254z" />
<glyph unicode="V" horiz-adv-x="1340" d="M163 1335l17 83h541l-16 -83h-45q-64 0 -104 -27t-40 -74q0 -34 5 -68l78 -645q21 -167 21 -326q74 172 161 326l353 631q38 68 38 112q0 71 -111 71h-45l15 83h491l-18 -83h-38q-67 0 -100.5 -34t-82.5 -121l-661 -1180h-145l-170 1230q-7 59 -32 82t-86 23h-26z" />
<glyph unicode="W" horiz-adv-x="2075" d="M177 1335l18 83h540l-18 -83h-46q-142 0 -142 -101q0 -41 4 -68l47 -635q14 -182 14 -336q83 196 163 357l417 853h143l65 -861q10 -119 11 -349q87 203 148 326l317 631q37 76 37 112q0 71 -111 71h-48l16 83h485l-18 -83h-37q-64 0 -100.5 -31t-83.5 -124l-586 -1180 h-182l-89 1101l-535 -1101h-181l-103 1230q-5 53 -29 79t-90 26h-26z" />
<glyph unicode="X" horiz-adv-x="1311" d="M-97 0l17 83h8q65 0 116 34t119 109l439 479l-213 529q-41 101 -154 101h-26l17 83h538l-17 -83h-46q-93 0 -93 -56q0 -28 36 -119l113 -290l248 286q76 88 76 129q0 50 -95 50h-6l17 83h436l-19 -83h-17q-55 0 -98 -29t-127 -120l-376 -415l239 -582q44 -106 137 -106 h26l-18 -83h-536l18 83h22q59 0 93 20t34 50q0 41 -38 137l-129 316l-297 -330q-79 -88 -79 -139q0 -54 117 -54h6l-18 -83h-470z" />
<glyph unicode="Y" horiz-adv-x="1241" d="M153 1335l18 83h536l-17 -83h-100q-82 0 -82 -54q0 -38 26 -115l90 -266q47 -141 53 -238q19 36 149 208l190 252q72 97 72 161q0 52 -95 52h-73l18 83h491l-19 -83h-37q-38 0 -75.5 -30.5t-105.5 -120.5l-463 -606l-77 -360q-8 -36 -8 -55q0 -80 143 -80h45l-17 -83 h-618l17 83h46q100 0 138.5 34.5t52.5 98.5l78 366l-231 648q-23 63 -44.5 84t-75.5 21h-25z" />
<glyph unicode="Z" horiz-adv-x="1201" d="M-34 0l17 80l999 1239h-463q-147 0 -199 -163l-28 -85h-103l84 347h980l-15 -81l-1001 -1238h530q148 0 200 163l28 85h104l-83 -347h-1050z" />
<glyph unicode="[" horiz-adv-x="714" d="M10 -254l375 1763h443l-17 -83h-85q-94 0 -136 -35t-57 -108l-283 -1319q-8 -36 -8 -55q0 -80 143 -80h85l-17 -83h-443z" />
<glyph unicode="\" horiz-adv-x="572" d="M224 1509h116l85 -1750h-118z" />
<glyph unicode="]" horiz-adv-x="714" d="M-93 -254l17 83h86q93 0 134.5 36t56.5 107l282 1319q8 36 8 56q0 79 -144 79h-85l18 83h443l-376 -1763h-440z" />
<glyph unicode="^" d="M117 529l418 889h70l418 -889h-133l-320 707l-320 -707h-133z" />
<glyph unicode="_" horiz-adv-x="911" d="M-180 -282l25 117h930l-26 -117h-929z" />
<glyph unicode="`" horiz-adv-x="1146" d="M548 1502l6 20h199q58 -150 133 -292l-6 -26h-76q-149 145 -256 298z" />
<glyph unicode="a" horiz-adv-x="1150" d="M85 343q0 274 170.5 507.5t421.5 233.5q135 0 233 -71l87 50h64l-136 -636q-29 -137 -29 -220q0 -101 65 -101q57 0 144 51l36 -58q-143 -118 -281 -118q-155 0 -155 165q0 63 21 154h-13q-143 -319 -372 -319q-121 0 -188.5 95.5t-67.5 266.5zM288 336q0 -230 125 -230 q99 0 207.5 146.5t143.5 319.5l74 351q-46 72 -150 72q-170 0 -285 -215.5t-115 -443.5z" />
<glyph unicode="b" horiz-adv-x="1116" d="M53 -6l263 1234q18 82 18 105q0 93 -139 93h-17l19 83h375l-95 -446q-20 -96 -72 -263h10q147 284 364 284q118 0 185 -91t67 -267q0 -277 -170.5 -511t-421.5 -234q-142 0 -232 70l-90 -57h-64zM276 141q61 -71 155 -71q172 0 284.5 220t112.5 438q0 231 -125 231 q-108 0 -211.5 -150.5t-129.5 -274.5z" />
<glyph unicode="c" horiz-adv-x="967" d="M85 391q0 260 168 476.5t424 216.5q137 0 213.5 -54t76.5 -136q0 -60 -48 -99.5t-128 -39.5q0 105 -41 169.5t-113 64.5q-138 0 -241.5 -207.5t-103.5 -406.5q0 -269 218 -269q174 0 286 142q21 -12 21 -49q0 -80 -93.5 -149t-251.5 -69q-173 0 -280 109.5t-107 300.5z " />
<glyph unicode="d" horiz-adv-x="1150" d="M85 343q0 274 170.5 507.5t421.5 233.5q112 0 195 -47q16 91 22 111l20 96q13 66 13 89q0 93 -138 93h-16l18 83h365l-231 -1082q-29 -137 -29 -220q0 -101 65 -101q57 0 144 51l36 -58q-143 -118 -281 -118q-155 0 -155 165q0 63 21 154h-13q-143 -319 -372 -319 q-121 0 -188.5 95.5t-67.5 266.5zM288 336q0 -230 125 -230q99 0 207.5 146.5t143.5 319.5l74 351q-46 72 -150 72q-170 0 -285 -215.5t-115 -443.5z" />
<glyph unicode="e" horiz-adv-x="979" d="M85 391q0 260 168 476.5t424 216.5q126 0 195.5 -60t69.5 -167q0 -162 -167.5 -281t-408.5 -119h-34q-18 0 -36 2q-4 -27 -4 -84q0 -269 218 -269q170 0 286 142q21 -12 21 -49q0 -80 -93.5 -149t-251.5 -69q-173 0 -280 109.5t-107 300.5zM314 550h20q175 0 289 85.5 t114 221.5q0 132 -115 132q-96 0 -179.5 -120.5t-128.5 -318.5z" />
<glyph unicode="f" horiz-adv-x="631" d="M-278 -461l18 91q50 -13 91 -13q96 0 151.5 82.5t98.5 283.5l209 969h-180l11 71l191 42l22 109q70 356 377 356q127 0 191.5 -40.5t64.5 -107.5q0 -129 -165 -129q0 186 -101 186q-72 0 -112.5 -60.5t-63.5 -186.5l-26 -127h220l-22 -113h-223l-206 -968 q-52 -239 -151 -350t-280 -111q-56 0 -115 16z" />
<glyph unicode="g" horiz-adv-x="1104" d="M-70 -218q0 106 87 181.5t237 104.5q-95 46 -95 137q0 61 39.5 103.5t148.5 98.5q-138 65 -138 235q0 168 126.5 305t333.5 137q127 0 205 -63q94 141 214 141q100 0 100 -91q0 -123 -117 -123q0 71 -55 71q-39 0 -98 -45q43 -62 43 -153q0 -167 -125 -306.5t-330 -139.5 q-45 0 -63 4q-141 -57 -141 -125q0 -49 102 -59l190 -20q308 -33 308 -260q0 -186 -139.5 -289t-398.5 -103q-434 0 -434 259zM91 -207q0 -172 281 -172q174 0 265.5 64.5t91.5 173.5q0 130 -185 147l-193 18q-14 0 -85.5 -20t-123 -75t-51.5 -136zM391 633q0 -163 138 -163 q113 0 182.5 113t69.5 247q0 163 -137 163q-116 0 -184.5 -114t-68.5 -246z" />
<glyph unicode="h" horiz-adv-x="1190" d="M87 0l258 1228q19 87 19 105q0 93 -140 93h-15l17 83h366l-78 -364q-35 -163 -78 -330h21q165 268 367 268q213 0 213 -221q0 -63 -36 -218l-51 -235q-27 -119 -27 -208q0 -95 70 -95q58 0 127 45l36 -58q-130 -112 -242 -112q-83 0 -132 53t-49 144q0 92 38 269l46 206 q29 120 29 185q0 117 -91 117q-111 0 -228 -150.5t-148 -296.5l-106 -508h-186z" />
<glyph unicode="i" horiz-adv-x="604" d="M123 982l18 83h356l-135 -638q-30 -143 -30 -220q0 -101 66 -101q57 0 142 51l36 -58q-138 -118 -269 -118q-73 0 -118.5 53t-45.5 135q0 89 44 312l77 365q7 32 7 52q0 84 -122 84h-26zM334 1373q0 63 32.5 101t86.5 38q112 0 112 -109q0 -68 -33.5 -103.5t-86.5 -35.5 q-111 0 -111 109z" />
<glyph unicode="j" horiz-adv-x="578" d="M-278 -461l18 91q50 -13 91 -13q100 0 157 88.5t95 278.5l183 862q7 32 7 52q0 84 -122 84h-26l18 83h356l-228 -1081q-51 -236 -151.5 -348.5t-282.5 -112.5q-56 0 -115 16zM336 1373q0 63 32.5 101t86.5 38q111 0 111 -109q0 -68 -33 -103.5t-86 -35.5q-111 0 -111 109 z" />
<glyph unicode="k" horiz-adv-x="1130" d="M87 0l258 1228q19 87 19 105q0 93 -140 93h-15l17 83h366l-78 -364q-107 -502 -154 -654l313 271q147 127 147 188q0 30 -89 30l18 83h439l-18 -83q-116 0 -319 -186l-180 -164l182 -393q76 -167 201 -167l-17 -84q-165 0 -242.5 38.5t-131.5 166.5l-129 317l-180 -114 l-81 -394h-186z" />
<glyph unicode="l" horiz-adv-x="604" d="M146 169q0 94 43 312l162 763q13 59 13 89q0 93 -140 93h-23l17 83h376l-230 -1082q-30 -142 -30 -220q0 -101 66 -101q57 0 142 51l36 -58q-138 -118 -269 -118q-71 0 -117 52t-46 136z" />
<glyph unicode="m" horiz-adv-x="1779" d="M87 0l167 798q12 56 12 90q0 94 -139 94h-15l17 83h368l-54 -250h20q161 268 361 268q213 0 213 -221q0 -24 -4 -47h19q162 268 362 268q213 0 213 -221q0 -63 -36 -218l-52 -235q-25 -115 -25 -208q0 -95 69 -95q57 0 127 45l36 -58q-126 -112 -242 -112 q-82 0 -131.5 53t-49.5 144q0 92 38 269l34 155q42 191 42 236q0 117 -93 117q-101 0 -210 -130t-152 -273l-32 -143q-13 -54 -35.5 -212t-22.5 -197h-189q0 45 25.5 206.5t42.5 240.5l46 206q29 120 29 185q0 117 -91 117q-111 0 -228 -150.5t-148 -296.5l-106 -508h-186z " />
<glyph unicode="n" horiz-adv-x="1190" d="M87 0l167 798q12 56 12 90q0 94 -139 94h-15l17 83h368l-54 -250h20q161 268 361 268q213 0 213 -221q0 -63 -36 -218l-51 -235q-27 -119 -27 -208q0 -95 70 -95q58 0 127 45l36 -58q-130 -112 -242 -112q-83 0 -132 53t-49 144q0 92 38 269l46 206q29 120 29 185 q0 117 -91 117q-111 0 -227 -149t-149 -298l-106 -508h-186z" />
<glyph unicode="o" horiz-adv-x="1140" d="M85 391q0 268 163.5 480.5t428.5 212.5q176 0 276.5 -105.5t100.5 -305.5q0 -265 -162 -478.5t-425 -213.5q-180 0 -281 108.5t-101 301.5zM292 351q0 -273 197 -273q164 0 261.5 194.5t97.5 430.5q0 277 -194 277q-162 0 -262 -195t-100 -434z" />
<glyph unicode="p" horiz-adv-x="1146" d="M-14 -477l264 1260q18 83 18 105q0 94 -139 94h-16l18 83h352l-47 -265h9q144 284 364 284q121 0 186.5 -92t65.5 -266q0 -267 -166.5 -506t-425.5 -239q-114 0 -194 45q-9 -64 -17 -96l-27 -121q-19 -83 -19 -111q0 -92 139 -92h26l-17 -83h-374zM306 141 q64 -71 157 -71q166 0 280.5 216.5t114.5 441.5q0 231 -125 231q-103 0 -207.5 -143t-138.5 -297z" />
<glyph unicode="q" horiz-adv-x="1112" d="M85 343q0 274 170.5 507.5t421.5 233.5q124 0 221 -53l49 27q46 26 50 26h70l-275 -1294q-11 -56 -11 -90q0 -94 137 -94h16l-18 -83h-362l83 397q8 38 89 380h-13q-145 -319 -372 -319q-120 0 -188 95.5t-68 266.5zM288 334q0 -228 125 -228q98 0 206 144t145 322 l74 351q-44 72 -150 72q-172 0 -286 -219t-114 -442z" />
<glyph unicode="r" horiz-adv-x="929" d="M87 0l167 798q12 56 12 90q0 94 -158 94h-17l19 83h351l-42 -286h20q80 177 157.5 241t180.5 64q163 0 163 -136q0 -152 -165 -152q0 158 -80 158q-92 0 -195 -181.5t-153 -410.5l-74 -362h-186z" />
<glyph unicode="s" horiz-adv-x="921" d="M49 205q0 64 35.5 97.5t90.5 33.5q0 -124 59.5 -192t167.5 -68q214 0 214 184q0 71 -45.5 120t-155.5 99q-142 68 -191 140.5t-49 167.5q0 130 106 213t277 83q146 0 228 -54.5t82 -134.5q0 -123 -149 -123q0 100 -47 160t-132 60q-89 0 -141 -48t-52 -122 q0 -66 49.5 -112.5t153.5 -92.5q239 -107 239 -309q0 -146 -112.5 -236t-299.5 -90q-150 0 -239 60.5t-89 163.5z" />
<glyph unicode="t" horiz-adv-x="731" d="M137 952l18 79q194 0 304 279h91l-51 -245h240l-24 -113h-241l-120 -567q-24 -114 -24 -171q0 -108 106 -108q80 0 162 43l33 -73q-133 -95 -267 -95q-217 0 -217 231q0 75 20 167l121 573h-151z" />
<glyph unicode="u" horiz-adv-x="1190" d="M113 982l18 83h370l-131 -595q-40 -180 -40 -239q0 -121 97 -121q102 0 219.5 147t153.5 313l104 495h192l-137 -638q-30 -141 -30 -220q0 -101 66 -101q56 0 127 43l36 -58q-126 -110 -252 -110q-75 0 -121 53t-46 135q0 51 10 117h-16q-107 -177 -192 -240t-192 -63 q-212 0 -212 220q0 63 36 218l77 348q18 79 18 119q0 94 -139 94h-16z" />
<glyph unicode="v" horiz-adv-x="1068" d="M34 982l15 83h298l92 -588q35 -225 46 -352h6q148 143 257 333.5t109 305.5q0 70 -34 111t-90 41q0 71 39 115t96 44q135 0 135 -185q0 -180 -137.5 -422t-357.5 -466l-178 -19l-139 893q-16 106 -138 106h-19z" />
<glyph unicode="w" horiz-adv-x="1626" d="M74 982l27 83h299q5 -419 5 -906h8q259 455 444 888l164 7q42 -522 42 -908h14q162 198 267.5 392.5t105.5 309.5q0 91 -85 119q17 117 117 117q105 0 105 -148q0 -286 -499 -934l-196 -21l-30 859q-90 -214 -419 -834l-204 -23l-15 855q-1 70 -27.5 107t-103.5 37h-19z " />
<glyph unicode="x" horiz-adv-x="1084" d="M-40 0l23 83h25q54 0 94.5 25t111.5 112l255 309l-129 309q-38 92 -63 118t-80 26h-26l16 83h264l151 -402l264 402h254l-32 -83h-25q-58 0 -97.5 -28.5t-108.5 -115.5l-209 -268l137 -344q35 -89 59.5 -116t82.5 -27h27l-16 -83h-267l-161 437l-298 -437h-252z" />
<glyph unicode="y" horiz-adv-x="1048" d="M-322 -441l30 100q70 -23 155 -23q284 0 558 362l-262 878q-17 58 -47.5 82t-89.5 24h-20l15 83h290l156 -536q71 -250 83 -360h6q269 408 269 659q0 108 -98 108q0 67 38.5 107t91.5 40q134 0 134 -167q0 -240 -267.5 -674t-429 -576.5t-425.5 -142.5q-105 0 -187 36z " />
<glyph unicode="z" horiz-adv-x="1015" d="M-2 0l16 80l676 872h-253q-68 0 -105.5 -33t-81.5 -128l-4 -8h-83l79 282h696l-16 -81l-678 -871h354q47 0 86.5 30.5t82.5 132.5l20 46h83l-78 -322h-794z" />
<glyph unicode="{" horiz-adv-x="850" d="M119 588l18 83q124 5 190.5 56.5t87.5 152.5l74 344q28 125 68 179t105.5 80t173.5 26h131l-17 -85h-60q-88 0 -137.5 -53t-71.5 -156l-73 -341q-21 -99 -87.5 -161t-184.5 -82v-7q88 -15 132 -62t44 -119q0 -15 -2.5 -30t-5.5 -32l-73 -341q-5 -24 -7.5 -44.5 t-2.5 -39.5q0 -61 31 -93t98 -32h60l-18 -85h-131q-118 0 -177.5 52t-59.5 149q0 19 3 40t8 43l72 347q5 19 7 34t2 30q0 70 -47 106t-150 41z" />
<glyph unicode="|" d="M510 -477v1986h120v-1986h-120z" />
<glyph unicode="}" horiz-adv-x="850" d="M-99 -254l18 85h59q88 0 137.5 53.5t71.5 155.5l73 343q21 99 87.5 162t185.5 83v7q-89 16 -133 61.5t-44 118.5q0 14 2.5 29t5.5 32l73 339q5 25 7.5 45.5t2.5 38.5q0 61 -31 93t-98 32h-60l18 85h131q118 0 177.5 -51.5t59.5 -147.5q0 -20 -3 -41t-8 -43l-72 -346 q-5 -18 -7 -33.5t-2 -29.5q0 -72 49.5 -108t147.5 -38l-18 -83q-127 -5 -192.5 -58t-85.5 -153l-74 -345q-27 -124 -66 -178t-106.5 -81t-174.5 -27h-131z" />
<glyph unicode="~" d="M123 534q27 348 250 348q92 0 241 -131q104 -99 163 -99q55 0 81.5 60t39.5 170h120q-38 -348 -251 -348q-94 0 -231 126q-114 104 -170 104q-59 0 -87 -56.5t-38 -173.5h-118z" />
<glyph unicode="&#xa1;" horiz-adv-x="661" d="M22 -356l285 1019h93l-148 -1019h-230zM276 925q0 72 35.5 113t95.5 41q124 0 124 -122q0 -68 -35.5 -110.5t-95.5 -42.5q-124 0 -124 121z" />
<glyph unicode="&#xa2;" d="M167 582q0 242 150.5 454.5t393.5 237.5l32 144h99l-31 -146q112 -11 175 -63t63 -125q0 -60 -48 -99t-129 -39q0 161 -85 214l-183 -864q164 6 274 143q20 -14 20 -50q0 -77 -85 -144.5t-235 -73.5l-36 -171h-99l38 177q-151 25 -232.5 131.5t-81.5 273.5zM373 566 q0 -207 135 -257l184 867q-134 -25 -226.5 -225.5t-92.5 -384.5z" />
<glyph unicode="&#xa3;" d="M-2 78l70 39q286 163 286 429q0 49 -14 123h-221l22 100h183q-26 122 -26 200q0 219 131.5 344.5t353.5 125.5q150 0 240 -54.5t90 -140.5q0 -158 -165 -158q0 253 -195 253q-135 0 -208 -94t-73 -263q0 -78 29 -213h337l-21 -100h-303q7 -42 7 -104q0 -230 -250 -378 l2 -9q81 36 152 36q58 0 173 -37q115 -38 155 -38q110 0 199 90l53 -66q-180 -182 -338 -182q-63 0 -183 44q-120 45 -192 45q-111 0 -231 -58l-27 -14z" />
<glyph unicode="&#xa4;" d="M143 368l130 131q-66 96 -66 212q0 120 68 212l-132 131l83 85l130 -132q96 70 214 70q113 0 211 -70l133 134l83 -87l-131 -131q70 -96 70 -212t-70 -212l131 -131l-81 -84l-133 131q-101 -68 -213 -68q-120 0 -212 68l-132 -131zM318 711q0 -104 74.5 -179t177.5 -75 q105 0 179.5 75t74.5 179q0 107 -73.5 181.5t-180.5 74.5q-104 0 -178 -74.5t-74 -181.5z" />
<glyph unicode="&#xa5;" d="M137 0l17 83h46q101 0 139.5 35t51.5 98l28 135h-278l19 94h278l31 139h-279l20 93h240l-152 553q-16 56 -38 80.5t-82 24.5h-5l17 83h465l-18 -83h-4q-67 0 -101.5 -12.5t-34.5 -54.5t23 -127l51 -214q34 -141 42 -241q21 38 104 162l165 242q89 131 89 187 q0 58 -108 58h-6l19 83h404l-17 -83h-18q-44 0 -75 -23t-108 -132l-349 -503h246l-20 -93h-277l-31 -139h279l-21 -94h-278l-27 -133q-9 -42 -9 -55q0 -80 144 -80h45l-17 -83h-610z" />
<glyph unicode="&#xa6;" d="M495 318h119v-795h-119v795zM495 715v794h119v-794h-119z" />
<glyph unicode="&#xa7;" horiz-adv-x="1080" d="M40 -4q0 63 35.5 97t89.5 34q0 -116 65 -187t177 -71q122 0 197 64.5t75 169.5q0 63 -50 121t-233 157q-221 120 -221 320q0 161 174 270q-47 80 -47 179q0 163 119 261t305 98q138 0 225.5 -58t87.5 -140q0 -71 -36 -104t-125 -33q0 111 -48 176.5t-140 65.5 q-97 0 -166 -54t-69 -149q0 -77 40 -129t222 -150q242 -130 242 -308q0 -167 -172 -300q39 -74 39 -148q0 -177 -123 -292t-326 -115q-152 0 -244.5 61.5t-92.5 163.5zM314 775q0 -74 48.5 -126t181.5 -126q118 -65 193 -134q74 80 74 151q0 120 -205 231q-140 77 -212 145 q-80 -59 -80 -141z" />
<glyph unicode="&#xa8;" horiz-adv-x="1146" d="M400 1355q0 125 106 125q100 0 100 -100q0 -125 -107 -125q-99 0 -99 100zM777 1355q0 125 107 125q100 0 100 -100q0 -125 -108 -125q-99 0 -99 100z" />
<glyph unicode="&#xa9;" horiz-adv-x="1679" d="M125 709q0 302 214.5 516.5t515.5 214.5q299 0 514.5 -214.5t215.5 -516.5q0 -300 -214.5 -514t-515.5 -214q-303 0 -516.5 214t-213.5 514zM235 709q0 -254 181.5 -437t438.5 -183q256 0 438.5 182.5t182.5 437.5q0 256 -182.5 439t-438.5 183q-257 0 -438.5 -183.5 t-181.5 -438.5zM467 711q0 204 113.5 321.5t311.5 117.5q128 0 200 -38.5t72 -102.5q0 -42 -38 -67.5t-97 -25.5q0 151 -141 151q-258 0 -258 -356q0 -172 66.5 -264.5t193.5 -92.5q165 0 244 135q28 -20 28 -62q0 -62 -81 -110.5t-217 -48.5q-188 0 -292.5 116.5 t-104.5 326.5z" />
<glyph unicode="&#xaa;" horiz-adv-x="780" d="M119 978q0 161 116 302.5t292 141.5q95 0 159 -42l61 28h44l-94 -367q-20 -81 -20 -127q0 -59 40 -59q34 0 85 31l22 -38q-90 -89 -172 -89q-110 0 -110 99q0 56 14 107h-8q-104 -206 -254 -206q-84 0 -129.5 58t-45.5 161zM292 982q0 -129 68 -129q52 0 112 82.5 t86 177.5l52 197q-28 39 -87 39q-99 0 -165 -121.5t-66 -245.5z" />
<glyph unicode="&#xab;" horiz-adv-x="1021" d="M121 504l14 64l377 346h100l-286 -387l125 -368h-100zM481 504l14 64l377 346h99l-285 -387l125 -368h-100z" />
<glyph unicode="&#xac;" d="M146 652v117h851v-525h-119v408h-732z" />
<glyph unicode="&#xad;" horiz-adv-x="615" d="M28 467l31 149h517l-32 -149h-516z" />
<glyph unicode="&#xae;" horiz-adv-x="1679" d="M125 709q0 302 214.5 516.5t515.5 214.5q299 0 514.5 -214.5t215.5 -516.5q0 -300 -214.5 -514t-515.5 -214q-303 0 -516.5 214t-213.5 514zM235 709q0 -254 181.5 -437t438.5 -183q256 0 438.5 182.5t182.5 437.5q0 256 -182.5 439t-438.5 183q-257 0 -438.5 -183.5 t-181.5 -438.5zM479 280v67h25q98 0 98 70v582q0 70 -98 70h-25v70h357q342 0 342 -237q0 -159 -181 -218l177 -284q19 -32 39 -42.5t72 -10.5v-67h-210l-218 370h-106v-233q0 -70 97 -70h28v-67h-397zM751 726h83q100 0 143.5 38.5t43.5 135.5q0 88 -44.5 124.5 t-148.5 36.5h-77v-335z" />
<glyph unicode="&#xaf;" horiz-adv-x="911" d="M152 1510l25 117h930l-26 -117h-929z" />
<glyph unicode="&#xb0;" horiz-adv-x="794" d="M167 1116q0 127 88.5 214.5t211.5 87.5q124 0 213 -88t89 -214q0 -123 -88 -211t-214 -88q-125 0 -212.5 87.5t-87.5 211.5zM286 1116q0 -75 54 -128.5t127 -53.5q76 0 129.5 53.5t53.5 128.5q0 78 -54 131.5t-129 53.5q-73 0 -127 -53t-54 -132z" />
<glyph unicode="&#xb1;" d="M146 0v117h851v-117h-851zM146 652v117h364v367h120v-367h367v-117h-367v-368h-120v368h-364z" />
<glyph unicode="&#xb2;" horiz-adv-x="794" d="M40 568l9 60l309 254q108 88 161 170t53 192q0 115 -100 115q-60 0 -104 -52t-56 -137q-60 0 -94 26.5t-34 69.5q0 75 82 124t221 49q120 0 190 -52.5t70 -137.5q0 -94 -60.5 -175.5t-214.5 -203.5l-237 -189h273q75 0 106 81l16 42h67l-55 -236h-602z" />
<glyph unicode="&#xb3;" horiz-adv-x="794" d="M78 709q0 108 113 108q0 -73 43.5 -122t116.5 -49q189 0 189 177q0 66 -47.5 107t-132.5 41h-66l15 81h66q94 0 157.5 60.5t63.5 153.5t-92 93q-132 0 -166 -173q-131 0 -131 84q0 71 82 120t221 49q127 0 198 -49.5t71 -132.5q0 -183 -254 -234l-2 -10q200 -27 200 -183 q0 -129 -104.5 -201.5t-280.5 -72.5q-127 0 -193.5 41.5t-66.5 111.5z" />
<glyph unicode="&#xb4;" horiz-adv-x="1146" d="M487 1204l6 26q113 131 212 292h213l-6 -20q-152 -178 -346 -298h-79z" />
<glyph unicode="&#xb5;" horiz-adv-x="1199" d="M-4 -334q0 89 59 301q85 305 122 480l130 618h188l-131 -622q-23 -105 -23 -183q0 -152 146 -152q103 0 182.5 87t109.5 234l135 636h187l-159 -743q-24 -113 -24 -153q0 -63 58 -63q42 0 108 33l34 -67q-132 -91 -230 -91q-141 0 -149 190h-10q-129 -190 -288 -190 q-164 0 -225 116q-32 -165 -32 -240q0 -144 110 -161q-19 -173 -169 -173q-129 0 -129 143z" />
<glyph unicode="&#xb6;" horiz-adv-x="1226" d="M95 1156q0 353 309 353h756v-83h-26q-95 0 -129 -36.5t-34 -106.5v-1277q0 -70 34 -106.5t129 -36.5h26v-83h-309v1628h-189v-1628h-311v83h26q96 0 129.5 37t33.5 106v761h-140q-305 0 -305 389z" />
<glyph unicode="&#xb7;" horiz-adv-x="568" d="M165 692q0 68 35.5 110t95.5 42q123 0 123 -121q0 -71 -35.5 -112t-95.5 -41q-123 0 -123 122z" />
<glyph unicode="&#xb8;" horiz-adv-x="661" d="M70 -455l21 101q68 -16 133 -16q148 0 148 122q0 99 -128 111l76 154h93l-38 -85q72 -10 115.5 -56.5t43.5 -108.5q0 -115 -83.5 -179.5t-232.5 -64.5q-76 0 -148 22z" />
<glyph unicode="&#xb9;" horiz-adv-x="794" d="M131 570l15 67h91q48 0 69 19.5t28 56.5l121 572h-8q-50 -40 -86 -63.5t-83 -23.5q-33 0 -48.5 23t-15.5 58q79 7 144 34t207 116h98l-138 -658q-5 -22 -10 -45.5t-5 -37.5q0 -33 21 -42t49 -9h91l-13 -67h-527z" />
<glyph unicode="&#xba;" horiz-adv-x="788" d="M133 1005q0 157 113.5 288t293.5 131q126 0 198.5 -64.5t72.5 -179.5q0 -159 -111.5 -291t-292.5 -132q-129 0 -201.5 66t-72.5 182zM307 984q0 -148 100 -148q96 0 156.5 115t60.5 253q0 140 -97 140q-95 0 -157.5 -115t-62.5 -245z" />
<glyph unicode="&#xbb;" horiz-adv-x="1021" d="M48 159l290 387l-129 368h98l231 -346l-13 -64l-378 -345h-99zM407 159l290 387l-129 368h99l231 -346l-14 -64l-378 -345h-99z" />
<glyph unicode="&#xbc;" horiz-adv-x="1668" d="M66 570l15 67h91q48 0 69 19.5t28 56.5l121 572h-8q-50 -40 -86 -63.5t-83 -23.5q-33 0 -48.5 23t-15.5 58q79 7 144 34t207 116h98l-138 -658q-5 -22 -10 -45.5t-5 -37.5q0 -33 21 -42t49 -9h91l-13 -67h-527zM269 0l1001 1418h135l-998 -1418h-138zM865 254l11 67 l486 539h159l-109 -521h190l-17 -85h-191l-18 -82q-7 -36 -7 -53q0 -51 68 -51h40l-13 -67h-438l15 67h55q82 0 97 76l24 110h-352zM999 339h236l48 216q24 110 40 155l-42 -57z" />
<glyph unicode="&#xbd;" horiz-adv-x="1668" d="M66 570l15 67h91q48 0 69 19.5t28 56.5l121 572h-8q-50 -40 -86 -63.5t-83 -23.5q-33 0 -48.5 23t-15.5 58q79 7 144 34t207 116h98l-138 -658q-5 -22 -10 -45.5t-5 -37.5q0 -33 21 -42t49 -9h91l-13 -67h-527zM249 0l1001 1418h135l-998 -1418h-138zM895 1l9 60l309 254 q108 88 161 170t53 192q0 115 -100 115q-60 0 -104 -52t-56 -137q-60 0 -94 26.5t-34 69.5q0 75 82 124t221 49q120 0 190 -52.5t70 -137.5q0 -94 -60.5 -175.5t-214.5 -203.5l-237 -189h273q75 0 106 81l16 42h67l-55 -236h-602z" />
<glyph unicode="&#xbe;" horiz-adv-x="1668" d="M37 709q0 108 113 108q0 -73 43.5 -122t116.5 -49q189 0 189 177q0 66 -47.5 107t-132.5 41h-66l15 81h66q94 0 157.5 60.5t63.5 153.5t-92 93q-132 0 -166 -173q-131 0 -131 84q0 71 82 120t221 49q127 0 198 -49.5t71 -132.5q0 -183 -254 -234l-2 -10q200 -27 200 -183 q0 -129 -104.5 -201.5t-280.5 -72.5q-127 0 -193.5 41.5t-66.5 111.5zM322 0l1001 1418h135l-998 -1418h-138zM885 254l11 67l486 539h159l-109 -521h190l-17 -85h-191l-18 -82q-7 -36 -7 -53q0 -51 68 -51h40l-13 -67h-438l15 67h55q82 0 97 76l24 110h-352zM1019 339h236 l48 216q24 110 40 155l-42 -57z" />
<glyph unicode="&#xbf;" horiz-adv-x="993" d="M2 -48q0 302 489 479l49 231h122l-63 -294q-402 -148 -402 -432q0 -97 52.5 -155.5t139.5 -58.5q206 0 246 282q144 0 144 -119q0 -110 -111 -186t-291 -76q-375 0 -375 329zM514 923q0 73 36 113.5t96 40.5q123 0 123 -122q0 -68 -36 -110.5t-96 -42.5q-58 0 -90.5 33.5 t-32.5 87.5z" />
<glyph unicode="&#xc0;" horiz-adv-x="1400" d="M-112 0l17 83h38q53 0 89 28t95 128l692 1179h155l188 -1229q10 -62 34 -84t83 -22h27l-17 -83h-540l15 83h47q143 0 143 101q0 41 -4 68l-32 222h-522l-120 -208q-37 -66 -37 -111q0 -72 110 -72h47l-17 -83h-491zM455 574h449l-49 348q-31 211 -32 314 q-46 -108 -156 -296zM639 1830l6 20h199q58 -150 133 -292l-6 -26h-76q-149 145 -256 298z" />
<glyph unicode="&#xc1;" horiz-adv-x="1400" d="M-112 0l17 83h38q53 0 89 28t95 128l692 1179h155l188 -1229q10 -62 34 -84t83 -22h27l-17 -83h-540l15 83h47q143 0 143 101q0 41 -4 68l-32 222h-522l-120 -208q-37 -66 -37 -111q0 -72 110 -72h47l-17 -83h-491zM455 574h449l-49 348q-31 211 -32 314 q-46 -108 -156 -296zM807 1532l6 26q113 131 212 292h213l-6 -20q-152 -178 -346 -298h-79z" />
<glyph unicode="&#xc2;" horiz-adv-x="1400" d="M-112 0l17 83h38q53 0 89 28t95 128l692 1179h155l188 -1229q10 -62 34 -84t83 -22h27l-17 -83h-540l15 83h47q143 0 143 101q0 41 -4 68l-32 222h-522l-120 -208q-37 -66 -37 -111q0 -72 110 -72h47l-17 -83h-491zM455 574h449l-49 348q-31 211 -32 314 q-46 -108 -156 -296zM593 1532l6 26q180 177 261 292h190q28 -114 134 -292l-5 -26h-70q-92 63 -177 178q-145 -123 -254 -178h-85z" />
<glyph unicode="&#xc3;" horiz-adv-x="1400" d="M-112 0l17 83h38q53 0 89 28t95 128l692 1179h155l188 -1229q10 -62 34 -84t83 -22h27l-17 -83h-540l15 83h47q143 0 143 101q0 41 -4 68l-32 222h-522l-120 -208q-37 -66 -37 -111q0 -72 110 -72h47l-17 -83h-491zM455 574h449l-49 348q-31 211 -32 314 q-46 -108 -156 -296zM529 1552q70 234 260 234q79 0 164 -62q84 -63 120 -63q86 0 119 106h89q-69 -235 -258 -235q-78 0 -164 63q-86 62 -122 62q-85 0 -119 -105h-89z" />
<glyph unicode="&#xc4;" horiz-adv-x="1400" d="M-112 0l17 83h38q53 0 89 28t95 128l692 1179h155l188 -1229q10 -62 34 -84t83 -22h27l-17 -83h-540l15 83h47q143 0 143 101q0 41 -4 68l-32 222h-522l-120 -208q-37 -66 -37 -111q0 -72 110 -72h47l-17 -83h-491zM455 574h449l-49 348q-31 211 -32 314 q-46 -108 -156 -296zM635 1683q0 125 106 125q100 0 100 -100q0 -125 -107 -125q-99 0 -99 100zM1012 1683q0 125 107 125q100 0 100 -100q0 -125 -108 -125q-99 0 -99 100z" />
<glyph unicode="&#xc5;" horiz-adv-x="1400" d="M-112 0l17 83h38q53 0 89 28t95 128l692 1179h155l188 -1229q10 -62 34 -84t83 -22h27l-17 -83h-540l15 83h47q143 0 143 101q0 41 -4 68l-32 222h-522l-120 -208q-37 -66 -37 -111q0 -72 110 -72h47l-17 -83h-491zM455 574h449l-49 348q-31 211 -32 314 q-46 -108 -156 -296zM648 1538q0 101 67 158.5t172 57.5t172 -57.5t67 -158.5q0 -102 -67.5 -159.5t-171.5 -57.5t-171.5 57.5t-67.5 159.5zM756 1538q0 -120 131 -120t131 120q0 119 -131 119t-131 -119z" />
<glyph unicode="&#xc6;" horiz-adv-x="1889" d="M-123 0l28 83h38q52 0 91.5 27.5t112.5 128.5l791 1084l-169 12l18 83h1124l-63 -347h-104q10 68 10 115q0 133 -141 133h-334l-113 -528h479l-20 -97h-478l-128 -595h384q166 0 224 163l32 85h103l-88 -347h-1064l16 83h26q100 0 139.5 34.5t52.5 98.5l54 258h-449 l-149 -208q-54 -75 -54 -117q0 -66 101 -66h47l-28 -83h-489zM523 574h397l157 745h-38q-94 -163 -252 -379z" />
<glyph unicode="&#xc7;" horiz-adv-x="1245" d="M103 512q0 377 234.5 652t584.5 275q173 0 270 -60t97 -162q0 -70 -53.5 -112t-141.5 -42q0 270 -198 270q-245 0 -410.5 -267.5t-165.5 -584.5q0 -371 353 -371q230 0 368 180q26 -18 26 -66q0 -95 -110.5 -169t-304.5 -74q-259 0 -404 138.5t-145 392.5zM324 -455 l21 101q68 -16 133 -16q148 0 148 122q0 99 -128 111l76 154h93l-38 -85q72 -10 115.5 -56.5t43.5 -108.5q0 -115 -83.5 -179.5t-232.5 -64.5q-76 0 -148 22z" />
<glyph unicode="&#xc8;" horiz-adv-x="1237" d="M-42 0l16 83h26q101 0 140 35.5t53 97.5l207 976q5 27 5 48q0 46 -27 70.5t-112 24.5h-25l17 83h1001l-63 -347h-104l6 61q5 47 5 54q0 133 -142 133h-333l-114 -528h479l-19 -97h-479l-127 -595h383q168 0 225 163l31 85h104l-88 -347h-1065zM567 1830l6 20h199 q58 -150 133 -292l-6 -26h-76q-149 145 -256 298z" />
<glyph unicode="&#xc9;" horiz-adv-x="1237" d="M-42 0l16 83h26q101 0 140 35.5t53 97.5l207 976q5 27 5 48q0 46 -27 70.5t-112 24.5h-25l17 83h1001l-63 -347h-104l6 61q5 47 5 54q0 133 -142 133h-333l-114 -528h479l-19 -97h-479l-127 -595h383q168 0 225 163l31 85h104l-88 -347h-1065zM697 1532l6 26 q113 131 212 292h213l-6 -20q-152 -178 -346 -298h-79z" />
<glyph unicode="&#xca;" horiz-adv-x="1237" d="M-42 0l16 83h26q101 0 140 35.5t53 97.5l207 976q5 27 5 48q0 46 -27 70.5t-112 24.5h-25l17 83h1001l-63 -347h-104l6 61q5 47 5 54q0 133 -142 133h-333l-114 -528h479l-19 -97h-479l-127 -595h383q168 0 225 163l31 85h104l-88 -347h-1065zM529 1532l6 26 q180 177 261 292h190q28 -114 134 -292l-5 -26h-70q-92 63 -177 178q-145 -123 -254 -178h-85z" />
<glyph unicode="&#xcb;" horiz-adv-x="1237" d="M-42 0l16 83h26q101 0 140 35.5t53 97.5l207 976q5 27 5 48q0 46 -27 70.5t-112 24.5h-25l17 83h1001l-63 -347h-104l6 61q5 47 5 54q0 133 -142 133h-333l-114 -528h479l-19 -97h-479l-127 -595h383q168 0 225 163l31 85h104l-88 -347h-1065zM525 1683q0 125 106 125 q100 0 100 -100q0 -125 -107 -125q-99 0 -99 100zM902 1683q0 125 107 125q100 0 100 -100q0 -125 -108 -125q-99 0 -99 100z" />
<glyph unicode="&#xcc;" horiz-adv-x="729" d="M-42 0l16 83h26q165 0 195 143l207 974q7 37 7 55q0 80 -143 80h-25l17 83h578l-17 -83h-27q-95 0 -136.5 -36t-56.5 -107l-205 -974q-9 -41 -9 -55q0 -80 144 -80h25l-18 -83h-578zM333 1830l6 20h199q58 -150 133 -292l-6 -26h-76q-149 145 -256 298z" />
<glyph unicode="&#xcd;" horiz-adv-x="729" d="M-42 0l16 83h26q165 0 195 143l207 974q7 37 7 55q0 80 -143 80h-25l17 83h578l-17 -83h-27q-95 0 -136.5 -36t-56.5 -107l-205 -974q-9 -41 -9 -55q0 -80 144 -80h25l-18 -83h-578zM456 1532l6 26q113 131 212 292h213l-6 -20q-152 -178 -346 -298h-79z" />
<glyph unicode="&#xce;" horiz-adv-x="729" d="M-42 0l16 83h26q165 0 195 143l207 974q7 37 7 55q0 80 -143 80h-25l17 83h578l-17 -83h-27q-95 0 -136.5 -36t-56.5 -107l-205 -974q-9 -41 -9 -55q0 -80 144 -80h25l-18 -83h-578zM266 1532l6 26q180 177 261 292h190q28 -114 134 -292l-5 -26h-70q-92 63 -177 178 q-145 -123 -254 -178h-85z" />
<glyph unicode="&#xcf;" horiz-adv-x="729" d="M-42 0l16 83h26q165 0 195 143l207 974q7 37 7 55q0 80 -143 80h-25l17 83h578l-17 -83h-27q-95 0 -136.5 -36t-56.5 -107l-205 -974q-9 -41 -9 -55q0 -80 144 -80h25l-18 -83h-578zM293 1683q0 125 106 125q100 0 100 -100q0 -125 -107 -125q-99 0 -99 100zM670 1683 q0 125 107 125q100 0 100 -100q0 -125 -108 -125q-99 0 -99 100z" />
<glyph unicode="&#xd0;" horiz-adv-x="1440" d="M-42 0l16 83h26q94 0 137 36t58 107l99 468h-193l22 97h191l88 409q2 13 4.5 28.5t2.5 26.5q0 41 -31.5 60.5t-111.5 19.5h-25l17 83h557q270 0 416.5 -139.5t146.5 -400.5q0 -248 -98 -451t-278 -315t-418 -112h-626zM368 101h172q285 0 453.5 219.5t168.5 579.5 q0 205 -96.5 312t-280.5 107h-157l-114 -528h337l-23 -97h-335z" />
<glyph unicode="&#xd1;" horiz-adv-x="1516" d="M-40 0l18 83h26q93 0 133.5 36.5t57.5 106.5l207 974q7 37 7 55q0 80 -143 80h-25l17 83h362l481 -1096l186 878q8 37 8 55q0 80 -143 80h-26l19 83h498l-18 -83h-25q-96 0 -137 -36.5t-57 -106.5l-252 -1192h-129l-511 1164l-200 -946q-8 -41 -8 -55q0 -80 143 -80h25 l-17 -83h-497zM643 1552q70 234 260 234q79 0 164 -62q84 -63 120 -63q86 0 119 106h89q-69 -235 -258 -235q-78 0 -164 63q-86 62 -122 62q-85 0 -119 -105h-89z" />
<glyph unicode="&#xd2;" horiz-adv-x="1474" d="M103 529q0 341 223 626t572 285q231 0 372.5 -143.5t141.5 -402.5q0 -340 -221 -628t-567 -288q-236 0 -378.5 148.5t-142.5 402.5zM320 472q0 -186 84.5 -285.5t230.5 -99.5q248 0 403.5 274t155.5 587q0 185 -82 285t-230 100q-249 0 -405.5 -275t-156.5 -586z M735 1830l6 20h199q58 -150 133 -292l-6 -26h-76q-149 145 -256 298z" />
<glyph unicode="&#xd3;" horiz-adv-x="1474" d="M103 529q0 341 223 626t572 285q231 0 372.5 -143.5t141.5 -402.5q0 -340 -221 -628t-567 -288q-236 0 -378.5 148.5t-142.5 402.5zM320 472q0 -186 84.5 -285.5t230.5 -99.5q248 0 403.5 274t155.5 587q0 185 -82 285t-230 100q-249 0 -405.5 -275t-156.5 -586z M796 1532l6 26q113 131 212 292h213l-6 -20q-152 -178 -346 -298h-79z" />
<glyph unicode="&#xd4;" horiz-adv-x="1474" d="M103 529q0 341 223 626t572 285q231 0 372.5 -143.5t141.5 -402.5q0 -340 -221 -628t-567 -288q-236 0 -378.5 148.5t-142.5 402.5zM320 472q0 -186 84.5 -285.5t230.5 -99.5q248 0 403.5 274t155.5 587q0 185 -82 285t-230 100q-249 0 -405.5 -275t-156.5 -586z M614 1532l6 26q180 177 261 292h190q28 -114 134 -292l-5 -26h-70q-92 63 -177 178q-145 -123 -254 -178h-85z" />
<glyph unicode="&#xd5;" horiz-adv-x="1474" d="M103 529q0 341 223 626t572 285q231 0 372.5 -143.5t141.5 -402.5q0 -340 -221 -628t-567 -288q-236 0 -378.5 148.5t-142.5 402.5zM320 472q0 -186 84.5 -285.5t230.5 -99.5q248 0 403.5 274t155.5 587q0 185 -82 285t-230 100q-249 0 -405.5 -275t-156.5 -586z M571 1552q70 234 260 234q79 0 164 -62q84 -63 120 -63q86 0 119 106h89q-69 -235 -258 -235q-78 0 -164 63q-86 62 -122 62q-85 0 -119 -105h-89z" />
<glyph unicode="&#xd6;" horiz-adv-x="1474" d="M103 529q0 341 223 626t572 285q231 0 372.5 -143.5t141.5 -402.5q0 -340 -221 -628t-567 -288q-236 0 -378.5 148.5t-142.5 402.5zM320 472q0 -186 84.5 -285.5t230.5 -99.5q248 0 403.5 274t155.5 587q0 185 -82 285t-230 100q-249 0 -405.5 -275t-156.5 -586z M658 1683q0 125 106 125q100 0 100 -100q0 -125 -107 -125q-99 0 -99 100zM1035 1683q0 125 107 125q100 0 100 -100q0 -125 -108 -125q-99 0 -99 100z" />
<glyph unicode="&#xd7;" d="M141 383l329 330l-329 328l83 83l330 -330l330 332l83 -85l-330 -330l330 -330l-83 -83l-330 330l-330 -330z" />
<glyph unicode="&#xd8;" horiz-adv-x="1474" d="M103 529q0 341 223 626t572 285q160 0 282 -73l103 133h116l-146 -189q159 -147 159 -417q0 -340 -221 -628t-567 -288q-160 0 -281 71l-93 -129h-117l133 186q-163 151 -163 423zM320 472q0 -134 48 -230l728 1007q-81 84 -214 84q-249 0 -405.5 -275t-156.5 -586z M425 163q83 -76 210 -76q248 0 403.5 274t155.5 587q0 125 -42 220z" />
<glyph unicode="&#xd9;" horiz-adv-x="1450" d="M191 324q0 80 21 177l148 699q8 37 8 55q0 80 -144 80h-25l17 83h578l-15 -83h-26q-93 0 -136 -35.5t-59 -107.5l-149 -701q-24 -115 -24 -185q0 -207 286 -207q161 0 255 71.5t131 238.5l169 791q8 36 8 55q0 80 -144 80h-25l18 83h498l-15 -83h-27q-93 0 -135.5 -35.5 t-59.5 -107.5l-166 -787q-91 -424 -536 -424q-219 0 -335 89t-116 254zM695 1830l6 20h199q58 -150 133 -292l-6 -26h-76q-149 145 -256 298z" />
<glyph unicode="&#xda;" horiz-adv-x="1450" d="M191 324q0 80 21 177l148 699q8 37 8 55q0 80 -144 80h-25l17 83h578l-15 -83h-26q-93 0 -136 -35.5t-59 -107.5l-149 -701q-24 -115 -24 -185q0 -207 286 -207q161 0 255 71.5t131 238.5l169 791q8 36 8 55q0 80 -144 80h-25l18 83h498l-15 -83h-27q-93 0 -135.5 -35.5 t-59.5 -107.5l-166 -787q-91 -424 -536 -424q-219 0 -335 89t-116 254zM832 1532l6 26q113 131 212 292h213l-6 -20q-152 -178 -346 -298h-79z" />
<glyph unicode="&#xdb;" horiz-adv-x="1450" d="M191 324q0 80 21 177l148 699q8 37 8 55q0 80 -144 80h-25l17 83h578l-15 -83h-26q-93 0 -136 -35.5t-59 -107.5l-149 -701q-24 -115 -24 -185q0 -207 286 -207q161 0 255 71.5t131 238.5l169 791q8 36 8 55q0 80 -144 80h-25l18 83h498l-15 -83h-27q-93 0 -135.5 -35.5 t-59.5 -107.5l-166 -787q-91 -424 -536 -424q-219 0 -335 89t-116 254zM654 1532l6 26q180 177 261 292h190q28 -114 134 -292l-5 -26h-70q-92 63 -177 178q-145 -123 -254 -178h-85z" />
<glyph unicode="&#xdc;" horiz-adv-x="1450" d="M191 324q0 80 21 177l148 699q8 37 8 55q0 80 -144 80h-25l17 83h578l-15 -83h-26q-93 0 -136 -35.5t-59 -107.5l-149 -701q-24 -115 -24 -185q0 -207 286 -207q161 0 255 71.5t131 238.5l169 791q8 36 8 55q0 80 -144 80h-25l18 83h498l-15 -83h-27q-93 0 -135.5 -35.5 t-59.5 -107.5l-166 -787q-91 -424 -536 -424q-219 0 -335 89t-116 254zM652 1683q0 125 106 125q100 0 100 -100q0 -125 -107 -125q-99 0 -99 100zM1029 1683q0 125 107 125q100 0 100 -100q0 -125 -108 -125q-99 0 -99 100z" />
<glyph unicode="&#xdd;" horiz-adv-x="1241" d="M153 1335l18 83h536l-17 -83h-100q-82 0 -82 -54q0 -38 26 -115l90 -266q47 -141 53 -238q19 36 149 208l190 252q72 97 72 161q0 52 -95 52h-73l18 83h491l-19 -83h-37q-38 0 -75.5 -30.5t-105.5 -120.5l-463 -606l-77 -360q-8 -36 -8 -55q0 -80 143 -80h45l-17 -83 h-618l17 83h46q100 0 138.5 34.5t52.5 98.5l78 366l-231 648q-23 63 -44.5 84t-75.5 21h-25zM741 1532l6 26q113 131 212 292h213l-6 -20q-152 -178 -346 -298h-79z" />
<glyph unicode="&#xde;" horiz-adv-x="1199" d="M-40 0l18 83h26q93 0 134.5 36t56.5 107l207 974q7 37 7 55q0 80 -143 80h-25l17 83h599l-19 -83h-46q-99 0 -139 -37.5t-54 -105.5l-3 -20h117q215 0 334 -100t119 -283q0 -226 -153 -354.5t-455 -128.5h-147l-17 -88q-9 -43 -9 -55q0 -80 144 -80h45l-18 -83h-596z M431 400h105q419 0 419 387q0 290 -290 290h-91z" />
<glyph unicode="&#xdf;" horiz-adv-x="1245" d="M-271 -461l19 91q49 -13 91 -13q99 0 154 85t96 281l211 988h-161l20 94h161l14 59q91 396 496 396q362 0 362 -305q0 -105 -28 -239h-171q-218 0 -218 -163q0 -68 43 -113.5t122 -91.5q186 -109 186 -299q0 -157 -98.5 -242.5t-284.5 -85.5q-141 0 -221.5 53.5 t-80.5 147.5q0 59 42.5 94.5t106.5 35.5q0 -236 167 -236q88 0 141.5 51t53.5 137q0 134 -152 223q-198 122 -198 284q0 298 395 298q22 100 22 165q0 197 -195 197q-235 0 -297 -279l-251 -1168q-52 -242 -151.5 -351.5t-279.5 -109.5q-56 0 -116 16z" />
<glyph unicode="&#xe0;" horiz-adv-x="1150" d="M85 343q0 274 170.5 507.5t421.5 233.5q135 0 233 -71l87 50h64l-136 -636q-29 -137 -29 -220q0 -101 65 -101q57 0 144 51l36 -58q-143 -118 -281 -118q-155 0 -155 165q0 63 21 154h-13q-143 -319 -372 -319q-121 0 -188.5 95.5t-67.5 266.5zM288 336q0 -230 125 -230 q99 0 207.5 146.5t143.5 319.5l74 351q-46 72 -150 72q-170 0 -285 -215.5t-115 -443.5zM428 1502l6 20h199q58 -150 133 -292l-6 -26h-76q-149 145 -256 298z" />
<glyph unicode="&#xe1;" horiz-adv-x="1150" d="M85 343q0 274 170.5 507.5t421.5 233.5q135 0 233 -71l87 50h64l-136 -636q-29 -137 -29 -220q0 -101 65 -101q57 0 144 51l36 -58q-143 -118 -281 -118q-155 0 -155 165q0 63 21 154h-13q-143 -319 -372 -319q-121 0 -188.5 95.5t-67.5 266.5zM288 336q0 -230 125 -230 q99 0 207.5 146.5t143.5 319.5l74 351q-46 72 -150 72q-170 0 -285 -215.5t-115 -443.5zM612 1204l6 26q113 131 212 292h213l-6 -20q-152 -178 -346 -298h-79z" />
<glyph unicode="&#xe2;" horiz-adv-x="1150" d="M85 343q0 274 170.5 507.5t421.5 233.5q135 0 233 -71l87 50h64l-136 -636q-29 -137 -29 -220q0 -101 65 -101q57 0 144 51l36 -58q-143 -118 -281 -118q-155 0 -155 165q0 63 21 154h-13q-143 -319 -372 -319q-121 0 -188.5 95.5t-67.5 266.5zM288 336q0 -230 125 -230 q99 0 207.5 146.5t143.5 319.5l74 351q-46 72 -150 72q-170 0 -285 -215.5t-115 -443.5zM392 1204l6 26q180 177 261 292h190q28 -114 134 -292l-5 -26h-70q-92 63 -177 178q-145 -123 -254 -178h-85z" />
<glyph unicode="&#xe3;" horiz-adv-x="1150" d="M85 343q0 274 170.5 507.5t421.5 233.5q135 0 233 -71l87 50h64l-136 -636q-29 -137 -29 -220q0 -101 65 -101q57 0 144 51l36 -58q-143 -118 -281 -118q-155 0 -155 165q0 63 21 154h-13q-143 -319 -372 -319q-121 0 -188.5 95.5t-67.5 266.5zM288 336q0 -230 125 -230 q99 0 207.5 146.5t143.5 319.5l74 351q-46 72 -150 72q-170 0 -285 -215.5t-115 -443.5zM331 1224q70 234 260 234q79 0 164 -62q84 -63 120 -63q86 0 119 106h89q-69 -235 -258 -235q-78 0 -164 63q-86 62 -122 62q-85 0 -119 -105h-89z" />
<glyph unicode="&#xe4;" horiz-adv-x="1150" d="M85 343q0 274 170.5 507.5t421.5 233.5q135 0 233 -71l87 50h64l-136 -636q-29 -137 -29 -220q0 -101 65 -101q57 0 144 51l36 -58q-143 -118 -281 -118q-155 0 -155 165q0 63 21 154h-13q-143 -319 -372 -319q-121 0 -188.5 95.5t-67.5 266.5zM288 336q0 -230 125 -230 q99 0 207.5 146.5t143.5 319.5l74 351q-46 72 -150 72q-170 0 -285 -215.5t-115 -443.5zM391 1355q0 125 106 125q100 0 100 -100q0 -125 -107 -125q-99 0 -99 100zM768 1355q0 125 107 125q100 0 100 -100q0 -125 -108 -125q-99 0 -99 100z" />
<glyph unicode="&#xe5;" horiz-adv-x="1150" d="M85 343q0 274 170.5 507.5t421.5 233.5q135 0 233 -71l87 50h64l-136 -636q-29 -137 -29 -220q0 -101 65 -101q57 0 144 51l36 -58q-143 -118 -281 -118q-155 0 -155 165q0 63 21 154h-13q-143 -319 -372 -319q-121 0 -188.5 95.5t-67.5 266.5zM288 336q0 -230 125 -230 q99 0 207.5 146.5t143.5 319.5l74 351q-46 72 -150 72q-170 0 -285 -215.5t-115 -443.5zM476 1401q0 101 67 158.5t172 57.5t172 -57.5t67 -158.5q0 -102 -67.5 -159.5t-171.5 -57.5t-171.5 57.5t-67.5 159.5zM584 1401q0 -120 131 -120t131 120q0 119 -131 119t-131 -119z " />
<glyph unicode="&#xe6;" horiz-adv-x="1615" d="M85 375q0 270 159.5 489.5t420.5 219.5q157 0 304 -123q148 123 344 123q126 0 195 -60t69 -167q0 -162 -167 -281t-409 -119h-34q-17 0 -35 2q-5 -24 -5 -84q0 -269 220 -269q165 0 286 142q19 -13 19 -49q0 -82 -93.5 -150t-249.5 -68q-137 0 -236 72.5t-132 212.5 q-112 -285 -356 -285q-136 0 -218 104.5t-82 289.5zM288 354q0 -118 44 -183t123 -65q99 0 171.5 96t101.5 259q36 226 150 405q-94 129 -203 129q-168 0 -277.5 -210.5t-109.5 -430.5zM950 550h19q176 0 290 85.5t114 221.5q0 132 -116 132q-97 0 -181 -123.5t-126 -315.5z " />
<glyph unicode="&#xe7;" horiz-adv-x="967" d="M85 391q0 260 168 476.5t424 216.5q137 0 213.5 -54t76.5 -136q0 -60 -48 -99.5t-128 -39.5q0 105 -41 169.5t-113 64.5q-138 0 -241.5 -207.5t-103.5 -406.5q0 -269 218 -269q174 0 286 142q21 -12 21 -49q0 -80 -93.5 -149t-251.5 -69q-173 0 -280 109.5t-107 300.5z M167 -455l21 101q68 -16 133 -16q148 0 148 122q0 99 -128 111l76 154h93l-38 -85q72 -10 115.5 -56.5t43.5 -108.5q0 -115 -83.5 -179.5t-232.5 -64.5q-76 0 -148 22z" />
<glyph unicode="&#xe8;" horiz-adv-x="979" d="M85 391q0 260 168 476.5t424 216.5q126 0 195.5 -60t69.5 -167q0 -162 -167.5 -281t-408.5 -119h-34q-18 0 -36 2q-4 -27 -4 -84q0 -269 218 -269q170 0 286 142q21 -12 21 -49q0 -80 -93.5 -149t-251.5 -69q-173 0 -280 109.5t-107 300.5zM314 550h20q175 0 289 85.5 t114 221.5q0 132 -115 132q-96 0 -179.5 -120.5t-128.5 -318.5zM443 1502l6 20h199q58 -150 133 -292l-6 -26h-76q-149 145 -256 298z" />
<glyph unicode="&#xe9;" horiz-adv-x="979" d="M85 391q0 260 168 476.5t424 216.5q126 0 195.5 -60t69.5 -167q0 -162 -167.5 -281t-408.5 -119h-34q-18 0 -36 2q-4 -27 -4 -84q0 -269 218 -269q170 0 286 142q21 -12 21 -49q0 -80 -93.5 -149t-251.5 -69q-173 0 -280 109.5t-107 300.5zM314 550h20q175 0 289 85.5 t114 221.5q0 132 -115 132q-96 0 -179.5 -120.5t-128.5 -318.5zM590 1204l6 26q113 131 212 292h213l-6 -20q-152 -178 -346 -298h-79z" />
<glyph unicode="&#xea;" horiz-adv-x="979" d="M85 391q0 260 168 476.5t424 216.5q126 0 195.5 -60t69.5 -167q0 -162 -167.5 -281t-408.5 -119h-34q-18 0 -36 2q-4 -27 -4 -84q0 -269 218 -269q170 0 286 142q21 -12 21 -49q0 -80 -93.5 -149t-251.5 -69q-173 0 -280 109.5t-107 300.5zM314 550h20q175 0 289 85.5 t114 221.5q0 132 -115 132q-96 0 -179.5 -120.5t-128.5 -318.5zM370 1204l6 26q180 177 261 292h190q28 -114 134 -292l-5 -26h-70q-92 63 -177 178q-145 -123 -254 -178h-85z" />
<glyph unicode="&#xeb;" horiz-adv-x="979" d="M85 391q0 260 168 476.5t424 216.5q126 0 195.5 -60t69.5 -167q0 -162 -167.5 -281t-408.5 -119h-34q-18 0 -36 2q-4 -27 -4 -84q0 -269 218 -269q170 0 286 142q21 -12 21 -49q0 -80 -93.5 -149t-251.5 -69q-173 0 -280 109.5t-107 300.5zM314 550h20q175 0 289 85.5 t114 221.5q0 132 -115 132q-96 0 -179.5 -120.5t-128.5 -318.5zM395 1355q0 125 106 125q100 0 100 -100q0 -125 -107 -125q-99 0 -99 100zM772 1355q0 125 107 125q100 0 100 -100q0 -125 -108 -125q-99 0 -99 100z" />
<glyph unicode="&#xec;" horiz-adv-x="604" d="M123 982l18 83h356l-135 -638q-30 -143 -30 -220q0 -101 66 -101q57 0 142 51l36 -58q-138 -118 -269 -118q-73 0 -118.5 53t-45.5 135q0 89 44 312l77 365q7 32 7 52q0 84 -122 84h-26zM185 1502l6 20h199q58 -150 133 -292l-6 -26h-76q-149 145 -256 298z" />
<glyph unicode="&#xed;" horiz-adv-x="604" d="M123 982l18 83h356l-135 -638q-30 -143 -30 -220q0 -101 66 -101q57 0 142 51l36 -58q-138 -118 -269 -118q-73 0 -118.5 53t-45.5 135q0 89 44 312l77 365q7 32 7 52q0 84 -122 84h-26zM317 1204l6 26q113 131 212 292h213l-6 -20q-152 -178 -346 -298h-79z" />
<glyph unicode="&#xee;" horiz-adv-x="604" d="M71 1204l6 26q180 177 261 292h190q28 -114 134 -292l-5 -26h-70q-92 63 -177 178q-145 -123 -254 -178h-85zM123 982l18 83h356l-135 -638q-30 -143 -30 -220q0 -101 66 -101q57 0 142 51l36 -58q-138 -118 -269 -118q-73 0 -118.5 53t-45.5 135q0 89 44 312l77 365 q7 32 7 52q0 84 -122 84h-26z" />
<glyph unicode="&#xef;" horiz-adv-x="604" d="M103 1355q0 125 106 125q100 0 100 -100q0 -125 -107 -125q-99 0 -99 100zM123 982l18 83h356l-135 -638q-30 -143 -30 -220q0 -101 66 -101q57 0 142 51l36 -58q-138 -118 -269 -118q-73 0 -118.5 53t-45.5 135q0 89 44 312l77 365q7 32 7 52q0 84 -122 84h-26z M480 1355q0 125 107 125q100 0 100 -100q0 -125 -108 -125q-99 0 -99 100z" />
<glyph unicode="&#xf0;" horiz-adv-x="1140" d="M85 358q0 164 79 321.5t210.5 242.5t298.5 85q50 0 95 -14t76 -39q-18 80 -52.5 153t-86.5 129l-284 -146l24 112l192 99q-41 33 -100.5 62.5t-117.5 48.5l34 100q87 -22 167 -60t147 -87l287 149l-25 -113l-195 -100q97 -95 156 -252t59 -330q0 -336 -154.5 -543.5 t-429.5 -207.5q-174 0 -277 103t-103 287zM292 326q0 -131 50.5 -195.5t144.5 -64.5q161 0 258 178.5t97 399.5q0 136 -50.5 198t-141.5 62q-163 0 -260.5 -181t-97.5 -397z" />
<glyph unicode="&#xf1;" horiz-adv-x="1190" d="M87 0l167 798q12 56 12 90q0 94 -139 94h-15l17 83h368l-54 -250h20q161 268 361 268q213 0 213 -221q0 -63 -36 -218l-51 -235q-27 -119 -27 -208q0 -95 70 -95q58 0 127 45l36 -58q-130 -112 -242 -112q-83 0 -132 53t-49 144q0 92 38 269l46 206q29 120 29 185 q0 117 -91 117q-111 0 -227 -149t-149 -298l-106 -508h-186zM351 1224q70 234 260 234q79 0 164 -62q84 -63 120 -63q86 0 119 106h89q-69 -235 -258 -235q-78 0 -164 63q-86 62 -122 62q-85 0 -119 -105h-89z" />
<glyph unicode="&#xf2;" horiz-adv-x="1140" d="M85 391q0 268 163.5 480.5t428.5 212.5q176 0 276.5 -105.5t100.5 -305.5q0 -265 -162 -478.5t-425 -213.5q-180 0 -281 108.5t-101 301.5zM292 351q0 -273 197 -273q164 0 261.5 194.5t97.5 430.5q0 277 -194 277q-162 0 -262 -195t-100 -434zM456 1502l6 20h199 q58 -150 133 -292l-6 -26h-76q-149 145 -256 298z" />
<glyph unicode="&#xf3;" horiz-adv-x="1140" d="M85 391q0 268 163.5 480.5t428.5 212.5q176 0 276.5 -105.5t100.5 -305.5q0 -265 -162 -478.5t-425 -213.5q-180 0 -281 108.5t-101 301.5zM292 351q0 -273 197 -273q164 0 261.5 194.5t97.5 430.5q0 277 -194 277q-162 0 -262 -195t-100 -434zM604 1204l6 26 q113 131 212 292h213l-6 -20q-152 -178 -346 -298h-79z" />
<glyph unicode="&#xf4;" horiz-adv-x="1140" d="M85 391q0 268 163.5 480.5t428.5 212.5q176 0 276.5 -105.5t100.5 -305.5q0 -265 -162 -478.5t-425 -213.5q-180 0 -281 108.5t-101 301.5zM292 351q0 -273 197 -273q164 0 261.5 194.5t97.5 430.5q0 277 -194 277q-162 0 -262 -195t-100 -434zM381 1204l6 26 q180 177 261 292h190q28 -114 134 -292l-5 -26h-70q-92 63 -177 178q-145 -123 -254 -178h-85z" />
<glyph unicode="&#xf5;" horiz-adv-x="1140" d="M85 391q0 268 163.5 480.5t428.5 212.5q176 0 276.5 -105.5t100.5 -305.5q0 -265 -162 -478.5t-425 -213.5q-180 0 -281 108.5t-101 301.5zM292 351q0 -273 197 -273q164 0 261.5 194.5t97.5 430.5q0 277 -194 277q-162 0 -262 -195t-100 -434zM340 1224q70 234 260 234 q79 0 164 -62q84 -63 120 -63q86 0 119 106h89q-69 -235 -258 -235q-78 0 -164 63q-86 62 -122 62q-85 0 -119 -105h-89z" />
<glyph unicode="&#xf6;" horiz-adv-x="1140" d="M85 391q0 268 163.5 480.5t428.5 212.5q176 0 276.5 -105.5t100.5 -305.5q0 -265 -162 -478.5t-425 -213.5q-180 0 -281 108.5t-101 301.5zM292 351q0 -273 197 -273q164 0 261.5 194.5t97.5 430.5q0 277 -194 277q-162 0 -262 -195t-100 -434zM404 1355q0 125 106 125 q100 0 100 -100q0 -125 -107 -125q-99 0 -99 100zM781 1355q0 125 107 125q100 0 100 -100q0 -125 -108 -125q-99 0 -99 100z" />
<glyph unicode="&#xf7;" d="M146 652v117h851v-117h-851zM470 334q0 109 102 109q101 0 101 -109q0 -110 -101 -110q-102 0 -102 110zM470 1086q0 110 102 110q101 0 101 -110q0 -108 -101 -108q-102 0 -102 108z" />
<glyph unicode="&#xf8;" horiz-adv-x="1140" d="M10 -80l157 190q-82 106 -82 281q0 268 163.5 480.5t428.5 212.5q145 0 237 -71l111 132h116l-161 -197q74 -103 74 -275q0 -267 -162 -482t-425 -215q-137 0 -236 70l-104 -126h-117zM292 351q0 -63 4 -85l517 624q-48 90 -159 90q-162 0 -262 -195t-100 -434zM328 163 q44 -89 161 -89q163 0 261 195.5t98 433.5q0 43 -6 82z" />
<glyph unicode="&#xf9;" horiz-adv-x="1190" d="M113 982l18 83h370l-131 -595q-40 -180 -40 -239q0 -121 97 -121q102 0 219.5 147t153.5 313l104 495h192l-137 -638q-30 -141 -30 -220q0 -101 66 -101q56 0 127 43l36 -58q-126 -110 -252 -110q-75 0 -121 53t-46 135q0 51 10 117h-16q-107 -177 -192 -240t-192 -63 q-212 0 -212 220q0 63 36 218l77 348q18 79 18 119q0 94 -139 94h-16zM471 1502l6 20h199q58 -150 133 -292l-6 -26h-76q-149 145 -256 298z" />
<glyph unicode="&#xfa;" horiz-adv-x="1190" d="M113 982l18 83h370l-131 -595q-40 -180 -40 -239q0 -121 97 -121q102 0 219.5 147t153.5 313l104 495h192l-137 -638q-30 -141 -30 -220q0 -101 66 -101q56 0 127 43l36 -58q-126 -110 -252 -110q-75 0 -121 53t-46 135q0 51 10 117h-16q-107 -177 -192 -240t-192 -63 q-212 0 -212 220q0 63 36 218l77 348q18 79 18 119q0 94 -139 94h-16zM622 1204l6 26q113 131 212 292h213l-6 -20q-152 -178 -346 -298h-79z" />
<glyph unicode="&#xfb;" horiz-adv-x="1190" d="M113 982l18 83h370l-131 -595q-40 -180 -40 -239q0 -121 97 -121q102 0 219.5 147t153.5 313l104 495h192l-137 -638q-30 -141 -30 -220q0 -101 66 -101q56 0 127 43l36 -58q-126 -110 -252 -110q-75 0 -121 53t-46 135q0 51 10 117h-16q-107 -177 -192 -240t-192 -63 q-212 0 -212 220q0 63 36 218l77 348q18 79 18 119q0 94 -139 94h-16zM415 1204l6 26q180 177 261 292h190q28 -114 134 -292l-5 -26h-70q-92 63 -177 178q-145 -123 -254 -178h-85z" />
<glyph unicode="&#xfc;" horiz-adv-x="1190" d="M113 982l18 83h370l-131 -595q-40 -180 -40 -239q0 -121 97 -121q102 0 219.5 147t153.5 313l104 495h192l-137 -638q-30 -141 -30 -220q0 -101 66 -101q56 0 127 43l36 -58q-126 -110 -252 -110q-75 0 -121 53t-46 135q0 51 10 117h-16q-107 -177 -192 -240t-192 -63 q-212 0 -212 220q0 63 36 218l77 348q18 79 18 119q0 94 -139 94h-16zM455 1355q0 125 106 125q100 0 100 -100q0 -125 -107 -125q-99 0 -99 100zM832 1355q0 125 107 125q100 0 100 -100q0 -125 -108 -125q-99 0 -99 100z" />
<glyph unicode="&#xfd;" horiz-adv-x="1048" d="M-322 -441l30 100q70 -23 155 -23q284 0 558 362l-262 878q-17 58 -47.5 82t-89.5 24h-20l15 83h290l156 -536q71 -250 83 -360h6q269 408 269 659q0 108 -98 108q0 67 38.5 107t91.5 40q134 0 134 -167q0 -240 -267.5 -674t-429 -576.5t-425.5 -142.5q-105 0 -187 36z M513 1204l6 26q113 131 212 292h213l-6 -20q-152 -178 -346 -298h-79z" />
<glyph unicode="&#xfe;" horiz-adv-x="1116" d="M-48 -477l362 1705q18 82 18 105q0 93 -139 93h-16l18 83h366l-102 -476q-17 -77 -59 -233h11q144 284 364 284q121 0 188.5 -92t67.5 -266q0 -267 -168 -506t-426 -239q-116 0 -196 45q-9 -75 -15 -96l-30 -146q-14 -57 -14 -91q0 -87 140 -87h25l-17 -83h-378zM273 141 q63 -71 158 -71q166 0 281.5 216t115.5 442q0 109 -34 170t-95 61q-103 0 -209 -146t-136 -294z" />
<glyph unicode="&#xff;" horiz-adv-x="1048" d="M-322 -441l30 100q70 -23 155 -23q284 0 558 362l-262 878q-17 58 -47.5 82t-89.5 24h-20l15 83h290l156 -536q71 -250 83 -360h6q269 408 269 659q0 108 -98 108q0 67 38.5 107t91.5 40q134 0 134 -167q0 -240 -267.5 -674t-429 -576.5t-425.5 -142.5q-105 0 -187 36z M302 1355q0 125 106 125q100 0 100 -100q0 -125 -107 -125q-99 0 -99 100zM679 1355q0 125 107 125q100 0 100 -100q0 -125 -108 -125q-99 0 -99 100z" />
<glyph unicode="&#x152;" horiz-adv-x="1910" d="M103 529q0 341 223 626t572 285q99 0 211 -22h824l-64 -347h-103q10 68 10 115q0 129 -141 133h-334l-113 -528h478l-19 -97h-479l-127 -595h383q168 0 225 163l32 85h103l-87 -347h-855l-67 -12q-78 -10 -151 -10q-236 0 -378.5 148.5t-142.5 402.5zM320 472 q0 -186 84.5 -285.5t230.5 -99.5q131 0 211 34l248 1172q-109 40 -212 40q-249 0 -405.5 -275t-156.5 -586z" />
<glyph unicode="&#x153;" horiz-adv-x="1713" d="M85 391q0 269 163.5 486t428.5 217q241 0 334 -198q168 188 401 188q126 0 195.5 -60t69.5 -167q0 -90 -59 -176t-165.5 -141t-188.5 -68t-233 -13q-6 -45 -6 -84q0 -269 220 -269q170 0 287 142q19 -13 19 -49q0 -82 -93.5 -150t-249.5 -68q-232 0 -334 180 q-164 -193 -407 -193q-177 0 -279.5 113.5t-102.5 309.5zM292 351q0 -285 197 -285q163 0 261 199t98 438q0 286 -194 286q-162 0 -262 -199t-100 -439zM1049 550h20q176 0 289.5 86.5t113.5 220.5q0 132 -115 132q-97 0 -181 -122.5t-127 -316.5z" />
<glyph unicode="&#x178;" horiz-adv-x="1241" d="M153 1335l18 83h536l-17 -83h-100q-82 0 -82 -54q0 -38 26 -115l90 -266q47 -141 53 -238q19 36 149 208l190 252q72 97 72 161q0 52 -95 52h-73l18 83h491l-19 -83h-37q-38 0 -75.5 -30.5t-105.5 -120.5l-463 -606l-77 -360q-8 -36 -8 -55q0 -80 143 -80h45l-17 -83 h-618l17 83h46q100 0 138.5 34.5t52.5 98.5l78 366l-231 648q-23 63 -44.5 84t-75.5 21h-25zM565 1683q0 125 106 125q100 0 100 -100q0 -125 -107 -125q-99 0 -99 100zM942 1683q0 125 107 125q100 0 100 -100q0 -125 -108 -125q-99 0 -99 100z" />
<glyph unicode="&#x2c6;" horiz-adv-x="1146" d="M364 1204l6 26q180 177 261 292h190q28 -114 134 -292l-5 -26h-70q-92 63 -177 178q-145 -123 -254 -178h-85z" />
<glyph unicode="&#x2dc;" horiz-adv-x="1146" d="M334 1224q70 234 260 234q79 0 164 -62q84 -63 120 -63q86 0 119 106h89q-69 -235 -258 -235q-78 0 -164 63q-86 62 -122 62q-85 0 -119 -105h-89z" />
<glyph unicode="&#x2000;" horiz-adv-x="925" />
<glyph unicode="&#x2001;" horiz-adv-x="1850" />
<glyph unicode="&#x2002;" horiz-adv-x="925" />
<glyph unicode="&#x2003;" horiz-adv-x="1850" />
<glyph unicode="&#x2004;" horiz-adv-x="616" />
<glyph unicode="&#x2005;" horiz-adv-x="462" />
<glyph unicode="&#x2006;" horiz-adv-x="308" />
<glyph unicode="&#x2007;" horiz-adv-x="308" />
<glyph unicode="&#x2008;" horiz-adv-x="231" />
<glyph unicode="&#x2009;" horiz-adv-x="370" />
<glyph unicode="&#x200a;" horiz-adv-x="102" />
<glyph unicode="&#x2010;" horiz-adv-x="615" d="M28 467l31 149h517l-32 -149h-516z" />
<glyph unicode="&#x2011;" horiz-adv-x="615" d="M28 467l31 149h517l-32 -149h-516z" />
<glyph unicode="&#x2012;" horiz-adv-x="615" d="M28 467l31 149h517l-32 -149h-516z" />
<glyph unicode="&#x2013;" horiz-adv-x="993" d="M-6 474l23 118h1014l-26 -118h-1011z" />
<glyph unicode="&#x2014;" horiz-adv-x="1986" d="M-6 474l23 118h2007l-26 -118h-2004z" />
<glyph unicode="&#x2018;" horiz-adv-x="496" d="M209 1037q0 143 92 244t267 137l-7 -83q-203 -45 -203 -167q0 -35 65 -76q64 -41 64 -101q0 -53 -34 -85t-89 -32q-65 0 -110 45t-45 118z" />
<glyph unicode="&#x2019;" horiz-adv-x="496" d="M163 874l8 83q202 46 202 167q0 35 -64 76q-65 41 -65 101q0 53 34 85t90 32q67 0 111 -45t44 -118q0 -146 -93.5 -246t-266.5 -135z" />
<glyph unicode="&#x201a;" horiz-adv-x="496" d="M-55 -290l7 83q203 46 203 167q0 35 -64 76q-65 41 -65 101q0 53 34 85t89 32q67 0 111 -44t44 -119q0 -145 -92.5 -245.5t-266.5 -135.5z" />
<glyph unicode="&#x201c;" horiz-adv-x="894" d="M209 1037q0 143 92 244t267 137l-7 -83q-203 -45 -203 -167q0 -35 65 -76q64 -41 64 -101q0 -53 -34 -85t-89 -32q-65 0 -110 45t-45 118zM606 1037q0 145 92.5 245.5t266.5 135.5l-8 -83q-202 -46 -202 -167q0 -35 65 -76q64 -41 64 -101q0 -53 -33.5 -85t-90.5 -32 q-65 0 -109.5 45t-44.5 118z" />
<glyph unicode="&#x201d;" horiz-adv-x="894" d="M163 874l8 83q202 46 202 167q0 35 -64 76q-65 41 -65 101q0 53 34 85t90 32q67 0 111 -45t44 -118q0 -146 -93.5 -246t-266.5 -135zM561 874l7 83q203 46 203 167q0 35 -64 76q-65 41 -65 101q0 53 33 85t89 32q67 0 111.5 -45t44.5 -118q0 -147 -94 -247t-265 -134z " />
<glyph unicode="&#x201e;" horiz-adv-x="894" d="M-55 -290l7 83q203 46 203 167q0 35 -64 76q-65 41 -65 101q0 53 34 85t89 32q67 0 111 -44t44 -119q0 -145 -92.5 -245.5t-266.5 -135.5zM340 -290l7 83q203 46 203 167q0 35 -64 76q-65 41 -65 101q0 53 34 85t89 32q67 0 111 -45t44 -118q0 -146 -93.5 -246 t-265.5 -135z" />
<glyph unicode="&#x2022;" horiz-adv-x="718" d="M113 707q0 288 262 288t262 -288t-262 -288t-262 288z" />
<glyph unicode="&#x2026;" horiz-adv-x="1704" d="M87 106q0 69 35.5 110.5t95.5 41.5q123 0 123 -121q0 -70 -35 -111.5t-96 -41.5q-123 0 -123 122zM652 106q0 69 35.5 110.5t95.5 41.5q123 0 123 -121q0 -71 -35.5 -112t-95.5 -41q-123 0 -123 122zM1226 106q0 69 35.5 110.5t95.5 41.5q58 0 90.5 -33t32.5 -88 q0 -71 -35.5 -112t-95.5 -41q-123 0 -123 122z" />
<glyph unicode="&#x202f;" horiz-adv-x="370" />
<glyph unicode="&#x2039;" horiz-adv-x="661" d="M121 504l14 64l377 346h100l-286 -385l125 -370h-100z" />
<glyph unicode="&#x203a;" horiz-adv-x="661" d="M49 159l291 385l-130 370h99l231 -346l-13 -64l-378 -345h-100z" />
<glyph unicode="&#x205f;" horiz-adv-x="462" />
<glyph unicode="&#x20ac;" d="M51 531l21 93h137q10 79 26 138h-136l20 95h141q173 578 618 578q137 0 217.5 -51.5t80.5 -134.5q0 -144 -175 -144q0 232 -161 232q-253 0 -389 -480h417l-20 -95h-421q-17 -61 -25 -138h339l-20 -93h-332q-4 -30 -4 -114q0 -153 63 -236.5t182 -83.5q162 0 278 119 q24 -16 24 -47q0 -65 -92 -126.5t-246 -61.5q-191 0 -296 115t-105 335q0 70 4 100h-146z" />
<glyph unicode="&#x2122;" horiz-adv-x="1658" d="M207 1238l5 180h580l6 -180h-57l-8 47q-10 68 -79 70h-91v-509q0 -61 74 -61h32v-54h-337v54h34q73 0 73 55v515h-88q-69 0 -78 -70l-9 -47h-57zM832 731v54h21q73 0 76 55v468q0 55 -76 55h-21v55h229l218 -550l225 550h225v-55h-23q-75 0 -75 -60v-457q0 -61 75 -61h23 v-54h-294v54q71 0 77 53v443l-225 -550h-70l-224 552v-437q0 -40 20.5 -50.5t59.5 -10.5v-54h-241z" />
<glyph unicode="&#x25fc;" horiz-adv-x="1067" d="M0 0v1067h1067v-1067h-1067z" />
</font>
</defs>
</svg>
