<?xml version="1.0" standalone="no"?>
<!DOCTYPE svg PUBLIC "-//W3C//DTD SVG 1.1//EN" "http://www.w3.org/Graphics/SVG/1.1/DTD/svg11.dtd" >
<svg xmlns="http://www.w3.org/2000/svg" xmlns:xlink="http://www.w3.org/1999/xlink" version="1.1">
<metadata></metadata>
<defs>
<font id="noto_serifbold_italic" horiz-adv-x="1110" >
<font-face units-per-em="2048" ascent="1638" descent="-410" />
<missing-glyph horiz-adv-x="516" />
<glyph unicode="&#xfb01;" horiz-adv-x="1362" d="M-276 -461l24 116q16 -5 42.5 -10t48.5 -5q48 0 85.5 16.5t67 56t53.5 105.5t44 165l201 946h-180l19 94l191 42l20 74q27 99 75 172t119.5 122t168.5 73t222 24q97 0 170.5 -14.5t123 -40t74 -59.5t24.5 -74q0 -69 -81.5 -108.5t-238.5 -39.5q0 43 -5.5 82t-20.5 69.5 t-39.5 48.5t-61.5 18q-88 0 -146 -66.5t-85 -195.5l-17 -85h635l-137 -646q-11 -54 -19.5 -101t-8.5 -89q0 -44 18.5 -67t51.5 -23q31 0 57 11.5t60 33.5l48 -67q-23 -25 -53 -49.5t-68 -44t-83 -31t-100 -11.5q-114 0 -174 53.5t-60 149.5q0 43 7.5 102t24.5 135l104 508 h-333l-188 -887q-23 -106 -58.5 -185.5t-79.5 -137.5t-95.5 -95.5t-105.5 -60t-110.5 -31.5t-109.5 -9q-15 0 -32.5 1.5t-34 4t-31 5t-23.5 5.5z" />
<glyph unicode="&#xfb02;" horiz-adv-x="1410" d="M-276 -461l24 116q16 -5 42.5 -10t48.5 -5q48 0 85.5 16.5t67 56t53.5 105.5t44 165l201 946h-180l19 94l191 42l20 74q54 199 191 295t371 96q75 0 134.5 -16.5t108.5 -39.5l144 35h87l-235 -1090q-13 -54 -20.5 -101t-7.5 -89q0 -44 18 -67t51 -23q31 0 57 11.5 t60 33.5l48 -67q-24 -25 -54 -49.5t-67.5 -44t-83 -31t-99.5 -11.5q-114 0 -175.5 53.5t-61.5 149.5q0 86 32 237l167 787q-2 40 -10 77t-24 65t-40.5 45t-60.5 17q-88 0 -146 -66.5t-85 -195.5l-17 -85h226l-24 -136h-232l-188 -887q-23 -106 -58.5 -185.5t-79.5 -137.5 t-95.5 -95.5t-105.5 -60t-110.5 -31.5t-109.5 -9q-15 0 -32.5 1.5t-34 4t-31 5t-23.5 5.5z" />
<glyph unicode="&#xfb03;" horiz-adv-x="2010" d="M-276 -461l24 116q16 -5 42.5 -10t48.5 -5q48 0 85.5 16.5t67 56t53.5 105.5t44 165l201 946h-180l19 94l191 42l8 34q24 105 64.5 182t99 127t136 74.5t178.5 24.5q70 0 124 -11t91 -30t59.5 -43.5t30.5 -51.5q74 81 188 120t274 39q97 0 170.5 -14.5t122.5 -40 t73.5 -59.5t24.5 -74q0 -69 -81 -108.5t-238 -39.5q0 43 -6 82t-20.5 69.5t-39 48.5t-61.5 18q-88 0 -146 -66.5t-85 -195.5l-17 -85h635l-137 -646q-12 -54 -20 -101t-8 -89q0 -44 18.5 -67t51.5 -23q31 0 56.5 11.5t60.5 33.5l48 -67q-24 -25 -54 -49.5t-67.5 -44t-83 -31 t-100.5 -11.5q-113 0 -173 53.5t-60 149.5q0 43 7 102t24 135l105 508h-333l-189 -887q-23 -106 -58 -185.5t-79 -137.5t-95.5 -95.5t-105.5 -60t-110.5 -31.5t-109.5 -9q-15 0 -32.5 1.5t-34 4t-31 5t-23.5 5.5l24 116q16 -5 42.5 -10t48.5 -5q48 0 85.5 16.5t67 56 t53 105.5t44.5 165l201 946h-346l-188 -887q-23 -106 -58.5 -185.5t-79.5 -137.5t-95.5 -95.5t-105.5 -60t-110.5 -31.5t-109.5 -9q-15 0 -32.5 1.5t-34 4t-31 5t-23.5 5.5zM622 1065h345l20 74q8 29 18 56t22 52q-24 -7 -53 -10t-66 -3q0 26 -8 53.5t-22.5 50.5t-35 38 t-48.5 15q-31 0 -54 -14.5t-41.5 -46.5t-34 -84t-31.5 -128z" />
<glyph unicode="&#xfb04;" horiz-adv-x="2058" d="M-276 -461l24 116q16 -5 42.5 -10t48.5 -5q48 0 85.5 16.5t67 56t53.5 105.5t44 165l201 946h-180l19 94l191 42l8 34q24 105 64.5 182t99 127t136 74.5t178.5 24.5q70 0 123 -11t90 -30t59.5 -43t30.5 -50q144 157 440 157q76 0 135.5 -16.5t107.5 -39.5l145 35h87 l-236 -1090q-12 -54 -19.5 -101t-7.5 -89q0 -44 17.5 -67t50.5 -23q31 0 57.5 11.5t60.5 33.5l47 -67q-23 -25 -53 -49.5t-68 -44t-83 -31t-99 -11.5q-115 0 -176 53.5t-61 149.5q0 43 8 102t24 135l167 787q-2 40 -10 77t-24 65t-40.5 45t-60.5 17q-88 0 -146 -66.5 t-85 -195.5l-17 -85h226l-24 -136h-232l-189 -887q-23 -106 -58 -185.5t-79 -137.5t-95.5 -95.5t-105.5 -60t-110.5 -31.5t-109.5 -9q-15 0 -32.5 1.5t-34 4t-31 5t-23.5 5.5l24 116q16 -5 42.5 -10t48.5 -5q48 0 85.5 16.5t67 56t53 105.5t44.5 165l201 946h-346l-188 -887 q-23 -106 -58.5 -185.5t-79.5 -137.5t-95.5 -95.5t-105.5 -60t-110.5 -31.5t-109.5 -9q-15 0 -32.5 1.5t-34 4t-31 5t-23.5 5.5zM622 1065h345l20 74q8 29 18 56t22 52q-24 -7 -53 -10t-66 -3q0 26 -8 53.5t-22.5 50.5t-35 38t-48.5 15q-31 0 -54 -14.5t-41.5 -46.5t-34 -84 t-31.5 -128z" />
<glyph horiz-adv-x="0" />
<glyph horiz-adv-x="0" />
<glyph unicode="&#xd;" horiz-adv-x="1012" />
<glyph unicode=" "  horiz-adv-x="516" />
<glyph unicode="&#x09;" horiz-adv-x="516" />
<glyph unicode="&#xa0;" horiz-adv-x="516" />
<glyph unicode="!" horiz-adv-x="784" d="M153 127q0 41 12.5 74t34.5 56t54 36t72 13q34 0 63.5 -9t51.5 -26.5t34 -44.5t12 -63q0 -50 -15 -84t-40 -55t-56 -30.5t-62 -9.5q-72 0 -116.5 35t-44.5 108zM304 453l113 965h345l-343 -965h-115z" />
<glyph unicode="&#x22;" horiz-adv-x="1008" d="M302 872l47 546h311l-227 -546h-131zM755 872l28 546h309l-206 -546h-131z" />
<glyph unicode="#" d="M55 398l15 136h224l108 360h-231l16 139h256l109 385h143l-111 -385h207l113 385h141l-113 -385h190l-15 -139h-217l-105 -360h220l-14 -136h-248l-115 -398h-141l115 398h-206l-118 -398h-141l117 398h-199zM436 534h208l107 360h-209z" />
<glyph unicode="$" d="M49 341q0 95 58 137.5t164 42.5q0 -70 11.5 -123.5t33.5 -92t52 -64t68 -38.5l89 423q-71 37 -125.5 75.5t-91.5 83.5t-56 99t-19 123q0 82 32.5 147.5t91.5 111t142 71t185 28.5l31 144h111l-34 -148q158 -13 236.5 -66t78.5 -135q0 -41 -12 -73t-38 -54t-69 -34 t-106 -12q0 36 -7 73.5t-20.5 72t-35.5 62t-52 43.5l-83 -392l45 -23q137 -72 203.5 -157.5t66.5 -198.5q0 -93 -33.5 -164.5t-96 -122t-151 -77.5t-199.5 -29l-49 -231h-110l49 233q-181 14 -270.5 84t-89.5 181zM489 1073q0 -57 23.5 -95t71.5 -72l74 345 q-34 -5 -64.5 -17t-54 -33.5t-37 -53t-13.5 -74.5zM542 187q47 1 84 15t63.5 39.5t41 60.5t14.5 75q0 27 -5 51t-18.5 46.5t-37 45.5t-60.5 48z" />
<glyph unicode="%" horiz-adv-x="1779" d="M143 846q0 62 11.5 130t36 134t61.5 125.5t88 104.5t115.5 72t143.5 27q76 0 130.5 -22.5t89.5 -62.5t52 -94t17 -117q0 -58 -12.5 -123.5t-36.5 -130.5t-62 -125.5t-90 -106.5t-118 -73.5t-146 -27.5q-64 0 -116 19t-88.5 55.5t-56 90.5t-19.5 125zM356 0l985 1418h149 l-980 -1418h-154zM358 830q0 -78 19.5 -125t67.5 -47q39 0 71.5 26.5t58.5 69t46 97.5t33 111t20 109t7 93q0 80 -19 124.5t-68 46.5q-39 0 -71.5 -27t-59 -69.5t-46 -97t-32.5 -110.5t-20 -109t-7 -92zM967 271q0 62 11.5 130t36.5 133.5t62 125t87.5 104.5t115 71.5 t144.5 26.5q76 0 130 -22t89 -62t52 -94t17 -118q0 -57 -12 -122.5t-36.5 -131t-62 -125t-89.5 -105.5t-118 -73.5t-147 -27.5q-64 0 -115.5 18.5t-88 55t-56.5 91t-20 125.5zM1182 254q0 -78 19.5 -125.5t68.5 -47.5q39 0 71.5 27t58.5 69.5t46 97.5t33 111t19.5 109 t6.5 93q0 79 -18.5 124t-68.5 47q-39 0 -71.5 -27t-58.5 -69.5t-46 -97t-33 -110.5t-20 -109t-7 -92z" />
<glyph unicode="&#x26;" horiz-adv-x="1590" d="M68 354q0 99 35 169.5t94 121.5t137.5 88t166.5 69q-45 77 -69.5 150.5t-24.5 143.5q0 85 30.5 149.5t87 107t139.5 64.5t189 22q91 0 157.5 -20t110 -55t64.5 -82t21 -102q0 -68 -20.5 -120t-66.5 -95.5t-120 -83t-180 -83.5l244 -321q34 72 58.5 146.5t38.5 147.5 l16 75h397l-22 -105h-17q-34 0 -66 -4t-63 -18t-58 -40t-50 -71q-30 -58 -63.5 -123.5t-77.5 -133.5l125 -164q30 -41 75.5 -61t109.5 -20h14l-22 -106h-381l-99 137q-83 -70 -192 -113t-253 -43q-121 0 -208 28t-144.5 78.5t-85 118.5t-27.5 148zM360 370q0 -56 15.5 -103 t45.5 -81t73.5 -53.5t99.5 -19.5q93 0 169 35.5t137 95.5l-324 450q-59 -33 -100 -68t-67 -74.5t-37.5 -84.5t-11.5 -97zM675 1113q0 -58 19.5 -109t58.5 -110q61 27 104 53t70 56t40 66.5t13 82.5q0 79 -35.5 123t-106.5 44q-35 0 -65 -13.5t-52 -39.5t-34 -65t-12 -88z " />
<glyph unicode="'" horiz-adv-x="576" d="M302 872l28 546h309l-206 -546h-131z" />
<glyph unicode="(" horiz-adv-x="794" d="M83 370q0 123 23 248t68.5 243.5t114.5 226t161.5 196t208.5 153t257 97.5l-20 -126q-74 -40 -133 -93.5t-104.5 -113.5t-79.5 -125t-58.5 -129t-41.5 -124.5t-30 -111.5q-37 -149 -48.5 -256.5t-11.5 -178.5q0 -61 8.5 -122t29 -116.5t54 -103.5t82.5 -83l-27 -127 q-120 41 -206 107t-140.5 150t-80.5 182.5t-26 206.5z" />
<glyph unicode=")" horiz-adv-x="794" d="M-87 -276l19 127q75 40 133.5 93.5t104 113.5t79.5 125t59 129t42 124.5t29 111.5q37 150 48.5 256.5t11.5 179.5q0 61 -8.5 122t-29 116t-54 103.5t-81.5 82.5l26 128q120 -42 206 -108t141 -150t80.5 -182.5t25.5 -205.5q0 -123 -23 -248t-68.5 -243.5t-114.5 -226 t-161.5 -196t-208.5 -153.5t-256 -99z" />
<glyph unicode="*" horiz-adv-x="1228" d="M292 1126l320 17l-286 140l129 179l244 -272l4 330l219 -46l-137 -298l333 141l46 -212l-318 -13l286 -142l-129 -173l-248 264l2 -330l-217 46l131 304l-331 -145z" />
<glyph unicode="+" d="M161 639v142h353v355h144v-355h355v-142h-355v-355h-144v355h-353z" />
<glyph unicode="," horiz-adv-x="604" d="M-32 -300l22 105q205 49 205 165q0 20 -8.5 35t-21 27.5t-26.5 24t-26.5 26.5t-21 35t-8.5 49q0 32 12.5 57t32.5 43t47.5 27.5t57.5 9.5q36 0 67.5 -12.5t54.5 -35t36.5 -56t13.5 -77.5q0 -75 -27.5 -143t-82 -123.5t-136.5 -95.5t-191 -61z" />
<glyph unicode="-" horiz-adv-x="615" d="M19 437l47 209h516l-46 -209h-517z" />
<glyph unicode="." horiz-adv-x="604" d="M68 127q0 41 12 74t35 56t54.5 36t71.5 13q34 0 63.5 -9t51 -26.5t34 -44.5t12.5 -63q0 -50 -15 -84t-40 -55t-56 -30.5t-62 -9.5q-72 0 -116.5 35t-44.5 108z" />
<glyph unicode="/" horiz-adv-x="572" d="M-205 -241l847 1750h154l-845 -1750h-156z" />
<glyph unicode="0" d="M74 459q0 103 17 215.5t51.5 221.5t86.5 208t123.5 173.5t161.5 118.5t201 44q85 0 159 -26.5t128.5 -82t86 -141.5t31.5 -204q0 -100 -16.5 -214t-50 -226t-84.5 -215t-121.5 -181.5t-160.5 -125t-200 -46.5q-92 0 -168.5 31t-130.5 92t-84 150.5t-30 207.5zM345 373 q0 -132 42 -196t112 -64q58 0 107.5 46.5t89 123t70 174.5t51 202t31 206t10.5 186q0 130 -40 193.5t-113 63.5q-56 0 -104.5 -46t-88.5 -121.5t-71 -173.5t-52 -201.5t-32.5 -205.5t-11.5 -187z" />
<glyph unicode="1" d="M80 0l21 106h117q71 0 114.5 28.5t58.5 100.5l153 722q13 61 24.5 110t21.5 86q10 43 20 77h-8q-46 -49 -85.5 -87t-73.5 -65t-65.5 -41t-63.5 -14q-42 0 -69 38.5t-27 108.5q34 9 70 20.5t76.5 29t88 42t103.5 61.5l161 103h223l-252 -1185q-3 -13 -8 -35.5t-5 -34.5 q0 -22 11 -35t31.5 -19.5t47.5 -8.5t59 -2h98l-22 -106h-820z" />
<glyph unicode="2" d="M-28 0l42 205l463 391q101 85 166 156t103 133.5t52.5 121t14.5 121.5q0 41 -9.5 75.5t-27 59t-44 38.5t-59.5 14q-49 0 -87.5 -26t-65.5 -71t-43 -106t-20 -132q-50 0 -91.5 10t-72 31t-47.5 53.5t-17 75.5q0 60 30.5 112t89 91.5t145.5 62.5t200 23q101 0 180 -19.5 t132 -55t81 -87t28 -115.5q0 -66 -27.5 -129.5t-81 -130.5t-134 -140t-186.5 -160l-477 -384h462q48 0 81.5 14t56.5 37t39 52t30 60l14 36h117l-97 -417h-940z" />
<glyph unicode="3" d="M-2 220q0 79 57.5 124t160.5 45q0 -58 13.5 -107t42 -84.5t71 -56t100.5 -20.5q50 0 96.5 19.5t82.5 59t57.5 97.5t21.5 136q0 114 -73.5 176t-206.5 62h-85l20 123h63q83 0 154 25.5t123 72t81 111.5t29 144q0 36 -8 67.5t-24.5 54.5t-42.5 35.5t-62 12.5 q-54 0 -92.5 -24t-64.5 -65t-42.5 -94.5t-26.5 -112.5q-47 0 -88.5 6.5t-71.5 21t-47.5 39t-17.5 60.5q0 62 38.5 114.5t104.5 92t154.5 62t189.5 22.5q91 0 166.5 -19t129 -55.5t83 -89.5t29.5 -121q0 -70 -25 -136.5t-75 -122.5t-125 -97t-175 -59q69 -8 124 -30t93.5 -59 t59.5 -88t21 -115q0 -88 -25.5 -157t-69 -120.5t-101.5 -87.5t-124 -58.5t-136.5 -32.5t-137.5 -10q-116 0 -196 21.5t-129.5 56t-71.5 77t-22 84.5z" />
<glyph unicode="4" d="M0 370l28 123l761 925h278l-197 -917h207l-28 -131h-207l-25 -124q-3 -11 -5.5 -31.5t-2.5 -30.5q0 -25 9 -40.5t26 -23.5t41.5 -11t54.5 -3h36l-22 -106h-698l20 106h58q29 0 59 3.5t56 17.5t46.5 42.5t31.5 78.5l25 122h-552zM182 501h398l74 347q8 40 18.5 87 t22.5 97.5t25.5 100.5t28.5 97q-21 -34 -49.5 -74.5t-58 -82t-57.5 -78.5t-50 -63z" />
<glyph unicode="5" d="M19 212q0 33 11.5 62t34 50.5t57.5 34.5t83 13q1 -43 10 -87.5t33 -81.5t65.5 -60.5t107.5 -23.5q65 0 118 22.5t90 67t57.5 112t20.5 156.5q0 64 -18.5 111.5t-50.5 79.5t-76 47.5t-95 15.5q-36 0 -65.5 -3.5t-53.5 -10t-45.5 -14.5t-40.5 -15l-84 41l203 689h751 l-57 -361h-121q1 26 3 54.5t2 40.5q0 23 -20 36.5t-77 13.5h-399l-118 -372q37 11 85.5 21.5t121.5 10.5q103 0 186.5 -24t142 -71t90.5 -116.5t32 -159.5q0 -109 -41.5 -202.5t-120 -162t-191 -107t-254.5 -38.5q-104 0 -176 18t-116.5 50t-64.5 74t-20 89z" />
<glyph unicode="6" d="M101 461q0 124 22.5 244t67 229t108.5 201t146 160t181.5 106t213.5 38q82 0 143.5 -16.5t103 -45.5t62.5 -65.5t21 -77.5q0 -80 -65 -124.5t-183 -44.5q0 49 -3.5 95t-16 81.5t-35.5 57.5t-63 22q-128 0 -224 -136t-157 -414q22 18 51 35.5t65.5 31.5t80 23t93.5 9 q86 0 149.5 -28t105 -76t61.5 -112t20 -135q0 -105 -32.5 -202t-99 -171.5t-167 -119.5t-236.5 -45q-85 0 -160.5 29.5t-131.5 89.5t-88.5 150t-32.5 211zM373 398q0 -151 46 -219.5t123 -68.5q51 0 92.5 30t71.5 82.5t46.5 124.5t16.5 155q0 121 -37 184t-110 63 q-32 0 -63.5 -9.5t-60.5 -24t-54.5 -33t-45.5 -36.5q-25 -145 -25 -248z" />
<glyph unicode="7" d="M195 1001l81 417h948l-22 -117l-827 -1301h-168l784 1202h-510q-54 0 -89 -26t-49 -75l-27 -100h-121z" />
<glyph unicode="8" d="M26 322q0 83 30 143.5t82.5 106t124 80.5t154.5 67q-43 32 -77.5 71t-60 84t-39.5 94.5t-14 102.5q0 75 27.5 141.5t88.5 116.5t156.5 80t230.5 30q95 0 168.5 -22t124.5 -61t77.5 -92t26.5 -116q0 -75 -24 -133t-68.5 -103.5t-106 -82t-135.5 -69.5q52 -32 96 -69.5 t76 -81.5t50.5 -95.5t18.5 -111.5q0 -109 -39.5 -188.5t-112 -131t-172 -76.5t-218.5 -25q-105 0 -190.5 25t-146.5 70.5t-94.5 108t-33.5 137.5zM294 314q0 -103 56 -161t156 -58q53 0 99.5 15.5t81.5 47t55 78t20 109.5q0 49 -14.5 89.5t-42.5 77t-70 69t-99 63.5 q-113 -46 -177.5 -127t-64.5 -203zM501 1081q0 -156 168 -258q58 30 97.5 64.5t64 73t35 82t10.5 91.5q0 41 -9.5 75.5t-28.5 59.5t-48.5 39.5t-70.5 14.5q-47 0 -86.5 -17t-69 -48.5t-46 -76t-16.5 -100.5z" />
<glyph unicode="9" d="M55 184q0 67 41.5 102.5t113.5 35.5q1 -38 11 -76.5t30.5 -69.5t52 -50.5t75.5 -19.5q73 0 131.5 37.5t107.5 110.5t90 180t79 247q-26 -26 -57 -50.5t-67.5 -43.5t-80.5 -30t-95 -11q-80 0 -142 25t-104 68.5t-64 104t-22 132.5q0 124 45 228t122 178t178 115.5 t215 41.5q89 0 161.5 -26.5t123.5 -76.5t78 -122.5t27 -166.5q0 -24 -2 -58.5t-6.5 -75.5t-11.5 -86t-18 -90q-21 -96 -53.5 -189t-78 -177t-103 -155.5t-129.5 -123.5t-157.5 -81.5t-187.5 -29.5q-80 0 -137 16.5t-94 44t-54.5 64.5t-17.5 78zM441 886q0 -97 40 -146.5 t107 -49.5q39 1 72.5 14.5t62 35t51.5 49t41 55.5q6 24 11 53t9 58.5t6.5 56.5t2.5 47q0 65 -10.5 112t-30.5 76.5t-47 44t-59 14.5q-56 0 -103 -37t-81 -96.5t-53 -135t-19 -151.5z" />
<glyph unicode=":" horiz-adv-x="711" d="M87 127q0 41 12.5 74t35 56t54 36t71.5 13q34 0 63.5 -9t51.5 -26.5t34 -44.5t12 -63q0 -50 -15 -84t-40 -55t-56 -30.5t-62 -9.5q-71 0 -116 35t-45 108zM262 896q0 40 12 73t35 56.5t55 36.5t72 13q33 0 63 -9t51 -26.5t33.5 -44.5t12.5 -63q0 -50 -15 -84.5t-40 -55.5 t-56 -30t-62 -9q-72 0 -116.5 35t-44.5 108z" />
<glyph unicode=";" horiz-adv-x="711" d="M-22 -300l22 105q205 49 205 165q0 20 -8.5 35t-21 27.5t-26.5 24t-26.5 26.5t-21 35t-8.5 49q0 32 12 57t32.5 43t47.5 27.5t57 9.5q36 0 67.5 -12.5t55 -35t37 -56t13.5 -77.5q0 -75 -27.5 -143t-82.5 -123.5t-137 -95.5t-190 -61zM262 896q0 40 12 73t35 56.5t55 36.5 t72 13q33 0 63 -9t51 -26.5t33.5 -44.5t12.5 -63q0 -50 -15 -84.5t-40 -55.5t-56 -30t-62 -9q-72 0 -116.5 35t-44.5 108z" />
<glyph unicode="&#x3c;" d="M161 669v82l852 464v-156l-640 -350l640 -345v-157z" />
<glyph unicode="=" d="M161 447v139h860v-139h-860zM161 832v139h860v-139h-860z" />
<glyph unicode="&#x3e;" d="M161 207v157l639 345l-639 350v156l852 -464v-82z" />
<glyph unicode="?" horiz-adv-x="1063" d="M201 1180q0 54 32 101t91.5 82t144.5 55.5t191 20.5q99 0 178.5 -19.5t134.5 -60.5t85 -103t30 -147q0 -87 -37.5 -158t-103.5 -130t-157 -106.5t-196 -84.5l-71 -177h-127l-5 246q88 32 159.5 70.5t122.5 87.5t78.5 111.5t27.5 144.5q0 49 -11 87t-30 64t-46 39.5 t-57 13.5q-46 0 -79.5 -24t-56 -64.5t-35 -93t-19.5 -108.5q-244 0 -244 153zM250 127q0 41 12.5 74t35 56t54 36t71.5 13q34 0 63.5 -9t51.5 -26.5t34 -44.5t12 -63q0 -50 -15 -84t-40 -55t-56 -30.5t-62 -9.5q-71 0 -116 35t-45 108z" />
<glyph unicode="@" horiz-adv-x="1829" d="M85 485q0 133 32.5 254t92.5 224.5t145 187.5t191 143.5t229.5 91.5t261.5 32q172 0 303 -49.5t219 -135t132.5 -202.5t44.5 -252q0 -149 -35.5 -265t-94 -196t-131.5 -122.5t-148 -42.5q-88 0 -149.5 43.5t-94.5 143.5h-12q-20 -39 -46.5 -73t-59.5 -59.5t-74.5 -40 t-94.5 -14.5q-63 0 -119 20.5t-99 62t-68 105.5t-25 152q0 53 12.5 115t40 123.5t70 119.5t101.5 102t136 71t174 27q69 0 118 -17.5t80 -42.5l84 42h48l-83 -497q-3 -11 -5.5 -29.5t-4.5 -38t-3.5 -37.5t-1.5 -29q0 -41 9 -67.5t22.5 -41.5t31 -20t33.5 -5q39 0 80 33 t74 96.5t53.5 157.5t20.5 216q0 136 -41 238.5t-115 170.5t-175 102.5t-221 34.5q-94 0 -185.5 -26t-174.5 -76.5t-153 -123.5t-121 -167t-80 -207.5t-29 -244.5q0 -175 52.5 -299.5t142.5 -203t209.5 -114t253.5 -35.5q80 0 157 14.5t146 37.5t128 53t105 61l48 -75 q-52 -40 -119 -75t-145 -61t-166 -41.5t-182 -15.5q-114 0 -218.5 20.5t-196 63.5t-167.5 106.5t-129.5 149t-83.5 192t-30 235.5zM729 472q0 -99 35 -151.5t93 -52.5q41 0 71.5 20t52 53.5t35 75.5t21.5 85l79 406q-5 14 -16.5 24t-26 17t-31 10.5t-31.5 3.5q-51 0 -91 -25 t-71 -66.5t-54 -94t-37.5 -107t-21.5 -106.5t-7 -92z" />
<glyph unicode="A" horiz-adv-x="1495" d="M-97 0l21 106h42q27 0 48 6t40.5 23.5t40 47.5t48.5 77l674 1158h271l167 -1170q5 -31 13.5 -57t22 -45t34 -29.5t51.5 -10.5h36l-21 -106h-656l22 106h45q64 0 102 20t38 63q0 17 -1 33t-3 30l-30 215h-483l-97 -179q-20 -36 -29 -63t-9 -48q0 -37 27 -54t85 -17h39 l-22 -106h-516zM493 588h401l-36 334q-4 43 -8.5 81.5t-8 74.5t-6 69.5t-3.5 69.5q-14 -36 -28.5 -66.5t-31 -62t-36.5 -67t-46 -81.5z" />
<glyph unicode="B" horiz-adv-x="1334" d="M-46 0l22 106h26q31 0 60.5 3.5t54 16.5t42.5 36t25 62l203 956q5 20 9 39t4 26q0 22 -11 35.5t-30 21t-45.5 9.5t-57.5 2h-25l21 105h616q231 0 348 -75t117 -223q0 -81 -25 -143t-68.5 -107.5t-102.5 -74.5t-128 -44l-2 -8q53 -10 97.5 -33t76.5 -59.5t50 -86 t18 -111.5q0 -109 -36.5 -193t-108.5 -142t-179 -88t-248 -30h-723zM474 121h138q84 0 143 22.5t96 66t54 108t17 149.5q0 108 -49.5 161t-153.5 53h-125zM620 804h111q141 0 203.5 73.5t62.5 208.5q0 106 -47.5 158.5t-138.5 52.5h-88z" />
<glyph unicode="C" horiz-adv-x="1326" d="M125 514q0 119 28 234.5t81.5 219.5t130.5 191t174.5 151t214 100t249.5 36q99 0 173 -17t123 -47.5t73.5 -74.5t24.5 -97q0 -44 -21.5 -77t-59 -56t-88.5 -34.5t-112 -11.5q0 42 -5.5 92.5t-23.5 94t-51 72.5t-88 29q-79 0 -145.5 -36t-121 -97.5t-97 -143t-71 -172 t-43.5 -185t-15 -183.5q0 -169 86.5 -262t256.5 -93q69 0 124.5 15.5t99 41.5t76.5 58t58 66q12 -9 23 -27.5t11 -40.5q0 -50 -30 -99.5t-88.5 -90t-145 -65t-198.5 -24.5q-143 0 -255 35t-189 103.5t-118 168t-41 226.5z" />
<glyph unicode="D" horiz-adv-x="1525" d="M-48 0l22 106h28q31 0 60.5 3.5t54 16.5t42.5 36t25 62l207 976q4 11 6.5 24.5t2.5 20.5q0 22 -11 35.5t-30 21t-45.5 9.5t-57.5 2h-25l21 105h636q142 0 254 -35t189 -103t118 -169t41 -233q0 -118 -25 -229.5t-73 -209t-118.5 -178.5t-163.5 -139t-208 -90t-250 -32 h-700zM477 123h89q140 0 249.5 57t185.5 159t115.5 244t39.5 311q0 104 -24 180t-69 125.5t-109.5 73.5t-144.5 24h-83z" />
<glyph unicode="E" horiz-adv-x="1257" d="M-46 0l22 106h26q31 0 60.5 3.5t54 16.5t42.5 36t25 62l207 976q4 11 6.5 24.5t2.5 20.5q0 22 -11 35.5t-30 21t-45.5 9.5t-57.5 2h-25l21 105h1079l-70 -369h-141q1 6 2.5 23.5t3 36.5t3 35t1.5 20q0 27 -7.5 51.5t-24 43t-43.5 28.5t-66 10h-263l-106 -497h451 l-26 -119h-451l-120 -560h315q46 0 83 13t64 35.5t46 52t31 62.5l32 86h141l-92 -370h-1140z" />
<glyph unicode="F" horiz-adv-x="1233" d="M-46 0l22 106h26q31 0 60.5 3.5t54 16.5t42.5 36t25 62l203 954q13 51 13 67q0 22 -11 35.5t-30 21t-45.5 9.5t-57.5 2h-25l21 105h1092l-68 -369h-142q2 16 4 34.5t3.5 35.5t2.5 29t1 16q0 28 -8 52.5t-25.5 42.5t-46 28t-70.5 10h-269l-116 -542h471l-24 -118h-471 l-87 -402q-5 -23 -7.5 -39t-2.5 -23q0 -22 10.5 -35t30 -20t46 -9.5t57.5 -2.5h27l-23 -106h-683z" />
<glyph unicode="G" horiz-adv-x="1581" d="M125 512q0 128 30 247t86.5 221.5t138 187t183 145t223.5 93.5t259 33q114 0 198.5 -20.5t140.5 -53.5t84 -76t28 -87q0 -39 -23 -72.5t-61.5 -58t-91.5 -39t-112 -14.5q0 62 -13.5 115.5t-41 93.5t-69.5 62t-100 22q-76 0 -145 -31t-128 -86t-107 -131.5t-82 -168 t-52.5 -194.5t-18.5 -211q0 -84 16.5 -152t53 -117.5t93 -77t137.5 -27.5q45 0 92.5 8t83.5 20l66 294q12 53 12 67q0 22 -10.5 35.5t-29.5 20.5t-45.5 9.5t-57.5 2.5h-26l22 105h662l-22 -105h-2q-33 0 -63.5 -4t-55.5 -17t-43.5 -37t-25.5 -63l-76 -379 q-60 -24 -118 -40.5t-117.5 -28.5t-122.5 -17t-133 -5q-153 0 -268 36.5t-192.5 105.5t-116.5 167.5t-39 221.5z" />
<glyph unicode="H" horiz-adv-x="1626" d="M-46 0l22 106h26q31 0 60.5 3.5t54 16.5t42.5 36t25 62l203 954q13 51 13 67q0 22 -11 35.5t-30 21t-45.5 9.5t-57.5 2h-25l21 105h686l-22 -105h-26q-33 0 -63.5 -4t-55.5 -17t-43.5 -37t-26.5 -63l-81 -392h519l83 386q5 21 7.5 36.5t2.5 22.5q0 22 -11 35.5t-30.5 21 t-46.5 9.5t-58 2h-25l22 105h685l-22 -105h-25q-32 0 -62 -4t-55.5 -17t-43.5 -37t-26 -63l-205 -974q-3 -10 -5.5 -24t-2.5 -21q0 -22 10.5 -35t29.5 -20t45.5 -9.5t57.5 -2.5h26l-22 -106h-685l21 106h26q32 0 62 3.5t55.5 17t43.5 36.5t27 63l95 453h-519l-97 -461 q-3 -10 -5.5 -24t-2.5 -21q0 -22 10.5 -35t30 -20t46 -9.5t57.5 -2.5h27l-23 -106h-683z" />
<glyph unicode="I" horiz-adv-x="796" d="M-46 0l22 106h26q31 0 60.5 3.5t54 16.5t42.5 36t25 62l207 976q4 11 6.5 24.5t2.5 20.5q0 22 -11 35.5t-30 21t-45.5 9.5t-57.5 2h-25l21 105h686l-22 -105h-26q-33 0 -63.5 -4t-55.5 -17t-43.5 -37t-26.5 -63l-204 -974q-2 -10 -5 -24t-3 -21q0 -22 10.5 -35t30 -20 t46 -9.5t57.5 -2.5h27l-23 -106h-683z" />
<glyph unicode="J" horiz-adv-x="796" d="M-314 -455l28 110q12 -5 28 -8.5t33.5 -6t35 -3.5t32.5 -1q51 0 95.5 18.5t80.5 61t65 110.5t51 168l256 1206q4 11 6.5 24.5t2.5 20.5q0 22 -11 35.5t-30 21t-45.5 9.5t-57.5 2h-25l21 105h686l-22 -105h-26q-33 0 -63.5 -4t-55.5 -17t-43.5 -37t-26.5 -63l-252 -1198 q-25 -121 -84 -210t-139.5 -147t-177.5 -86t-199 -28q-54 0 -90 5.5t-73 16.5z" />
<glyph unicode="K" horiz-adv-x="1472" d="M-46 0l22 106h26q31 0 60.5 3.5t54 16.5t42.5 36t25 62l203 954q13 51 13 67q0 22 -11 35.5t-30 21t-45.5 9.5t-57.5 2h-25l21 105h686l-22 -105h-26q-33 0 -63.5 -4t-55.5 -17t-43.5 -37t-26.5 -63l-99 -471l403 356q41 36 66.5 64.5t40.5 51t21 40t6 31.5 q0 25 -19.5 38t-68.5 13l22 103h536l-22 -103q-40 0 -77 -9.5t-74.5 -30t-79 -51.5t-88.5 -74l-322 -284l232 -559q24 -55 44 -93.5t40.5 -62.5t45.5 -34.5t59 -10.5h6l-20 -106h-104q-99 0 -164.5 12t-110.5 43t-76.5 84t-63.5 136l-146 379l-118 -84l-73 -352 q-2 -10 -5 -24t-3 -21q0 -22 10.5 -35t30 -20t46 -9.5t57.5 -2.5h27l-23 -106h-683z" />
<glyph unicode="L" horiz-adv-x="1298" d="M-46 0l22 106h26q31 0 60.5 3.5t54 16.5t42.5 36t25 62l203 954q13 51 13 67q0 22 -11 35.5t-30 21t-45.5 9.5t-57.5 2h-25l21 105h686l-22 -105h-26q-33 0 -63.5 -4t-55.5 -17t-43.5 -37t-26.5 -63l-224 -1071h332q54 0 94 13.5t69.5 40.5t52 67.5t40.5 95.5l36 105h127 l-110 -443h-1164z" />
<glyph unicode="M" horiz-adv-x="1891" d="M-46 0l22 106h26q31 0 60.5 3.5t54 16.5t42.5 36t25 62l203 954q13 51 13 67q0 22 -11 35.5t-30 21t-45.5 9.5t-57.5 2h-25l21 105h554l134 -965l520 965h574l-21 -105h-26q-32 0 -62.5 -4t-55.5 -17t-43 -37t-27 -63l-203 -974q-4 -10 -6.5 -24t-2.5 -21q0 -22 10.5 -35 t29.5 -20t45.5 -9.5t57.5 -2.5h26l-22 -106h-677l22 106h26q32 0 62 3.5t54.5 17t43 36.5t26.5 63l211 996l-658 -1222h-137l-161 1222l-210 -987q-5 -23 -7.5 -39t-2.5 -23q0 -22 10.5 -35t30 -20t46 -9.5t57.5 -2.5h7l-22 -106h-501z" />
<glyph unicode="N" horiz-adv-x="1565" d="M-46 0l22 106h26q31 0 60.5 3.5t54 16.5t42.5 36t25 62l203 954q13 51 13 67q0 22 -11 35.5t-30 21t-45.5 9.5t-57.5 2h-25l21 105h442l484 -1018l166 784q11 46 11 61q0 22 -11 35.5t-30.5 21t-46 9.5t-57.5 2h-6l22 105h501l-23 -105h-25q-31 0 -60.5 -4t-54 -17 t-42.5 -36t-26 -62l-252 -1194h-183l-538 1124l-187 -889q-5 -23 -7.5 -39t-2.5 -23q0 -22 10.5 -35t30 -20t46 -9.5t57.5 -2.5h7l-22 -106h-501z" />
<glyph unicode="O" horiz-adv-x="1573" d="M125 529q0 95 24 199.5t71.5 206t118 193t164.5 161t211 110.5t257 41q110 0 209 -32t175 -98.5t120.5 -169.5t44.5 -246q0 -91 -23 -194.5t-69 -205.5t-115 -195t-163 -164.5t-211.5 -114t-259.5 -42.5q-117 0 -218.5 35t-176 105t-117 173t-42.5 238zM449 481 q0 -98 21 -168.5t57.5 -115.5t86 -66t105.5 -21q82 0 149.5 39.5t121 106t92.5 152.5t65 178t38.5 183.5t12.5 170.5q0 97 -20.5 167t-56 115.5t-85 67t-107.5 21.5q-82 0 -149.5 -39.5t-121 -106t-93 -152.5t-65.5 -178.5t-38.5 -184t-12.5 -169.5z" />
<glyph unicode="P" horiz-adv-x="1317" d="M-46 0l22 106h26q31 0 60.5 3.5t54 16.5t42.5 36t25 62l203 954q13 51 13 67q0 22 -11 35.5t-30 21t-45.5 9.5t-57.5 2h-25l21 105h569q116 0 210 -24.5t159.5 -73.5t101 -121.5t35.5 -167.5q0 -50 -9.5 -106.5t-34.5 -110.5t-68.5 -103t-111 -86.5t-162 -60 t-222.5 -22.5h-151l-71 -324q-3 -10 -5.5 -24t-2.5 -21q0 -22 10.5 -35t30 -20t46 -9.5t57.5 -2.5h66l-22 -106h-723zM592 658h83q90 0 152.5 27t101.5 76t56.5 116.5t17.5 147.5q0 75 -17 127.5t-47 85.5t-72.5 48t-91.5 15h-44z" />
<glyph unicode="Q" horiz-adv-x="1563" d="M123 529q0 95 24 199.5t71.5 206t118 193t164.5 161t211 110.5t257 41q110 0 209 -32t175 -98.5t120.5 -169.5t44.5 -246q0 -81 -18 -171.5t-53.5 -181t-89.5 -176.5t-126.5 -158t-163.5 -126.5t-201 -80.5q3 -110 20.5 -180t47.5 -110.5t70.5 -56t89.5 -15.5h32 l-25 -115h-144q-89 0 -165.5 26.5t-133.5 83.5t-90 146t-35 215q-91 19 -166 62t-129.5 110.5t-84.5 158t-30 204.5zM447 481q0 -98 21 -168.5t57.5 -115.5t86 -66t105.5 -21q82 0 149.5 39.5t121 106t92.5 152.5t65 178t38.5 183.5t12.5 170.5q0 97 -20.5 167t-56 115.5 t-84.5 67t-108 21.5q-82 0 -149.5 -39.5t-121 -106t-93 -152.5t-65.5 -178.5t-38.5 -184t-12.5 -169.5zM679 -22z" />
<glyph unicode="R" horiz-adv-x="1404" d="M-46 0l22 106h26q31 0 60.5 3.5t54 16.5t42.5 36t25 62l203 954q13 51 13 67q0 22 -11 35.5t-30 21t-45.5 9.5t-57.5 2h-25l21 105h638q238 0 355.5 -82.5t117.5 -249.5q0 -100 -32.5 -171t-83.5 -119t-114 -76t-124 -43l138 -370q20 -56 39.5 -94.5t41 -62.5t47.5 -34 t60 -10h7l-21 -106h-20q-104 0 -180 8.5t-130.5 33.5t-90.5 69t-58 115l-125 390h-137l-78 -364q-7 -36 -10 -54t-3 -25q0 -22 10.5 -35t30 -20t46 -9.5t57.5 -2.5h66l-22 -106h-723zM602 731h124q63 0 117.5 18.5t95 58t63.5 102t23 151.5q0 67 -11.5 112.5t-35.5 74.5 t-61 41t-87 12h-101z" />
<glyph unicode="S" horiz-adv-x="1164" d="M28 271q0 46 19 81t53.5 58.5t81.5 35t104 11.5q0 -91 19.5 -158t54.5 -111t83.5 -65.5t106.5 -21.5q56 0 100 16t74.5 43.5t46.5 65t16 80.5q0 41 -10.5 76t-37.5 68t-74.5 67t-122.5 75q-77 42 -136 87.5t-98 97.5t-59 114.5t-20 141.5q0 89 36 164t103 128.5t162 83.5 t213 30q111 0 193 -17.5t137 -48t82 -71t27 -87.5q0 -80 -61 -126t-199 -46q0 44 -9 92.5t-31.5 89t-60 66.5t-95.5 26q-40 0 -79.5 -12.5t-70.5 -37.5t-50.5 -63.5t-19.5 -90.5q0 -53 16.5 -90t49.5 -68.5t82.5 -61t116.5 -65.5q151 -81 222.5 -179.5t71.5 -225.5 q0 -106 -38.5 -188.5t-109.5 -138.5t-172 -85.5t-226 -29.5q-123 0 -215.5 22t-153.5 61t-91.5 92t-30.5 115z" />
<glyph unicode="T" horiz-adv-x="1296" d="M135 1033l91 385h1236l-69 -385h-134q1 7 3.5 30.5t5.5 51t5.5 50t2.5 27.5q0 53 -32 79t-108 26h-158l-229 -1079q-2 -10 -5 -24t-3 -21q0 -22 10.5 -35t30 -20t46.5 -9.5t58 -2.5h26l-22 -106h-683l22 106h25q31 0 60.5 3.5t54 16.5t42.5 36t26 62l225 1073h-160 q-46 0 -78.5 -11.5t-56.5 -34.5t-40.5 -56t-30.5 -77l-28 -85h-133z" />
<glyph unicode="U" horiz-adv-x="1484" d="M197 324q0 16 2 39t5 48t6.5 48.5t7.5 41.5l146 677q11 53 11 67q0 22 -10.5 35.5t-29.5 21t-45 9.5t-57 2h-26l22 105h687l-22 -105h-26q-33 0 -63.5 -4t-55.5 -16.5t-43 -35.5t-27 -61l-150 -699q-4 -18 -8.5 -39.5t-8 -44t-6 -46t-2.5 -43.5q0 -100 62.5 -151.5 t182.5 -51.5q90 0 152 26.5t104 72.5t67 109.5t41 139.5l153 717q3 17 5.5 34.5t2.5 24.5q0 22 -11 35.5t-30 21t-45.5 9.5t-57.5 2h-25l21 105h523l-22 -105h-26q-32 0 -62 -4t-55 -17t-43 -37t-27 -63l-159 -755q-23 -111 -69 -196.5t-117.5 -143t-168.5 -87t-223 -29.5 q-116 0 -205.5 22.5t-150.5 66.5t-92.5 108t-31.5 146z" />
<glyph unicode="V" horiz-adv-x="1387" d="M169 1313l22 105h655l-22 -105h-45q-64 0 -102 -16t-38 -63q0 -17 1.5 -35.5t3.5 -32.5l63 -524q4 -35 7.5 -81t5 -93t2.5 -89t1 -70q11 28 24 58t25.5 58t23 52t19.5 39l357 642q19 34 27.5 59.5t8.5 46.5q0 29 -29.5 39t-86.5 10h-45l20 105h518l-21 -105h-48 q-29 0 -50 -4.5t-39.5 -18.5t-36.5 -40.5t-43 -69.5l-661 -1180h-199l-167 1217q-5 30 -16 49t-27 30t-37 14t-45 3h-26z" />
<glyph unicode="W" horiz-adv-x="2119" d="M171 1313l22 105h649l-21 -105h-46q-64 0 -102 -16t-38 -63q0 -17 1 -38t3 -49l38 -495q3 -26 6 -69.5t5.5 -91t4 -93.5t1.5 -78q20 58 47 117t57 117l444 851h145l113 -759q13 -94 23.5 -180t10.5 -150q11 33 27.5 76.5t36.5 92.5t42.5 99.5t44.5 99.5l220 474 q14 28 22 56.5t8 49.5q0 29 -26 39t-83 10h-46l19 105h519l-22 -105h-48q-29 0 -51 -5.5t-41 -21.5t-38 -45t-40 -73l-556 -1168h-227l-137 948l-483 -948h-246l-107 1217q-3 30 -13.5 49t-27.5 30t-38.5 14t-45.5 3h-26z" />
<glyph unicode="X" horiz-adv-x="1454" d="M-83 0l22 106h19q30 0 56 7t52.5 23.5t57 44t69.5 67.5l438 453l-222 511q-14 33 -29 53t-33.5 31t-41.5 14t-51 3h-17l21 105h658l-22 -105h-46q-50 0 -71.5 -14.5t-21.5 -41.5q0 -19 9 -48t27 -70l105 -247l234 251q27 28 48.5 61t21.5 60q0 25 -24.5 37t-70.5 12h-6 l21 105h463l-21 -105h-19q-29 0 -53 -6.5t-50 -23t-54.5 -44t-66.5 -67.5l-373 -393l244 -569q27 -61 63.5 -82.5t73.5 -21.5h26l-22 -106h-656l22 106h31q59 0 85.5 18t26.5 51q0 28 -9.5 62.5t-28.5 74.5l-121 274l-277 -288q-36 -37 -58 -71t-22 -62q0 -15 5 -25.5 t17 -18.5t33 -11.5t54 -3.5h6l-22 -106h-500z" />
<glyph unicode="Y" horiz-adv-x="1376" d="M175 1313l22 105h645l-21 -105h-90q-45 0 -64 -15.5t-19 -42.5q0 -17 6 -50t17 -79l72 -280q7 -29 14.5 -62t14 -66t11 -64.5t6.5 -55.5q18 39 56 100.5t89 133.5l196 281q24 34 42 73.5t18 72.5q0 27 -27.5 40.5t-93.5 13.5h-42l24 105h520l-22 -105h-37q-22 0 -41 -5.5 t-38.5 -20.5t-41 -40t-49.5 -63l-491 -683l-60 -283q-2 -10 -5 -24t-3 -21q0 -22 10.5 -35t30 -20t46 -9.5t57.5 -2.5h49l-22 -106h-734l22 106h54q31 0 60 4t53.5 17.5t42 36.5t25.5 62l57 276l-214 706q-9 29 -18 49t-21.5 32.5t-31.5 18t-48 5.5h-26z" />
<glyph unicode="Z" horiz-adv-x="1323" d="M-4 0l18 99l979 1198h-345q-90 0 -145 -41t-80 -132l-34 -115h-143l97 409h1058l-21 -101l-980 -1196h409q45 0 84.5 12t72.5 37t59 66t44 102l21 71h144l-95 -409h-1143z" />
<glyph unicode="[" horiz-adv-x="822" d="M42 -254l375 1763h550l-21 -104h-86q-33 0 -63.5 -5t-56.5 -20t-45.5 -43t-29.5 -76l-267 -1267q-3 -15 -5 -27t-2 -22q0 -31 10.5 -49.5t29.5 -28.5t44.5 -13t53.5 -3h85l-22 -105h-550z" />
<glyph unicode="\" horiz-adv-x="572" d="M214 1509h140l107 -1750h-139z" />
<glyph unicode="]" horiz-adv-x="822" d="M-106 -254l23 105h85q33 0 63.5 4.5t55.5 19.5t44.5 44t29.5 75l268 1267q6 30 6 50q0 31 -11 49t-29.5 28.5t-43.5 13.5t-53 3h-86l22 104h551l-376 -1763h-549z" />
<glyph unicode="^" d="M133 521l419 897h85l422 -897h-155l-310 681l-306 -681h-155z" />
<glyph unicode="_" horiz-adv-x="911" d="M-180 -282l25 117h930l-26 -117h-929z" />
<glyph unicode="`" horiz-adv-x="1146" d="M483 1502l6 20h292q11 -36 30 -77.5t39.5 -81.5t41.5 -75t37 -58l-6 -26h-117q-43 25 -91 64t-92.5 81t-82 82.5t-57.5 70.5z" />
<glyph unicode="a" horiz-adv-x="1321" d="M80 343q0 78 17.5 163t53.5 167.5t89 157t122.5 131t154.5 89.5t186 33q39 0 79.5 -6t77 -16t69 -22t55.5 -24l104 47h106l-131 -620q-4 -16 -9.5 -43.5t-11 -58t-9.5 -59t-4 -47.5q0 -50 19.5 -74t50.5 -24q28 0 54 12t57 29l43 -79q-25 -19 -57 -40t-71.5 -38.5 t-85.5 -28.5t-99 -11q-88 0 -141.5 40t-53.5 118q0 31 3 60.5t11 68.5h-14q-37 -69 -73.5 -123t-81 -90.5t-99.5 -55t-127 -18.5q-71 0 -124.5 27.5t-89 76t-53 115t-17.5 143.5zM381 341q0 -57 8.5 -95.5t22.5 -62.5t34 -34t43 -10q44 0 90.5 37.5t87 99.5t73 139.5 t49.5 156.5l69 330q-19 28 -53.5 41.5t-73.5 13.5q-58 0 -106 -30t-86.5 -80.5t-68.5 -114.5t-49.5 -132.5t-29.5 -135.5t-10 -123z" />
<glyph unicode="b" horiz-adv-x="1237" d="M42 -6l264 1242q2 12 5 26t5 26t3 20.5t1 12.5q0 27 -6 43.5t-18.5 25.5t-33 12t-48.5 3h-45l18 104h482l-79 -377q-4 -18 -12.5 -46.5t-18.5 -61.5t-22 -67.5t-23 -65.5t-19.5 -56t-13.5 -39h10q36 73 74.5 127t84 90t99 53.5t119.5 17.5q63 0 116.5 -23t92 -68 t60 -112.5t21.5 -154.5q0 -81 -19.5 -167.5t-57 -169t-92.5 -157t-126 -130t-157.5 -88.5t-186.5 -33q-41 0 -78.5 5.5t-70 15.5t-59.5 22.5t-45 26.5l-113 -57h-111zM379 163q22 -24 55 -39.5t74 -15.5q58 0 106.5 30.5t87.5 80.5t67.5 114t48 131t29.5 131.5t10 115.5 q0 59 -8.5 100t-23 66t-34 36.5t-40.5 11.5q-37 0 -71 -21.5t-64.5 -56.5t-56 -78t-45.5 -86.5t-33.5 -81.5t-19.5 -63z" />
<glyph unicode="c" horiz-adv-x="1048" d="M80 391q0 74 18 154t55 157t92 146.5t127.5 121.5t163 83t197.5 31q83 0 142.5 -16.5t98 -45.5t57 -67t18.5 -81q0 -31 -13.5 -60.5t-42.5 -53.5t-75 -38.5t-112 -14.5q0 53 -9 100t-27.5 82t-45.5 55.5t-62 20.5q-43 0 -80.5 -28.5t-68.5 -75.5t-54.5 -107.5t-40.5 -125 t-26 -127.5t-9 -114q0 -121 55.5 -188.5t163.5 -67.5q53 0 95 14t76 37.5t60 52.5t47 59q12 -12 21 -34.5t9 -52.5q0 -39 -23 -79.5t-71 -73t-121.5 -53t-175.5 -20.5q-90 0 -170 25t-140 76.5t-94.5 128t-34.5 180.5z" />
<glyph unicode="d" horiz-adv-x="1321" d="M80 343q0 78 17.5 163t53 167.5t87.5 157t120 131t151 89.5t181 33q58 0 108.5 -12.5t89.5 -34.5q2 13 5 29.5t6.5 33.5t7 32.5t5.5 23.5l17 80q3 12 6 26t5 26t3 20.5t1 12.5q0 27 -6 43.5t-18.5 25.5t-33 12t-48.5 3h-46l19 104h478l-230 -1082q-3 -15 -8 -41.5 t-10 -55.5t-8.5 -57.5t-3.5 -46.5q0 -47 21.5 -68t48.5 -21q25 0 55.5 13.5t55.5 27.5l43 -77q-26 -21 -59 -42.5t-72 -39t-85 -28t-97 -10.5q-44 0 -80 10t-61.5 29.5t-39.5 49t-14 69.5q0 18 1 32.5t2.5 28.5t4 30t6.5 38h-12q-37 -77 -77.5 -131.5t-87 -89t-99 -50.5 t-113.5 -16q-77 0 -132 29t-90 78.5t-51.5 115.5t-16.5 139zM381 341q0 -56 8.5 -94.5t22.5 -62.5t34 -34.5t43 -10.5q44 0 90 37.5t86.5 99t73 139t50.5 157.5l69 330q-21 27 -58 41t-72 14q-57 0 -104.5 -30.5t-85.5 -80.5t-68 -114.5t-49 -132.5t-29.5 -135.5 t-10.5 -122.5z" />
<glyph unicode="e" horiz-adv-x="1063" d="M80 391q0 74 19 154.5t57.5 157.5t95 146.5t131.5 121.5t167.5 82.5t202.5 30.5q142 0 220.5 -61.5t78.5 -171.5q0 -81 -44.5 -154.5t-123 -129.5t-187 -89t-236.5 -33h-36.5t-37.5 2q-3 -19 -3.5 -39t-0.5 -36q0 -116 54 -178.5t162 -62.5q49 0 92.5 14t81 37t67 51.5 t50.5 58.5q12 -15 19 -37.5t7 -47.5q0 -36 -23.5 -76t-71.5 -73.5t-122 -55t-176 -21.5q-91 0 -171.5 25t-141.5 76t-95.5 128t-34.5 181zM402 561h17q74 0 137.5 19t110.5 55.5t73.5 87t26.5 113.5q0 61 -25.5 95t-72.5 34q-48 0 -91.5 -36.5t-78.5 -94.5t-60.5 -130.5 t-36.5 -142.5z" />
<glyph unicode="f" horiz-adv-x="802" d="M-276 -461l24 116q16 -5 42.5 -10t48.5 -5q48 0 85.5 16.5t67 56t53.5 105.5t44 165l201 946h-180l19 94l191 42l16 74q23 98 61.5 171t96 122t134.5 73.5t178 24.5q77 0 135.5 -13.5t98 -37t59 -55t19.5 -67.5q0 -66 -58 -103t-170 -37q0 38 -4 73.5t-15 62.5t-28.5 43 t-44.5 16q-63 0 -96.5 -54t-53.5 -166l-26 -127h250l-28 -136h-252l-188 -887q-23 -106 -58.5 -185.5t-79.5 -137.5t-95.5 -95.5t-105.5 -60t-110.5 -31.5t-109.5 -9q-15 0 -32.5 1.5t-34 4t-31 5t-23.5 5.5z" />
<glyph unicode="g" horiz-adv-x="1152" d="M-115 -224q0 52 26.5 95t71 74.5t102 52.5t118.5 32q-20 10 -38.5 27t-32.5 38.5t-22.5 46.5t-8.5 51q0 31 12.5 58t38.5 53.5t67 53t97 57.5q-66 31 -102.5 92t-36.5 147q0 69 30.5 145t92 139.5t154.5 104.5t219 41q66 0 124 -15t101 -48q23 29 48 53.5t53 42.5 t60 28.5t69 10.5q61 0 89 -29.5t28 -75.5q0 -25 -6 -50t-20.5 -45.5t-39.5 -33t-61 -12.5q0 41 -17.5 63t-51.5 22q-28 0 -50 -9.5t-42 -26.5q22 -28 36 -70.5t14 -88.5q0 -43 -12.5 -91t-38 -95.5t-64 -90.5t-92 -76t-121.5 -52.5t-150 -19.5q-9 0 -23 0.5t-28.5 1t-28 1.5 t-22.5 3q-47 -20 -78 -47t-31 -58q0 -16 8.5 -26.5t22.5 -17t33.5 -10.5t42.5 -6l223 -21q145 -14 226 -79.5t81 -191.5q0 -90 -41 -164t-120 -126.5t-194 -81.5t-262 -29q-122 0 -207.5 18t-140 51t-80 80t-25.5 104zM121 -210q0 -32 11.5 -58.5t39 -46.5t75.5 -31.5 t121 -11.5q87 0 149.5 15.5t103 41.5t59.5 60.5t19 71.5q0 56 -43 86.5t-146 38.5l-176 16q-44 -6 -82.5 -22.5t-67.5 -40.5t-46 -55t-17 -64zM427 633q0 -72 28 -104t79 -32q35 0 64.5 16.5t52.5 43.5t40.5 61.5t28.5 71.5t17 72t6 64q0 70 -27.5 102.5t-80.5 32.5 q-51 0 -90 -34t-65 -84.5t-39.5 -107t-13.5 -102.5z" />
<glyph unicode="h" horiz-adv-x="1302" d="M42 0l262 1236q3 12 5.5 26t4.5 26t3 20.5t1 12.5q0 27 -5.5 43.5t-18.5 25.5t-33 12t-49 3h-41l18 104h480l-93 -436q-8 -30 -17 -68t-18 -72l-20 -80h12q37 59 77.5 102.5t87 72t101.5 42.5t121 14q63 0 106.5 -18t70 -49.5t38.5 -73t12 -86.5q0 -26 -4 -54.5 t-9.5 -57.5t-11.5 -58t-11 -56l-46 -212q-13 -54 -20.5 -101t-7.5 -89q0 -44 18.5 -67t51.5 -23q31 0 56.5 11.5t60.5 33.5l48 -67q-25 -25 -55 -49.5t-67 -44t-83 -31t-100 -11.5q-113 0 -174.5 53.5t-61.5 149.5q0 43 7.5 102t23.5 135l34 157q5 20 11.5 48t11.5 58.5 t9 61t4 54.5q0 19 -3.5 39t-12 36.5t-25 27.5t-42.5 11q-34 0 -67.5 -23t-64.5 -60.5t-58.5 -85.5t-50.5 -98t-39.5 -98.5t-25.5 -87.5l-103 -461h-298z" />
<glyph unicode="i" horiz-adv-x="703" d="M113 959l18 106h471l-137 -646q-12 -54 -20 -101t-8 -89q0 -44 18 -67t51 -23q31 0 57.5 11.5t60.5 33.5l47 -67q-23 -25 -53 -49.5t-68 -44t-83 -31t-99 -11.5q-115 0 -176 53.5t-61 149.5q0 43 7.5 102t24.5 135l78 370q2 12 4.5 25.5t4.5 26t3 21t1 12.5q0 27 -6 43.5 t-18.5 25.5t-32 11.5t-48.5 2.5h-36zM309 1367q0 43 15.5 73.5t40.5 50.5t59 29.5t71 9.5q32 0 60.5 -7t50.5 -22.5t35 -39t13 -56.5q0 -41 -16 -71.5t-43 -50.5t-60.5 -29.5t-69.5 -9.5q-33 0 -61.5 7t-49 22.5t-33 39t-12.5 54.5z" />
<glyph unicode="j" horiz-adv-x="671" d="M-278 -453l24 104q14 -5 41 -10t48 -5q47 0 81.5 17t61.5 58t48.5 108t43.5 165l171 807q2 12 4.5 25.5t4.5 26t3 21t1 12.5q0 27 -6 43.5t-18.5 25.5t-32 11.5t-48.5 2.5h-36l18 106h471l-230 -1081q-28 -132 -73.5 -221t-105 -142.5t-129.5 -75.5t-145 -22 q-64 0 -109.5 6.5t-87.5 17.5zM309 1367q0 43 15.5 73.5t40.5 50.5t59 29.5t71 9.5q32 0 60.5 -7t50.5 -22.5t35 -39t13 -56.5q0 -41 -16 -71.5t-43 -50.5t-60.5 -29.5t-69.5 -9.5q-33 0 -61.5 7t-49 22.5t-33 39t-12.5 54.5z" />
<glyph unicode="k" horiz-adv-x="1186" d="M42 0l262 1236q3 12 5.5 26t4.5 26t3 20.5t1 12.5q0 27 -5.5 43.5t-18.5 25.5t-33 12t-49 3h-41l18 104h480l-104 -484q-18 -78 -31 -139.5t-26 -117t-27 -111t-32 -121.5l310 281q24 21 38.5 37.5t22.5 28.5t11 21.5t3 17.5q0 21 -24 32t-69 11l19 100h501l-19 -100 q-69 0 -145 -40t-172 -129l-158 -146l149 -324q32 -70 62 -112.5t56 -67t48.5 -32.5t39.5 -8h8l-21 -106h-102q-73 0 -130 10t-101 33t-75 58.5t-51 85.5l-117 278l-108 -69l-85 -396h-298z" />
<glyph unicode="l" horiz-adv-x="703" d="M99 184q0 86 32 237l173 815q3 12 5.5 26t4.5 26t3 20.5t1 12.5q0 27 -5.5 43.5t-18.5 25.5t-33 12t-49 3h-41l18 104h480l-236 -1090q-12 -54 -20 -101t-8 -89q0 -44 18 -67t51 -23q31 0 57.5 11.5t60.5 33.5l47 -67q-23 -25 -53 -49.5t-67.5 -44t-83 -31t-99.5 -11.5 q-115 0 -176 53.5t-61 149.5z" />
<glyph unicode="m" horiz-adv-x="1925" d="M74 0l167 791q2 12 4.5 25.5t4.5 26t3 21t1 12.5q0 27 -6 43.5t-18.5 25.5t-32 11.5t-48.5 2.5h-36l18 106h461l-38 -203h14q39 60 80.5 102.5t87 69t96.5 38.5t110 12q62 0 103.5 -17t67 -47.5t36.5 -69t11 -82.5v-15h12q37 59 76 103.5t84.5 74t99 44.5t117.5 15 q61 0 103 -18.5t68 -50t37 -72.5t11 -87q0 -25 -3.5 -53.5t-9 -57.5t-12 -58.5t-11.5 -55.5l-45 -212q-13 -53 -20.5 -101t-7.5 -89q0 -44 18.5 -66.5t51.5 -22.5q31 0 56.5 11.5t60.5 33.5l47 -68q-24 -25 -54 -50t-67.5 -44t-83 -31t-99.5 -12q-114 0 -175 54.5t-61 150.5 q0 42 7.5 101t23.5 135l34 157q5 19 11.5 47.5t11.5 59t9 61t4 54.5q0 18 -3.5 38.5t-12 37t-24 27.5t-40.5 11q-32 0 -63.5 -22.5t-61.5 -59t-56.5 -83.5t-48.5 -96.5t-37.5 -97.5t-22.5 -87l-15 -83q-4 -20 -9.5 -55.5t-11 -76.5t-11.5 -83.5t-10.5 -79t-6.5 -62.5t-2 -34 h-309q0 12 3.5 41t9.5 68t13.5 85t15.5 91.5t15.5 86.5t14.5 71l30 139q4 18 9 46.5t10.5 59t9.5 61.5t4 55q0 19 -2 38t-8.5 35t-19.5 26.5t-35 10.5q-33 0 -65.5 -20.5t-62.5 -54.5t-57.5 -77.5t-49 -89.5t-37.5 -91.5t-24 -81.5l-111 -499h-298z" />
<glyph unicode="n" horiz-adv-x="1334" d="M74 0l167 791q2 12 4.5 25.5t4.5 26t3 21t1 12.5q0 27 -6 43.5t-18.5 25.5t-32 11.5t-48.5 2.5h-36l18 106h441l-22 -212h13q37 59 77.5 102.5t87 72t101.5 42.5t121 14q63 0 106 -18t69.5 -49.5t38.5 -73t12 -86.5q0 -26 -3.5 -54.5t-9 -57.5t-11.5 -58t-11 -56 l-45 -212q-12 -54 -19.5 -101t-7.5 -89q0 -44 18 -67t52 -23q31 0 56.5 11.5t59.5 33.5l48 -67q-24 -25 -54 -49.5t-67 -44t-83 -31t-100 -11.5q-114 0 -175.5 53.5t-61.5 149.5q0 86 32 237l32 157q4 20 10 48t12 58.5t10 61t4 54.5q0 19 -3 39t-12.5 36.5t-25.5 27.5 t-42 11q-34 0 -67.5 -23t-64.5 -60.5t-59 -85.5t-51 -98t-39.5 -98.5t-25.5 -87.5l-100 -461h-298z" />
<glyph unicode="o" horiz-adv-x="1228" d="M80 398q0 74 17 153.5t52.5 156.5t89 145.5t125.5 119.5t164 81t203 30q86 0 161.5 -23.5t132 -74t89.5 -129.5t33 -190q0 -71 -16.5 -150t-51 -155t-87.5 -145.5t-125 -121.5t-163 -83t-203 -31q-94 0 -171.5 25.5t-132.5 77.5t-86 130.5t-31 183.5zM383 349 q0 -121 41 -173.5t112 -52.5q54 0 97 30.5t77.5 80.5t59.5 114t41 132t24.5 133.5t8.5 117.5q0 118 -40.5 169.5t-109.5 51.5q-51 0 -93.5 -29.5t-77 -78t-61 -111t-44 -129.5t-26.5 -133.5t-9 -121.5z" />
<glyph unicode="p" horiz-adv-x="1237" d="M-59 -477l269 1268q3 12 5.5 25.5t4.5 26t3 21t1 12.5q0 27 -6 43.5t-18.5 25.5t-32.5 11.5t-48 2.5h-36l18 106h428l-52 -265h14q34 62 70 114.5t79.5 90.5t98.5 58.5t129 20.5q65 0 119 -23t91.5 -68.5t58.5 -112.5t21 -154q0 -72 -17 -155t-51 -166t-85 -159.5 t-119.5 -135.5t-154.5 -94t-189 -35q-60 0 -112 12t-90 33q-1 -15 -4 -32q-2 -13 -5 -30t-7 -34l-28 -133q-3 -12 -5.5 -25.5t-4.5 -26t-3 -21t-1 -12.5q0 -27 6 -43.5t18.5 -25.5t32.5 -12t48 -3h76l-18 -105h-504zM379 163q9 -9 23.5 -19t33 -18t40.5 -13t45 -5 q53 0 99 29t83.5 77.5t66.5 111t48.5 129.5t29.5 133.5t10 122.5q0 41 -5 79t-17 68.5t-33 48.5t-52 18q-33 0 -65.5 -18.5t-63 -50.5t-57.5 -74t-48.5 -87t-37.5 -90.5t-24 -85.5z" />
<glyph unicode="q" horiz-adv-x="1253" d="M80 343q0 78 18.5 163t54.5 167.5t89 157t121 131t150 89.5t177 33q43 0 85 -5.5t79.5 -15t69.5 -21t58 -23.5l117 65h99l-273 -1287q-5 -25 -9 -53t-4 -48q0 -36 24 -52t82 -16h74l-17 -105h-471l80 397q3 16 7.5 39t10.5 50t12.5 56.5t12.5 58.5q14 68 32 144h-12 q-34 -65 -70 -118t-80 -91t-101.5 -58t-133.5 -20q-63 0 -115 23t-89 68.5t-57.5 113.5t-20.5 157zM381 349q0 -57 8.5 -97t22.5 -65t34 -36.5t43 -11.5q30 0 60.5 18t60.5 49.5t57.5 74t50.5 91t41 100.5t28 102l71 328q-13 22 -47 38.5t-82 16.5q-59 0 -107.5 -31t-87 -82 t-67.5 -116t-47.5 -132t-28.5 -131.5t-10 -115.5z" />
<glyph unicode="r" horiz-adv-x="1094" d="M74 0l168 798q3 17 7.5 44t4.5 48q0 37 -24 53t-81 16h-36l18 106h439l-41 -273h9q34 72 68.5 126.5t76 91.5t93.5 55.5t122 18.5q106 0 157.5 -39.5t51.5 -115.5q0 -103 -60.5 -153t-174.5 -50q0 44 -4.5 80.5t-15.5 62t-30 39.5t-47 14t-59 -23t-62 -63t-60.5 -94.5 t-57 -119t-49.5 -135.5t-38 -144l-76 -343h-299z" />
<glyph unicode="s" horiz-adv-x="1021" d="M34 199q0 46 18.5 78t48 52t68 29.5t77.5 9.5q0 -54 11 -102.5t34 -85.5t60.5 -59t91.5 -22q41 0 76 10t60 29t39.5 46.5t14.5 63.5q0 34 -13 60.5t-40.5 49t-69.5 45t-101 50.5q-58 27 -105 58t-80 69t-51 84.5t-18 104.5q0 73 31 131t89.5 99.5t141.5 63t187 21.5 q100 0 169.5 -15.5t112.5 -41t62 -59.5t19 -70q0 -79 -61 -115t-167 -36q0 40 -7.5 80t-26 73t-47.5 53.5t-72 20.5q-39 0 -69.5 -11t-52.5 -30t-33.5 -44.5t-11.5 -54.5q0 -33 13 -57t41 -45.5t70.5 -42.5t100.5 -47q64 -29 110.5 -61.5t77 -71t45.5 -83.5t15 -100 q0 -81 -30.5 -145t-91.5 -108.5t-151 -68t-210 -23.5q-85 0 -154.5 14.5t-118.5 42.5t-75.5 68.5t-26.5 92.5z" />
<glyph unicode="t" horiz-adv-x="828" d="M119 929l22 102q42 0 92.5 14.5t103.5 47.5t106 86.5t99 130.5h116l-52 -245h240l-27 -136h-243l-119 -544q-11 -44 -15.5 -79t-4.5 -64q0 -49 27.5 -74t71.5 -25q47 0 85 15.5t71 36.5l45 -76q-33 -28 -69.5 -53t-79 -44t-91.5 -30t-106 -11q-54 0 -101.5 14t-82 42.5 t-54.5 72t-20 102.5q0 18 1.5 39.5t4.5 43.5t6.5 44t7.5 40l120 550h-154z" />
<glyph unicode="u" horiz-adv-x="1336" d="M113 959l18 106h477l-131 -595q-6 -23 -11.5 -52t-10.5 -58t-8.5 -55.5t-3.5 -44.5q0 -44 18.5 -69.5t67.5 -25.5q43 0 89 39t88.5 102t75.5 140t50 152l106 467h296l-135 -646q-13 -54 -20.5 -101t-7.5 -89q0 -44 18 -67t52 -23q31 0 56.5 11.5t59.5 33.5l49 -67 q-25 -25 -55 -49.5t-67 -44t-83 -31t-100 -11.5q-66 0 -110 15t-71.5 40.5t-39 60t-11.5 74.5q0 8 1 20t2.5 24.5t3 23.5t3.5 19h-17q-43 -62 -85.5 -112.5t-90 -87t-102.5 -56t-126 -19.5q-64 0 -107.5 17.5t-70 48t-38 70.5t-11.5 84q0 49 11.5 108.5t22.5 109.5l72 350 q7 41 12 74t5 49q0 40 -24 52.5t-81 12.5h-36z" />
<glyph unicode="v" horiz-adv-x="1164" d="M32 959l23 106h390l91 -588q15 -101 21.5 -180t10.5 -128h6q68 70 130 150.5t109.5 161.5t76 157t28.5 137q0 67 -38 98t-93 31q0 82 44.5 130.5t120.5 48.5q31 0 58 -10.5t47.5 -32.5t32 -57t11.5 -85q0 -77 -25 -161.5t-66.5 -169.5t-95 -167t-110 -155t-112 -135.5 t-100.5 -107.5l-262 -19l-141 872q-6 31 -17 51t-28 32t-40 16.5t-53 4.5h-19z" />
<glyph unicode="w" horiz-adv-x="1738" d="M74 959l32 106h383q6 -99 10.5 -197.5t7.5 -184t5 -154t2 -108.5q0 -76 -1 -122t-1 -51h15q49 79 98.5 172t98 196t95 212t89.5 219l242 7q6 -49 11.5 -121t10.5 -153.5t9 -166.5t7.5 -161.5t5.5 -138t2 -95.5h14q87 108 144 195t90.5 158.5t47 130t13.5 107.5 q0 29 -8.5 52.5t-22 40.5t-31.5 27t-37 15q3 38 16.5 64.5t33 43.5t45 24.5t53.5 7.5q66 0 102.5 -43.5t36.5 -124.5q0 -103 -44 -217.5t-116.5 -233.5t-166.5 -236.5t-194 -226.5l-243 -21q0 61 -1.5 132t-3 147t-2.5 151.5t-3 144.5t-4 127t-3 100q-78 -185 -178 -383 t-232 -394l-260 -18l-20 827q-1 45 -11.5 73.5t-28.5 44.5t-43 21t-54 5h-11z" />
<glyph unicode="x" horiz-adv-x="1199" d="M-40 0l21 106h25q28 0 51 4t45.5 18t49.5 39t64 66l251 275l-137 330q-16 38 -31 61t-32.5 37t-38.5 18.5t-50 4.5h-23l20 106h373l140 -377l275 377h243l-20 -106h-36q-29 0 -51.5 -5.5t-45.5 -21.5t-48.5 -44t-60.5 -71l-205 -237l145 -334q18 -41 34 -68.5t33.5 -43.5 t39 -22t50.5 -6h26l-20 -106h-385l-150 402l-309 -402h-243z" />
<glyph unicode="y" horiz-adv-x="1164" d="M-334 -441l30 111q24 -8 66 -17t103 -9q91 0 167 24.5t140.5 65.5t121 96.5t110.5 118.5l-249 906q-16 59 -47.5 81.5t-90.5 22.5h-19l24 106h389l131 -515q10 -39 20.5 -91t20.5 -103.5t16.5 -97t8.5 -69.5h6q59 80 111.5 160.5t92 156.5t62 145t22.5 126 q0 67 -32.5 102t-90.5 35q0 39 12 70.5t33.5 53.5t50.5 34t63 12q80 0 121.5 -44.5t41.5 -123.5q0 -78 -26 -164.5t-74.5 -183.5t-118 -205.5t-156.5 -229.5q-72 -101 -135 -185.5t-124 -152.5t-123.5 -118.5t-132.5 -85t-153 -51.5t-185 -17q-57 0 -111 9.5t-96 26.5z" />
<glyph unicode="z" horiz-adv-x="1108" d="M0 0l22 101l664 828h-253q-40 0 -67 -13t-48 -36t-38 -56t-36 -73l-3 -8h-122l88 322h852l-22 -104l-665 -826h322q34 0 60 16t46 41.5t35.5 57.5t28.5 64l20 46h115l-85 -360h-914z" />
<glyph unicode="{" horiz-adv-x="877" d="M78 572l25 122q49 1 93.5 9t79.5 28.5t60.5 56t36.5 90.5l72 341q16 75 45 130t76 90t116 52.5t164 17.5h189l-22 -104h-77q-43 0 -72.5 -13t-50.5 -37t-34.5 -60.5t-23.5 -82.5l-74 -338q-19 -90 -82 -148t-184 -84l-4 -16q90 -25 132.5 -69t42.5 -110q0 -26 -6 -56 l-74 -340q-5 -25 -7 -47t-2 -42q0 -51 25 -78t86 -27h78l-24 -105h-190q-141 0 -212 57t-71 159q0 9 0.5 19.5t2.5 26t6 38.5t11 56l59 277q7 28 7 54q0 39 -15.5 64.5t-42 40.5t-62.5 20.5t-77 7.5z" />
<glyph unicode="|" d="M514 -477v1986h144v-1986h-144z" />
<glyph unicode="}" horiz-adv-x="877" d="M-108 -246l23 105h77q43 0 72.5 13t50.5 37t34 60t24 82l73 338q20 90 82.5 148t183.5 85l4 15q-89 25 -132 69.5t-43 110.5q0 26 6 55l74 340q6 25 8 47t2 42q0 51 -25 78t-86 27h-78l24 106h189q143 0 213.5 -57t70.5 -160q0 -9 -0.5 -19.5t-3 -26t-6 -38t-10.5 -55.5 l-59 -278q-6 -29 -6 -54q0 -39 15 -64.5t41.5 -40t62.5 -20.5t78 -7l-27 -122q-49 -2 -92.5 -9.5t-79 -28t-61 -56t-37.5 -91.5l-71 -341q-15 -75 -44.5 -130t-77 -90t-116 -52.5t-164.5 -17.5h-189z" />
<glyph unicode="~" d="M91 521q0 184 68.5 279.5t198.5 95.5q77 0 146.5 -50t138 -115.5t117.5 -65.5t77 56.5t33 174.5h148q-10 -203 -75.5 -289t-191.5 -86q-58 0 -109.5 28.5t-101 72t-96 86.5t-95.5 43q-51 0 -81 -55t-30 -175h-147z" />
<glyph unicode="&#xa1;" horiz-adv-x="784" d="M24 -356l344 966h115l-113 -966h-346zM300 900q0 50 15 84t39.5 55t55.5 30.5t62 9.5q73 0 117 -35t44 -108q0 -41 -12 -74t-34 -56t-54 -36t-72 -13q-34 0 -63.5 8.5t-51.5 26t-34 44.5t-12 64z" />
<glyph unicode="&#xa2;" d="M133 574q0 69 17 144t51 149t85 141.5t117.5 121.5t149.5 90.5t182 47.5l32 150h123l-32 -146q75 -5 129 -23.5t88.5 -46.5t51 -64t16.5 -75q0 -31 -13.5 -60.5t-43 -53.5t-75.5 -38.5t-111 -14.5q0 72 -18.5 131t-55.5 93l-170 -806h15q57 0 103 14t82 37.5t64.5 52.5 t50.5 59q13 -12 22.5 -35t9.5 -53q0 -37 -22.5 -75.5t-69 -71t-118 -54.5t-169.5 -25l-34 -163h-123l35 169q-78 11 -146 42t-117.5 81t-77.5 120.5t-28 161.5zM437 570q0 -81 26 -138t77 -87l169 805q-43 -9 -79 -42.5t-66 -82t-53.5 -108t-40 -120.5t-25 -120t-8.5 -107z " />
<glyph unicode="&#xa3;" d="M-12 103l67 43q50 29 100 69t90 91.5t65.5 115t25.5 139.5q0 33 -3.5 64.5t-8.5 62.5h-229l28 121h186q-5 37 -12 88.5t-7 99.5q0 105 37 187.5t104.5 138.5t163 86t211.5 30q84 0 149 -17t109.5 -47t67 -69t22.5 -84q0 -85 -64 -130t-184 -45q0 135 -39 202.5t-107 67.5 q-99 0 -152.5 -83.5t-53.5 -236.5q0 -58 6.5 -106t11.5 -82h353l-27 -121l-316 2q1 -8 2 -19.5t2 -25.5t1.5 -28.5t0.5 -26.5q0 -61 -19.5 -111t-56.5 -92.5t-90 -78.5t-122 -69l2 -8q52 19 94.5 27t80.5 8q45 0 92.5 -11.5t92.5 -24.5t85.5 -24t71.5 -11q34 0 60 4.5 t49 13.5t45 23.5t48 36.5l63 -100q-23 -25 -61.5 -58t-86 -63t-99.5 -50.5t-102 -20.5q-49 0 -96 14t-96 31.5t-102.5 31.5t-114.5 14q-40 0 -73.5 -3.5t-64 -11t-61 -19t-63.5 -26.5l-32 -14z" />
<glyph unicode="&#xa4;" d="M163 391l115 115q-58 90 -58 201q0 57 16.5 110t47.5 97l-119 119l99 99l119 -119q44 28 94 44t107 16q55 0 106 -16t95 -46l123 123l99 -101l-121 -123q30 -44 47 -95t17 -108t-15.5 -107t-44.5 -94l117 -117l-99 -99l-117 117q-45 -30 -97.5 -47t-109.5 -17t-109 16 t-96 46l-115 -115zM356 707q0 -47 18 -89t48.5 -73.5t72 -49.5t89.5 -18q49 0 91 18t72.5 49.5t48 73.5t17.5 89q0 50 -17.5 92t-48 73.5t-72.5 49.5t-91 18q-48 0 -89.5 -18t-72 -49.5t-48.5 -73.5t-18 -92z" />
<glyph unicode="&#xa5;" d="M87 0l22 106h53q31 0 60 4t53.5 17.5t42 36.5t25.5 62l22 102h-278l24 117h278l26 116h-278l23 116h263l-121 531q-7 30 -14 49.5t-18 32.5t-29 18t-47 5h-25l21 105h542l-21 -105h-56q-45 0 -64.5 -15.5t-19.5 -42.5q0 -17 8 -53.5t17 -83.5l35 -189q12 -63 21.5 -121 t9.5 -99q10 27 30.5 65t45.5 81l153 258q22 35 41.5 74t19.5 72q0 27 -22.5 40.5t-55.5 13.5h-40l23 105h421l-21 -105h-6q-45 0 -88.5 -37.5t-94.5 -117.5l-309 -481h254l-25 -116h-277l-26 -116h278l-24 -117h-277l-23 -95q-5 -22 -7 -37.5t-2 -22.5q0 -22 10.5 -35 t29.5 -20t45 -9.5t57 -2.5h48l-22 -106h-711z" />
<glyph unicode="&#xa6;" d="M512 318h144v-795h-144v795zM512 715v794h144v-794h-144z" />
<glyph unicode="&#xa7;" horiz-adv-x="1080" d="M44 10q0 50 18.5 82.5t46.5 50.5t61 25t61 7q0 -63 15 -116.5t43.5 -92.5t70 -61t93.5 -22q51 0 92.5 16.5t70 44.5t44 66.5t15.5 82.5q0 40 -10.5 71.5t-39.5 62t-79.5 63.5t-130.5 76q-75 39 -124.5 79t-79 80.5t-41 84.5t-11.5 91q0 49 16 89t42 73.5t59.5 60.5 t68.5 47q-17 28 -32 73.5t-15 105.5q0 86 34.5 153t93 112.5t136 69.5t164.5 24q90 0 155.5 -17t108.5 -46t64 -68t21 -83q0 -43 -14 -71.5t-40.5 -45.5t-62.5 -24t-80 -7q0 53 -11 99.5t-33 80.5t-54 54t-73 20q-36 0 -71.5 -12t-64 -36t-46 -61.5t-17.5 -87.5 q0 -44 12.5 -76.5t40.5 -61t74 -56.5t114 -64q73 -39 123 -75.5t82 -73.5t45.5 -76.5t13.5 -85.5t-15 -88t-41.5 -79t-61 -68.5t-72.5 -56.5q17 -28 31 -70t14 -95q0 -84 -31 -158t-88 -129.5t-138 -87.5t-180 -32q-91 0 -162.5 17.5t-121.5 49t-76.5 75.5t-26.5 97z M334 764q0 -32 10.5 -59t35.5 -52.5t68.5 -52.5t109.5 -58q55 -27 108 -58t87 -59q31 25 49.5 58.5t18.5 74.5q0 22 -9 46.5t-31.5 49.5t-61.5 51.5t-99 54.5q-64 31 -117 61.5t-98 66.5q-31 -24 -51 -52.5t-20 -71.5z" />
<glyph unicode="&#xa8;" horiz-adv-x="1146" d="M370 1344q0 64 32 102t87 38q47 0 78 -27t31 -83q0 -38 -11 -64.5t-27.5 -43t-37.5 -23.5t-43 -7q-49 0 -79 26.5t-30 81.5zM785 1344q0 64 32 102t87 38q48 0 78.5 -27t30.5 -83q0 -38 -11 -64.5t-27.5 -43t-37.5 -23.5t-43 -7q-49 0 -79 26.5t-30 81.5z" />
<glyph unicode="&#xa9;" horiz-adv-x="1679" d="M125 709q0 101 26.5 194.5t73.5 174.5t113.5 148t147.5 114.5t174.5 73.5t194.5 26q100 0 193.5 -26t174.5 -73.5t148 -114.5t114.5 -148t73.5 -174.5t26 -194.5t-26 -194t-73.5 -174t-114.5 -147.5t-148 -114t-174.5 -73t-193.5 -25.5q-101 0 -194.5 25.5t-174.5 73 t-147.5 114t-113.5 147.5t-73.5 174t-26.5 194zM235 709q0 -85 22 -164t62.5 -148t96.5 -126t125 -97t148.5 -62.5t165.5 -22.5t165 22.5t148.5 62.5t126 97t97 126t62.5 148t22 164q0 129 -49 242t-133 197.5t-197 133.5t-242 49q-86 0 -165.5 -22.5t-148.5 -62.5t-125 -97 t-96.5 -126t-62.5 -149t-22 -165zM467 711q0 97 27 177.5t81 138.5t133.5 90.5t183.5 32.5q68 0 119.5 -11t85 -30t50.5 -44.5t17 -55.5q0 -22 -10.5 -39t-28.5 -29.5t-43 -18.5t-53 -6q0 27 -7 54t-23.5 49t-44 35t-66.5 13q-70 0 -119 -23.5t-80 -69t-45 -112t-14 -151.5 q0 -172 66.5 -264.5t193.5 -92.5q45 0 84 11.5t70.5 31t53.5 43.5t36 49q13 -9 20.5 -25t7.5 -37q0 -27 -18.5 -55.5t-55.5 -51.5t-93 -37.5t-131 -14.5q-99 0 -173.5 32t-124.5 90t-74.5 139.5t-24.5 181.5z" />
<glyph unicode="&#xaa;" horiz-adv-x="856" d="M151 980q0 46 12 97.5t36 101.5t61.5 94.5t87.5 78.5t113.5 54t140.5 20q54 0 89.5 -11.5t65.5 -30.5l69 28h68l-73 -361q-8 -41 -15.5 -73.5t-7.5 -57.5q0 -52 42 -52q19 0 41 9.5t44 22.5l27 -47q-13 -14 -34 -30.5t-47 -30.5t-57.5 -23.5t-64.5 -9.5 q-66 0 -102.5 26.5t-36.5 72.5q0 25 3.5 56t6.5 53h-8q-25 -46 -53.5 -84t-61.5 -65t-71.5 -42.5t-82.5 -15.5q-49 0 -85.5 17t-60 47t-35 69.5t-11.5 86.5zM383 991q0 -33 5 -54.5t13.5 -35t20 -19.5t23.5 -6q26 0 54.5 23.5t52.5 60t43.5 78.5t28.5 78l47 190 q-11 17 -36 26.5t-49 9.5q-33 0 -61 -16.5t-50.5 -45.5t-39.5 -65.5t-28.5 -75.5t-17.5 -77.5t-6 -70.5z" />
<glyph unicode="&#xab;" horiz-adv-x="1100" d="M117 499l22 103l377 332h140l-284 -398l115 -397h-140zM516 499l22 103l378 332h138l-283 -398l115 -397h-139z" />
<glyph unicode="&#xac;" d="M161 639v142h852v-497h-143v355h-709z" />
<glyph unicode="&#xad;" horiz-adv-x="615" d="M19 437l47 209h516l-46 -209h-517z" />
<glyph unicode="&#xae;" horiz-adv-x="1679" d="M125 709q0 101 26.5 194.5t73.5 174.5t113.5 148t147.5 114.5t174.5 73.5t194.5 26q100 0 193.5 -26t174.5 -73.5t148 -114.5t114.5 -148t73.5 -174.5t26 -194.5t-26 -194t-73.5 -174t-114.5 -147.5t-148 -114t-174.5 -73t-193.5 -25.5q-101 0 -194.5 25.5t-174.5 73 t-147.5 114t-113.5 147.5t-73.5 174t-26.5 194zM235 709q0 -85 22 -164t62.5 -148t96.5 -126t125 -97t148.5 -62.5t165.5 -22.5t165 22.5t148.5 62.5t126 97t97 126t62.5 148t22 164q0 129 -49 242t-133 197.5t-197 133.5t-242 49q-86 0 -165.5 -22.5t-148.5 -62.5t-125 -97 t-96.5 -126t-62.5 -149t-22 -165zM479 280v67h25q20 0 37.5 2.5t31 10t21.5 21t8 36.5v582q0 23 -8 37t-21.5 21t-31 9.5t-37.5 2.5h-25v70h357q342 0 342 -237q0 -47 -15.5 -83t-41 -62.5t-58 -44t-66.5 -28.5l177 -284q9 -17 18.5 -27t22 -16t29 -8t41.5 -2v-67h-210 l-218 370h-106v-233q1 -23 9 -36.5t21 -21t30 -10t37 -2.5h28v-67h-397zM751 726h83q54 0 90 10.5t57.5 32t30.5 54.5t9 77t-10.5 75t-33.5 50t-59.5 27.5t-89.5 8.5h-77v-335z" />
<glyph unicode="&#xaf;" horiz-adv-x="911" d="M-10 1509v118h932v-118h-932z" />
<glyph unicode="&#xb0;" horiz-adv-x="794" d="M218 1116q0 63 23.5 118t64 96t95.5 64.5t118 23.5q62 0 117.5 -23.5t96 -64.5t64.5 -96t24 -118t-24 -117t-64.5 -95t-96 -64t-117.5 -23q-63 0 -118 23t-95.5 64t-64 95t-23.5 117zM356 1116q0 -33 12.5 -63t35 -52.5t52 -35.5t63.5 -13q35 0 65 13t52.5 35.5t35 52.5 t12.5 63q0 35 -12.5 65.5t-35 53t-52.5 35.5t-65 13q-34 0 -63.5 -13t-52 -35.5t-35 -53t-12.5 -65.5z" />
<glyph unicode="&#xb1;" d="M161 0v141h852v-141h-852zM161 639v142h353v355h144v-355h355v-142h-355v-355h-144v355h-353z" />
<glyph unicode="&#xb2;" horiz-adv-x="794" d="M57 568l28 143l294 214q60 44 101 84.5t65 79t34.5 78t10.5 80.5q0 20 -4.5 38.5t-14 32.5t-25.5 22.5t-40 8.5q-28 0 -50 -16.5t-39 -43.5t-28.5 -62.5t-15.5 -74.5q-69 0 -110 28.5t-41 72.5q0 41 21.5 75t61.5 58.5t97.5 38.5t130.5 14q62 0 112 -13.5t84.5 -36.5 t53.5 -56t19 -74q0 -42 -14 -80t-48.5 -79.5t-90.5 -89.5t-141 -108l-248 -179h292q46 0 70 24t36 57l15 42h78l-56 -278h-638z" />
<glyph unicode="&#xb3;" horiz-adv-x="794" d="M57 717q0 27 11.5 48t31 35.5t47 22t58.5 7.5q0 -28 8.5 -58.5t28 -55t50.5 -40.5t76 -16q36 0 67.5 8.5t54.5 28.5t36.5 51t13.5 75q0 27 -10.5 52t-32.5 43.5t-56.5 29.5t-80.5 11h-66l15 93h68q42 0 80 14.5t66.5 40.5t45.5 64.5t17 87.5q0 40 -18 65t-58 25 q-32 0 -55.5 -14t-40.5 -38t-27.5 -55t-14.5 -66q-73 0 -117.5 21.5t-44.5 70.5q0 35 21.5 66t62 54t98.5 37t131 14q71 0 122.5 -14.5t85.5 -39t50.5 -57.5t16.5 -71q0 -52 -18.5 -91t-51.5 -67t-79.5 -46.5t-100.5 -29.5l-2 -10q91 -11 146 -55.5t55 -127.5 q0 -67 -30 -118t-83 -85.5t-126 -52.5t-159 -18q-144 0 -218 43t-74 118z" />
<glyph unicode="&#xb4;" horiz-adv-x="1146" d="M483 1204l6 26q27 28 59 65t63.5 76t61 78t53.5 73h311l-6 -20q-15 -18 -42.5 -41.5t-62 -51t-73.5 -56t-80 -55.5t-80.5 -52t-74.5 -42h-135z" />
<glyph unicode="&#xb5;" horiz-adv-x="1344" d="M-4 -334q0 59 16.5 133t42.5 168t58.5 212.5t63.5 267.5l130 618h303l-133 -624q-3 -14 -6.5 -33.5t-7 -41.5t-6 -43.5t-2.5 -40.5q0 -27 6.5 -51t20.5 -42t34.5 -29t49.5 -11q93 0 156 89t102 278l118 549h302l-137 -646q-13 -54 -20.5 -101t-7.5 -89q0 -44 18.5 -67 t50.5 -23t57.5 11.5t60.5 33.5l47 -67q-24 -25 -54 -49.5t-69 -44t-86.5 -31t-106.5 -11.5q-61 0 -101 17t-64 44.5t-33.5 64t-9.5 75.5h-10q-34 -45 -66.5 -82.5t-68.5 -63.5t-76.5 -40.5t-90.5 -14.5q-88 0 -149 39t-97 103q-7 -35 -12.5 -71.5t-8.5 -71.5t-5 -66.5 t-2 -56.5q0 -34 6 -61.5t24 -48t49.5 -33.5t81.5 -18q-8 -43 -31 -76t-55.5 -54.5t-72 -32t-80.5 -10.5q-28 0 -52 7t-40.5 24t-26.5 44.5t-10 67.5z" />
<glyph unicode="&#xb6;" horiz-adv-x="1245" d="M127 1156q0 80 16.5 145t53.5 111.5t95.5 71.5t143.5 25h777v-104h-25q-34 0 -63.5 -5t-51.5 -20t-35 -43t-13 -76v-1235q0 -46 13 -74.5t35 -43.5t51.5 -19t63.5 -4h25v-105h-331v1607h-167v-1607h-332v105h26q33 0 63 4t52 19t35 43.5t13 74.5v741h-141 q-88 0 -146 31.5t-93 85.5t-50 124.5t-15 147.5z" />
<glyph unicode="&#xb7;" horiz-adv-x="604" d="M169 688q0 40 12 73t35 56.5t54.5 36t70.5 12.5q34 0 64 -8.5t51.5 -26t33.5 -44.5t12 -63q0 -50 -15 -84.5t-39.5 -55t-55.5 -30t-62 -9.5q-72 0 -116.5 35t-44.5 108z" />
<glyph unicode="&#xb8;" horiz-adv-x="661" d="M49 -451l27 117q34 -7 68 -11t61 -4q30 0 57 5.5t46.5 18t31 31.5t11.5 46q0 19 -10 35t-27.5 28t-42 19t-51.5 9l80 174h113l-38 -85q40 -5 72.5 -19.5t56 -36.5t36 -49.5t12.5 -59.5q0 -64 -29.5 -110t-79 -76t-113 -44t-131.5 -14q-31 0 -73.5 7t-76.5 19z" />
<glyph unicode="&#xb9;" horiz-adv-x="794" d="M127 570l19 88h100q19 0 36 2.5t30.5 10t23.5 22.5t15 40l119 564q-56 -55 -100 -89t-80 -34q-28 0 -42.5 28.5t-14.5 69.5q23 4 46.5 10.5t48.5 17t54 26.5t63 37l103 66h147l-141 -669q-5 -17 -6.5 -31.5t-1.5 -19.5q0 -17 6.5 -27.5t17 -15.5t24.5 -6.5t30 -1.5h81 l-17 -88h-561z" />
<glyph unicode="&#xba;" horiz-adv-x="808" d="M143 1007q0 44 13 93t38 96t63 89t88.5 74t112.5 51t136 19q62 0 116.5 -14.5t95.5 -44.5t64.5 -77t23.5 -111q0 -41 -11.5 -88.5t-35.5 -95t-60.5 -91.5t-86.5 -77.5t-113 -53t-140 -19.5q-69 0 -125 16t-96 48t-61.5 78.5t-21.5 107.5zM368 997q0 -67 22 -103.5 t67 -36.5q53 0 93.5 33t67 83.5t40 108.5t13.5 106q0 66 -20.5 100.5t-66.5 34.5q-50 0 -90.5 -32t-68 -81t-42.5 -106t-15 -107z" />
<glyph unicode="&#xbb;" horiz-adv-x="1100" d="M44 139l286 397l-118 398h139l229 -358l-22 -104l-376 -333h-138zM443 139l286 397l-117 398h139l229 -358l-23 -104l-375 -333h-139z" />
<glyph unicode="&#xbc;" horiz-adv-x="1668" d="M52 570l19 88h100q19 0 36 2.5t30.5 10t23.5 22.5t15 40l119 564q-56 -55 -100 -89t-80 -34q-28 0 -42.5 28.5t-14.5 69.5q23 4 46.5 10.5t48.5 17t54 26.5t63 37l103 66h147l-141 -669q-5 -17 -6.5 -31.5t-1.5 -19.5q0 -17 6.5 -27.5t17 -15.5t24.5 -6.5t30 -1.5h81 l-17 -88h-561zM277 0l1008 1418h167l-1006 -1418h-169zM849 233l17 80l512 547h176l-108 -521h154l-23 -106h-155l-8 -35q-5 -21 -6.5 -37.5t-1.5 -22.5q0 -16 5.5 -26t15 -15t22 -6.5t26.5 -1.5h40l-18 -88h-457l18 88h56q17 0 32 2.5t28 10t22.5 22.5t14.5 40l14 69h-376z M1012 339h237l46 222q5 31 16 61.5t21 67.5q-10 -16 -23 -31.5t-18 -23.5z" />
<glyph unicode="&#xbd;" horiz-adv-x="1668" d="M52 570l19 88h100q19 0 36 2.5t30.5 10t23.5 22.5t15 40l119 564q-56 -55 -100 -89t-80 -34q-28 0 -42.5 28.5t-14.5 69.5q23 4 46.5 10.5t48.5 17t54 26.5t63 37l103 66h147l-141 -669q-5 -17 -6.5 -31.5t-1.5 -19.5q0 -17 6.5 -27.5t17 -15.5t24.5 -6.5t30 -1.5h81 l-17 -88h-561zM267 0l1008 1418h167l-1006 -1418h-169zM872 1l28 143l294 214q60 44 101 84.5t65 79t34.5 78t10.5 80.5q0 20 -4.5 38.5t-14 32.5t-25.5 22.5t-40 8.5q-28 0 -50 -16.5t-39 -43.5t-28.5 -62.5t-15.5 -74.5q-69 0 -110 28.5t-41 72.5q0 41 21.5 75t61.5 58.5 t97.5 38.5t130.5 14q62 0 112 -13.5t84.5 -36.5t53.5 -56t19 -74q0 -42 -14 -80t-48.5 -79.5t-90.5 -89.5t-141 -108l-248 -179h292q46 0 70 24t36 57l15 42h78l-56 -278h-638z" />
<glyph unicode="&#xbe;" horiz-adv-x="1668" d="M54 717q0 27 11.5 48t31 35.5t47 22t58.5 7.5q0 -28 8.5 -58.5t28 -55t50.5 -40.5t76 -16q36 0 67.5 8.5t54.5 28.5t36.5 51t13.5 75q0 27 -10.5 52t-32.5 43.5t-56.5 29.5t-80.5 11h-66l15 93h68q42 0 80 14.5t66.5 40.5t45.5 64.5t17 87.5q0 40 -18 65t-58 25 q-32 0 -55.5 -14t-40.5 -38t-27.5 -55t-14.5 -66q-73 0 -117.5 21.5t-44.5 70.5q0 35 21.5 66t62 54t98.5 37t131 14q71 0 122.5 -14.5t85.5 -39t50.5 -57.5t16.5 -71q0 -52 -18.5 -91t-51.5 -67t-79.5 -46.5t-100.5 -29.5l-2 -10q91 -11 146 -55.5t55 -127.5 q0 -67 -30 -118t-83 -85.5t-126 -52.5t-159 -18q-144 0 -218 43t-74 118zM330 0l1008 1418h167l-1006 -1418h-169zM857 233l17 80l512 547h176l-108 -521h154l-23 -106h-155l-8 -35q-5 -21 -6.5 -37.5t-1.5 -22.5q0 -16 5.5 -26t15 -15t22 -6.5t26.5 -1.5h40l-18 -88h-457 l18 88h56q17 0 32 2.5t28 10t22.5 22.5t14.5 40l14 69h-376zM1020 339h237l46 222q5 31 16 61.5t21 67.5q-10 -16 -23 -31.5t-18 -23.5z" />
<glyph unicode="&#xbf;" horiz-adv-x="1063" d="M4 -48q0 87 38 158t103.5 130t156.5 106t197 85l71 177h127l4 -246q-88 -32 -159.5 -70.5t-121.5 -87.5t-78 -111.5t-28 -143.5q0 -50 11 -88t30 -64t45 -39.5t57 -13.5q46 0 79.5 24t56 64t35.5 92.5t20 109.5q244 0 244 -153q0 -54 -32 -101t-91.5 -82t-145 -55 t-190.5 -20q-99 0 -178.5 19t-135 59.5t-85.5 102.5t-30 148zM508 898q0 50 15 84.5t40 55t56 30t62 9.5q73 0 117 -35t44 -108q0 -41 -12 -74t-34.5 -56t-54.5 -36t-72 -13q-34 0 -63.5 8.5t-51 26t-34 44.5t-12.5 64z" />
<glyph unicode="&#xc0;" horiz-adv-x="1495" d="M-97 0l21 106h42q27 0 48 6t40.5 23.5t40 47.5t48.5 77l674 1158h271l167 -1170q5 -31 13.5 -57t22 -45t34 -29.5t51.5 -10.5h36l-21 -106h-656l22 106h45q64 0 102 20t38 63q0 17 -1 33t-3 30l-30 215h-483l-97 -179q-20 -36 -29 -63t-9 -48q0 -37 27 -54t85 -17h39 l-22 -106h-516zM493 588h401l-36 334q-4 43 -8.5 81.5t-8 74.5t-6 69.5t-3.5 69.5q-14 -36 -28.5 -66.5t-31 -62t-36.5 -67t-46 -81.5zM634 1830l6 20h292q11 -36 30 -77.5t39.5 -81.5t41.5 -75t37 -58l-6 -26h-117q-43 25 -91 64t-92.5 81t-82 82.5t-57.5 70.5z" />
<glyph unicode="&#xc1;" horiz-adv-x="1495" d="M-97 0l21 106h42q27 0 48 6t40.5 23.5t40 47.5t48.5 77l674 1158h271l167 -1170q5 -31 13.5 -57t22 -45t34 -29.5t51.5 -10.5h36l-21 -106h-656l22 106h45q64 0 102 20t38 63q0 17 -1 33t-3 30l-30 215h-483l-97 -179q-20 -36 -29 -63t-9 -48q0 -37 27 -54t85 -17h39 l-22 -106h-516zM493 588h401l-36 334q-4 43 -8.5 81.5t-8 74.5t-6 69.5t-3.5 69.5q-14 -36 -28.5 -66.5t-31 -62t-36.5 -67t-46 -81.5zM832 1532l6 26q27 28 59 65t63.5 76t61 78t53.5 73h311l-6 -20q-15 -18 -42.5 -41.5t-62 -51t-73.5 -56t-80 -55.5t-80.5 -52t-74.5 -42 h-135z" />
<glyph unicode="&#xc2;" horiz-adv-x="1495" d="M-97 0l21 106h42q27 0 48 6t40.5 23.5t40 47.5t48.5 77l674 1158h271l167 -1170q5 -31 13.5 -57t22 -45t34 -29.5t51.5 -10.5h36l-21 -106h-656l22 106h45q64 0 102 20t38 63q0 17 -1 33t-3 30l-30 215h-483l-97 -179q-20 -36 -29 -63t-9 -48q0 -37 27 -54t85 -17h39 l-22 -106h-516zM493 588h401l-36 334q-4 43 -8.5 81.5t-8 74.5t-6 69.5t-3.5 69.5q-14 -36 -28.5 -66.5t-31 -62t-36.5 -67t-46 -81.5zM594 1532l6 26q29 28 66 64.5t76 75t75.5 78t64.5 74.5h268q13 -31 32.5 -70t41 -78.5t43 -77.5t38.5 -66l-6 -26h-125 q-17 16 -40.5 38.5t-47.5 46.5t-48 48.5t-41 44.5q-26 -20 -59 -44.5t-67 -48.5t-66 -46.5t-56 -38.5h-155z" />
<glyph unicode="&#xc3;" horiz-adv-x="1495" d="M-97 0l21 106h42q27 0 48 6t40.5 23.5t40 47.5t48.5 77l674 1158h271l167 -1170q5 -31 13.5 -57t22 -45t34 -29.5t51.5 -10.5h36l-21 -106h-656l22 106h45q64 0 102 20t38 63q0 17 -1 33t-3 30l-30 215h-483l-97 -179q-20 -36 -29 -63t-9 -48q0 -37 27 -54t85 -17h39 l-22 -106h-516zM493 588h401l-36 334q-4 43 -8.5 81.5t-8 74.5t-6 69.5t-3.5 69.5q-14 -36 -28.5 -66.5t-31 -62t-36.5 -67t-46 -81.5zM589 1552q9 45 32 97t57.5 95.5t80 72.5t98.5 29q52 0 93.5 -19.5t76 -43t65 -43t61.5 -19.5q25 0 43.5 8.5t31.5 23t21.5 33.5t12.5 40 h120q-11 -48 -33 -100t-54.5 -95t-75.5 -71t-96 -28q-54 0 -96.5 19.5t-78.5 43t-67.5 43t-63.5 19.5q-20 0 -38.5 -9t-33 -23.5t-24.5 -33t-13 -39.5h-119z" />
<glyph unicode="&#xc4;" horiz-adv-x="1495" d="M-97 0l21 106h42q27 0 48 6t40.5 23.5t40 47.5t48.5 77l674 1158h271l167 -1170q5 -31 13.5 -57t22 -45t34 -29.5t51.5 -10.5h36l-21 -106h-656l22 106h45q64 0 102 20t38 63q0 17 -1 33t-3 30l-30 215h-483l-97 -179q-20 -36 -29 -63t-9 -48q0 -37 27 -54t85 -17h39 l-22 -106h-516zM493 588h401l-36 334q-4 43 -8.5 81.5t-8 74.5t-6 69.5t-3.5 69.5q-14 -36 -28.5 -66.5t-31 -62t-36.5 -67t-46 -81.5zM658 1672q0 64 32 102t87 38q47 0 78 -27t31 -83q0 -38 -11 -64.5t-27.5 -43t-37.5 -23.5t-43 -7q-49 0 -79 26.5t-30 81.5zM1073 1672 q0 64 32 102t87 38q48 0 78.5 -27t30.5 -83q0 -38 -11 -64.5t-27.5 -43t-37.5 -23.5t-43 -7q-49 0 -79 26.5t-30 81.5z" />
<glyph unicode="&#xc5;" horiz-adv-x="1495" d="M-97 0l21 106h42q27 0 48 6t40.5 23.5t40 47.5t48.5 77l674 1158h271l167 -1170q5 -31 13.5 -57t22 -45t34 -29.5t51.5 -10.5h36l-21 -106h-656l22 106h45q64 0 102 20t38 63q0 17 -1 33t-3 30l-30 215h-483l-97 -179q-20 -36 -29 -63t-9 -48q0 -37 27 -54t85 -17h39 l-22 -106h-516zM493 588h401l-36 334q-4 43 -8.5 81.5t-8 74.5t-6 69.5t-3.5 69.5q-14 -36 -28.5 -66.5t-31 -62t-36.5 -67t-46 -81.5zM703 1526q0 52 18.5 93t51 68t76 41t93.5 14q49 0 93 -14t76.5 -41t51 -68t18.5 -93q0 -53 -18.5 -93.5t-51 -68t-76.5 -41.5t-93 -14 q-50 0 -93.5 14t-76 41.5t-51 68t-18.5 93.5zM825 1526q0 -29 9 -49.5t25 -33.5t37.5 -19t45.5 -6q23 0 44.5 6t37.5 19t25.5 33.5t9.5 49.5t-9.5 49t-25.5 33t-37.5 19t-44.5 6q-24 0 -45.5 -6t-37.5 -19t-25 -33t-9 -49z" />
<glyph unicode="&#xc6;" horiz-adv-x="1972" d="M-87 0l21 106h24q26 0 50.5 9t49 28t51 48t56.5 69l781 1043l-129 10l21 105h1183l-70 -369h-141q1 6 2.5 23.5t3 36.5t3 35t1.5 20q0 27 -8 51.5t-24.5 43t-43 28.5t-65.5 10h-265l-104 -497h451l-27 -119h-451l-119 -560h314q47 0 83.5 13t64 35.5t46.5 52t30 62.5 l32 86h141l-91 -370h-1140l21 106h27q31 0 60.5 3.5t53.5 16.5t42 36t26 62l48 231h-453l-118 -167q-29 -42 -42 -74.5t-13 -48.5q0 -31 27 -45t79 -14h34l-23 -106h-500zM558 574h390l153 723h-20z" />
<glyph unicode="&#xc7;" horiz-adv-x="1326" d="M125 514q0 119 28 234.5t81.5 219.5t130.5 191t174.5 151t214 100t249.5 36q99 0 173 -17t123 -47.5t73.5 -74.5t24.5 -97q0 -44 -21.5 -77t-59 -56t-88.5 -34.5t-112 -11.5q0 42 -5.5 92.5t-23.5 94t-51 72.5t-88 29q-79 0 -145.5 -36t-121 -97.5t-97 -143t-71 -172 t-43.5 -185t-15 -183.5q0 -169 86.5 -262t256.5 -93q69 0 124.5 15.5t99 41.5t76.5 58t58 66q12 -9 23 -27.5t11 -40.5q0 -50 -30 -99.5t-88.5 -90t-145 -65t-198.5 -24.5q-143 0 -255 35t-189 103.5t-118 168t-41 226.5zM337 -451l27 117q34 -7 68 -11t61 -4q30 0 57 5.5 t46.5 18t31 31.5t11.5 46q0 19 -10 35t-27.5 28t-42 19t-51.5 9l80 174h113l-38 -85q40 -5 72.5 -19.5t56 -36.5t36 -49.5t12.5 -59.5q0 -64 -29.5 -110t-79 -76t-113 -44t-131.5 -14q-31 0 -73.5 7t-76.5 19z" />
<glyph unicode="&#xc8;" horiz-adv-x="1257" d="M-46 0l22 106h26q31 0 60.5 3.5t54 16.5t42.5 36t25 62l207 976q4 11 6.5 24.5t2.5 20.5q0 22 -11 35.5t-30 21t-45.5 9.5t-57.5 2h-25l21 105h1079l-70 -369h-141q1 6 2.5 23.5t3 36.5t3 35t1.5 20q0 27 -7.5 51.5t-24 43t-43.5 28.5t-66 10h-263l-106 -497h451 l-26 -119h-451l-120 -560h315q46 0 83 13t64 35.5t46 52t31 62.5l32 86h141l-92 -370h-1140zM521 1830l6 20h292q11 -36 30 -77.5t39.5 -81.5t41.5 -75t37 -58l-6 -26h-117q-43 25 -91 64t-92.5 81t-82 82.5t-57.5 70.5z" />
<glyph unicode="&#xc9;" horiz-adv-x="1257" d="M-46 0l22 106h26q31 0 60.5 3.5t54 16.5t42.5 36t25 62l207 976q4 11 6.5 24.5t2.5 20.5q0 22 -11 35.5t-30 21t-45.5 9.5t-57.5 2h-25l21 105h1079l-70 -369h-141q1 6 2.5 23.5t3 36.5t3 35t1.5 20q0 27 -7.5 51.5t-24 43t-43.5 28.5t-66 10h-263l-106 -497h451 l-26 -119h-451l-120 -560h315q46 0 83 13t64 35.5t46 52t31 62.5l32 86h141l-92 -370h-1140zM720 1532l6 26q27 28 59 65t63.5 76t61 78t53.5 73h311l-6 -20q-15 -18 -42.5 -41.5t-62 -51t-73.5 -56t-80 -55.5t-80.5 -52t-74.5 -42h-135z" />
<glyph unicode="&#xca;" horiz-adv-x="1257" d="M-46 0l22 106h26q31 0 60.5 3.5t54 16.5t42.5 36t25 62l207 976q4 11 6.5 24.5t2.5 20.5q0 22 -11 35.5t-30 21t-45.5 9.5t-57.5 2h-25l21 105h1079l-70 -369h-141q1 6 2.5 23.5t3 36.5t3 35t1.5 20q0 27 -7.5 51.5t-24 43t-43.5 28.5t-66 10h-263l-106 -497h451 l-26 -119h-451l-120 -560h315q46 0 83 13t64 35.5t46 52t31 62.5l32 86h141l-92 -370h-1140zM534 1532l6 26q29 28 66 64.5t76 75t75.5 78t64.5 74.5h268q13 -31 32.5 -70t41 -78.5t43 -77.5t38.5 -66l-6 -26h-125q-17 16 -40.5 38.5t-47.5 46.5t-48 48.5t-41 44.5 q-26 -20 -59 -44.5t-67 -48.5t-66 -46.5t-56 -38.5h-155z" />
<glyph unicode="&#xcb;" horiz-adv-x="1257" d="M-46 0l22 106h26q31 0 60.5 3.5t54 16.5t42.5 36t25 62l207 976q4 11 6.5 24.5t2.5 20.5q0 22 -11 35.5t-30 21t-45.5 9.5t-57.5 2h-25l21 105h1079l-70 -369h-141q1 6 2.5 23.5t3 36.5t3 35t1.5 20q0 27 -7.5 51.5t-24 43t-43.5 28.5t-66 10h-263l-106 -497h451 l-26 -119h-451l-120 -560h315q46 0 83 13t64 35.5t46 52t31 62.5l32 86h141l-92 -370h-1140zM559 1672q0 64 32 102t87 38q47 0 78 -27t31 -83q0 -38 -11 -64.5t-27.5 -43t-37.5 -23.5t-43 -7q-49 0 -79 26.5t-30 81.5zM974 1672q0 64 32 102t87 38q48 0 78.5 -27t30.5 -83 q0 -38 -11 -64.5t-27.5 -43t-37.5 -23.5t-43 -7q-49 0 -79 26.5t-30 81.5z" />
<glyph unicode="&#xcc;" horiz-adv-x="796" d="M-46 0l22 106h26q31 0 60.5 3.5t54 16.5t42.5 36t25 62l207 976q4 11 6.5 24.5t2.5 20.5q0 22 -11 35.5t-30 21t-45.5 9.5t-57.5 2h-25l21 105h686l-22 -105h-26q-33 0 -63.5 -4t-55.5 -17t-43.5 -37t-26.5 -63l-204 -974q-2 -10 -5 -24t-3 -21q0 -22 10.5 -35t30 -20 t46 -9.5t57.5 -2.5h27l-23 -106h-683zM287 1830l6 20h292q11 -36 30 -77.5t39.5 -81.5t41.5 -75t37 -58l-6 -26h-117q-43 25 -91 64t-92.5 81t-82 82.5t-57.5 70.5z" />
<glyph unicode="&#xcd;" horiz-adv-x="796" d="M-46 0l22 106h26q31 0 60.5 3.5t54 16.5t42.5 36t25 62l207 976q4 11 6.5 24.5t2.5 20.5q0 22 -11 35.5t-30 21t-45.5 9.5t-57.5 2h-25l21 105h686l-22 -105h-26q-33 0 -63.5 -4t-55.5 -17t-43.5 -37t-26.5 -63l-204 -974q-2 -10 -5 -24t-3 -21q0 -22 10.5 -35t30 -20 t46 -9.5t57.5 -2.5h27l-23 -106h-683zM480 1532l6 26q27 28 59 65t63.5 76t61 78t53.5 73h311l-6 -20q-15 -18 -42.5 -41.5t-62 -51t-73.5 -56t-80 -55.5t-80.5 -52t-74.5 -42h-135z" />
<glyph unicode="&#xce;" horiz-adv-x="796" d="M-46 0l22 106h26q31 0 60.5 3.5t54 16.5t42.5 36t25 62l207 976q4 11 6.5 24.5t2.5 20.5q0 22 -11 35.5t-30 21t-45.5 9.5t-57.5 2h-25l21 105h686l-22 -105h-26q-33 0 -63.5 -4t-55.5 -17t-43.5 -37t-26.5 -63l-204 -974q-2 -10 -5 -24t-3 -21q0 -22 10.5 -35t30 -20 t46 -9.5t57.5 -2.5h27l-23 -106h-683zM258 1532l6 26q29 28 66 64.5t76 75t75.5 78t64.5 74.5h268q13 -31 32.5 -70t41 -78.5t43 -77.5t38.5 -66l-6 -26h-125q-17 16 -40.5 38.5t-47.5 46.5t-48 48.5t-41 44.5q-26 -20 -59 -44.5t-67 -48.5t-66 -46.5t-56 -38.5h-155z" />
<glyph unicode="&#xcf;" horiz-adv-x="796" d="M-46 0l22 106h26q31 0 60.5 3.5t54 16.5t42.5 36t25 62l207 976q4 11 6.5 24.5t2.5 20.5q0 22 -11 35.5t-30 21t-45.5 9.5t-57.5 2h-25l21 105h686l-22 -105h-26q-33 0 -63.5 -4t-55.5 -17t-43.5 -37t-26.5 -63l-204 -974q-2 -10 -5 -24t-3 -21q0 -22 10.5 -35t30 -20 t46 -9.5t57.5 -2.5h27l-23 -106h-683zM312 1672q0 64 32 102t87 38q47 0 78 -27t31 -83q0 -38 -11 -64.5t-27.5 -43t-37.5 -23.5t-43 -7q-49 0 -79 26.5t-30 81.5zM727 1672q0 64 32 102t87 38q48 0 78.5 -27t30.5 -83q0 -38 -11 -64.5t-27.5 -43t-37.5 -23.5t-43 -7 q-49 0 -79 26.5t-30 81.5z" />
<glyph unicode="&#xd0;" horiz-adv-x="1525" d="M-48 0l22 106h28q31 0 60.5 3.5t54 16.5t42.5 36t25 62l96 457h-163l26 121h163l85 398q3 11 5.5 24.5t2.5 20.5q0 22 -11 35.5t-29.5 21t-45 9.5t-57.5 2h-26l22 105h636q142 0 253.5 -35t189 -103t118.5 -169t41 -233q0 -118 -25 -229.5t-73 -209t-118.5 -178.5 t-163.5 -139t-208 -90t-250 -32h-700zM476 123h90q140 0 249.5 57t185.5 159t115.5 244t39.5 311q0 104 -24 180t-69.5 125.5t-110 73.5t-144.5 24h-83l-105 -495h250l-26 -121h-250z" />
<glyph unicode="&#xd1;" horiz-adv-x="1565" d="M-46 0l22 106h26q31 0 60.5 3.5t54 16.5t42.5 36t25 62l203 954q13 51 13 67q0 22 -11 35.5t-30 21t-45.5 9.5t-57.5 2h-25l21 105h442l484 -1018l166 784q11 46 11 61q0 22 -11 35.5t-30.5 21t-46 9.5t-57.5 2h-6l22 105h501l-23 -105h-25q-31 0 -60.5 -4t-54 -17 t-42.5 -36t-26 -62l-252 -1194h-183l-538 1124l-187 -889q-5 -23 -7.5 -39t-2.5 -23q0 -22 10.5 -35t30 -20t46 -9.5t57.5 -2.5h7l-22 -106h-501zM646 1552q9 45 32 97t57.5 95.5t80 72.5t98.5 29q52 0 93.5 -19.5t76 -43t65 -43t61.5 -19.5q25 0 43.5 8.5t31.5 23 t21.5 33.5t12.5 40h120q-11 -48 -33 -100t-54.5 -95t-75.5 -71t-96 -28q-54 0 -96.5 19.5t-78.5 43t-67.5 43t-63.5 19.5q-20 0 -38.5 -9t-33 -23.5t-24.5 -33t-13 -39.5h-119z" />
<glyph unicode="&#xd2;" horiz-adv-x="1573" d="M125 529q0 95 24 199.5t71.5 206t118 193t164.5 161t211 110.5t257 41q110 0 209 -32t175 -98.5t120.5 -169.5t44.5 -246q0 -91 -23 -194.5t-69 -205.5t-115 -195t-163 -164.5t-211.5 -114t-259.5 -42.5q-117 0 -218.5 35t-176 105t-117 173t-42.5 238zM449 481 q0 -98 21 -168.5t57.5 -115.5t86 -66t105.5 -21q82 0 149.5 39.5t121 106t92.5 152.5t65 178t38.5 183.5t12.5 170.5q0 97 -20.5 167t-56 115.5t-85 67t-107.5 21.5q-82 0 -149.5 -39.5t-121 -106t-93 -152.5t-65.5 -178.5t-38.5 -184t-12.5 -169.5zM630 1830l6 20h292 q11 -36 30 -77.5t39.5 -81.5t41.5 -75t37 -58l-6 -26h-117q-43 25 -91 64t-92.5 81t-82 82.5t-57.5 70.5z" />
<glyph unicode="&#xd3;" horiz-adv-x="1573" d="M125 529q0 95 24 199.5t71.5 206t118 193t164.5 161t211 110.5t257 41q110 0 209 -32t175 -98.5t120.5 -169.5t44.5 -246q0 -91 -23 -194.5t-69 -205.5t-115 -195t-163 -164.5t-211.5 -114t-259.5 -42.5q-117 0 -218.5 35t-176 105t-117 173t-42.5 238zM449 481 q0 -98 21 -168.5t57.5 -115.5t86 -66t105.5 -21q82 0 149.5 39.5t121 106t92.5 152.5t65 178t38.5 183.5t12.5 170.5q0 97 -20.5 167t-56 115.5t-85 67t-107.5 21.5q-82 0 -149.5 -39.5t-121 -106t-93 -152.5t-65.5 -178.5t-38.5 -184t-12.5 -169.5zM849 1532l6 26 q27 28 59 65t63.5 76t61 78t53.5 73h311l-6 -20q-15 -18 -42.5 -41.5t-62 -51t-73.5 -56t-80 -55.5t-80.5 -52t-74.5 -42h-135z" />
<glyph unicode="&#xd4;" horiz-adv-x="1573" d="M125 529q0 95 24 199.5t71.5 206t118 193t164.5 161t211 110.5t257 41q110 0 209 -32t175 -98.5t120.5 -169.5t44.5 -246q0 -91 -23 -194.5t-69 -205.5t-115 -195t-163 -164.5t-211.5 -114t-259.5 -42.5q-117 0 -218.5 35t-176 105t-117 173t-42.5 238zM449 481 q0 -98 21 -168.5t57.5 -115.5t86 -66t105.5 -21q82 0 149.5 39.5t121 106t92.5 152.5t65 178t38.5 183.5t12.5 170.5q0 97 -20.5 167t-56 115.5t-85 67t-107.5 21.5q-82 0 -149.5 -39.5t-121 -106t-93 -152.5t-65.5 -178.5t-38.5 -184t-12.5 -169.5zM626 1532l6 26 q29 28 66 64.5t76 75t75.5 78t64.5 74.5h268q13 -31 32.5 -70t41 -78.5t43 -77.5t38.5 -66l-6 -26h-125q-17 16 -40.5 38.5t-47.5 46.5t-48 48.5t-41 44.5q-26 -20 -59 -44.5t-67 -48.5t-66 -46.5t-56 -38.5h-155z" />
<glyph unicode="&#xd5;" horiz-adv-x="1573" d="M125 529q0 95 24 199.5t71.5 206t118 193t164.5 161t211 110.5t257 41q110 0 209 -32t175 -98.5t120.5 -169.5t44.5 -246q0 -91 -23 -194.5t-69 -205.5t-115 -195t-163 -164.5t-211.5 -114t-259.5 -42.5q-117 0 -218.5 35t-176 105t-117 173t-42.5 238zM449 481 q0 -98 21 -168.5t57.5 -115.5t86 -66t105.5 -21q82 0 149.5 39.5t121 106t92.5 152.5t65 178t38.5 183.5t12.5 170.5q0 97 -20.5 167t-56 115.5t-85 67t-107.5 21.5q-82 0 -149.5 -39.5t-121 -106t-93 -152.5t-65.5 -178.5t-38.5 -184t-12.5 -169.5zM585 1552q9 45 32 97 t57.5 95.5t80 72.5t98.5 29q52 0 93.5 -19.5t76 -43t65 -43t61.5 -19.5q25 0 43.5 8.5t31.5 23t21.5 33.5t12.5 40h120q-11 -48 -33 -100t-54.5 -95t-75.5 -71t-96 -28q-54 0 -96.5 19.5t-78.5 43t-67.5 43t-63.5 19.5q-20 0 -38.5 -9t-33 -23.5t-24.5 -33t-13 -39.5h-119z " />
<glyph unicode="&#xd6;" horiz-adv-x="1573" d="M125 529q0 95 24 199.5t71.5 206t118 193t164.5 161t211 110.5t257 41q110 0 209 -32t175 -98.5t120.5 -169.5t44.5 -246q0 -91 -23 -194.5t-69 -205.5t-115 -195t-163 -164.5t-211.5 -114t-259.5 -42.5q-117 0 -218.5 35t-176 105t-117 173t-42.5 238zM449 481 q0 -98 21 -168.5t57.5 -115.5t86 -66t105.5 -21q82 0 149.5 39.5t121 106t92.5 152.5t65 178t38.5 183.5t12.5 170.5q0 97 -20.5 167t-56 115.5t-85 67t-107.5 21.5q-82 0 -149.5 -39.5t-121 -106t-93 -152.5t-65.5 -178.5t-38.5 -184t-12.5 -169.5zM686 1672q0 64 32 102 t87 38q47 0 78 -27t31 -83q0 -38 -11 -64.5t-27.5 -43t-37.5 -23.5t-43 -7q-49 0 -79 26.5t-30 81.5zM1101 1672q0 64 32 102t87 38q48 0 78.5 -27t30.5 -83q0 -38 -11 -64.5t-27.5 -43t-37.5 -23.5t-43 -7q-49 0 -79 26.5t-30 81.5z" />
<glyph unicode="&#xd7;" d="M193 419l292 294l-292 292l101 100l292 -292l292 294l102 -102l-294 -294l294 -294l-100 -99l-294 294l-292 -294z" />
<glyph unicode="&#xd8;" horiz-adv-x="1573" d="M125 529q0 95 24 199.5t71.5 206t118 193t164.5 161t211 110.5t257 41q157 0 286 -66l94 126h139l-141 -187q78 -67 124.5 -170.5t46.5 -248.5q0 -91 -23 -194.5t-69 -205.5t-115 -195t-163 -164.5t-211.5 -114t-259.5 -42.5q-79 0 -149.5 16.5t-133.5 47.5l-90 -122 h-141l139 181q-84 71 -131.5 177t-47.5 251zM449 481q0 -93 18 -161l665 888q-36 52 -88 77.5t-115 25.5q-82 0 -149.5 -39.5t-121 -106t-93 -152.5t-65.5 -178.5t-38.5 -184t-12.5 -169.5zM521 207q36 -52 87 -74.5t111 -22.5q82 0 149.5 39.5t121 106t92.5 152.5t65 178 t38.5 183.5t12.5 170.5q0 42 -4 79.5t-12 68.5z" />
<glyph unicode="&#xd9;" horiz-adv-x="1484" d="M197 324q0 16 2 39t5 48t6.5 48.5t7.5 41.5l146 677q11 53 11 67q0 22 -10.5 35.5t-29.5 21t-45 9.5t-57 2h-26l22 105h687l-22 -105h-26q-33 0 -63.5 -4t-55.5 -16.5t-43 -35.5t-27 -61l-150 -699q-4 -18 -8.5 -39.5t-8 -44t-6 -46t-2.5 -43.5q0 -100 62.5 -151.5 t182.5 -51.5q90 0 152 26.5t104 72.5t67 109.5t41 139.5l153 717q3 17 5.5 34.5t2.5 24.5q0 22 -11 35.5t-30 21t-45.5 9.5t-57.5 2h-25l21 105h523l-22 -105h-26q-32 0 -62 -4t-55 -17t-43 -37t-27 -63l-159 -755q-23 -111 -69 -196.5t-117.5 -143t-168.5 -87t-223 -29.5 q-116 0 -205.5 22.5t-150.5 66.5t-92.5 108t-31.5 146zM661 1830l6 20h292q11 -36 30 -77.5t39.5 -81.5t41.5 -75t37 -58l-6 -26h-117q-43 25 -91 64t-92.5 81t-82 82.5t-57.5 70.5z" />
<glyph unicode="&#xda;" horiz-adv-x="1484" d="M197 324q0 16 2 39t5 48t6.5 48.5t7.5 41.5l146 677q11 53 11 67q0 22 -10.5 35.5t-29.5 21t-45 9.5t-57 2h-26l22 105h687l-22 -105h-26q-33 0 -63.5 -4t-55.5 -16.5t-43 -35.5t-27 -61l-150 -699q-4 -18 -8.5 -39.5t-8 -44t-6 -46t-2.5 -43.5q0 -100 62.5 -151.5 t182.5 -51.5q90 0 152 26.5t104 72.5t67 109.5t41 139.5l153 717q3 17 5.5 34.5t2.5 24.5q0 22 -11 35.5t-30 21t-45.5 9.5t-57.5 2h-25l21 105h523l-22 -105h-26q-32 0 -62 -4t-55 -17t-43 -37t-27 -63l-159 -755q-23 -111 -69 -196.5t-117.5 -143t-168.5 -87t-223 -29.5 q-116 0 -205.5 22.5t-150.5 66.5t-92.5 108t-31.5 146zM881 1532l6 26q27 28 59 65t63.5 76t61 78t53.5 73h311l-6 -20q-15 -18 -42.5 -41.5t-62 -51t-73.5 -56t-80 -55.5t-80.5 -52t-74.5 -42h-135z" />
<glyph unicode="&#xdb;" horiz-adv-x="1484" d="M197 324q0 16 2 39t5 48t6.5 48.5t7.5 41.5l146 677q11 53 11 67q0 22 -10.5 35.5t-29.5 21t-45 9.5t-57 2h-26l22 105h687l-22 -105h-26q-33 0 -63.5 -4t-55.5 -16.5t-43 -35.5t-27 -61l-150 -699q-4 -18 -8.5 -39.5t-8 -44t-6 -46t-2.5 -43.5q0 -100 62.5 -151.5 t182.5 -51.5q90 0 152 26.5t104 72.5t67 109.5t41 139.5l153 717q3 17 5.5 34.5t2.5 24.5q0 22 -11 35.5t-30 21t-45.5 9.5t-57.5 2h-25l21 105h523l-22 -105h-26q-32 0 -62 -4t-55 -17t-43 -37t-27 -63l-159 -755q-23 -111 -69 -196.5t-117.5 -143t-168.5 -87t-223 -29.5 q-116 0 -205.5 22.5t-150.5 66.5t-92.5 108t-31.5 146zM670 1532l6 26q29 28 66 64.5t76 75t75.5 78t64.5 74.5h268q13 -31 32.5 -70t41 -78.5t43 -77.5t38.5 -66l-6 -26h-125q-17 16 -40.5 38.5t-47.5 46.5t-48 48.5t-41 44.5q-26 -20 -59 -44.5t-67 -48.5t-66 -46.5 t-56 -38.5h-155z" />
<glyph unicode="&#xdc;" horiz-adv-x="1484" d="M197 324q0 16 2 39t5 48t6.5 48.5t7.5 41.5l146 677q11 53 11 67q0 22 -10.5 35.5t-29.5 21t-45 9.5t-57 2h-26l22 105h687l-22 -105h-26q-33 0 -63.5 -4t-55.5 -16.5t-43 -35.5t-27 -61l-150 -699q-4 -18 -8.5 -39.5t-8 -44t-6 -46t-2.5 -43.5q0 -100 62.5 -151.5 t182.5 -51.5q90 0 152 26.5t104 72.5t67 109.5t41 139.5l153 717q3 17 5.5 34.5t2.5 24.5q0 22 -11 35.5t-30 21t-45.5 9.5t-57.5 2h-25l21 105h523l-22 -105h-26q-32 0 -62 -4t-55 -17t-43 -37t-27 -63l-159 -755q-23 -111 -69 -196.5t-117.5 -143t-168.5 -87t-223 -29.5 q-116 0 -205.5 22.5t-150.5 66.5t-92.5 108t-31.5 146zM700 1672q0 64 32 102t87 38q47 0 78 -27t31 -83q0 -38 -11 -64.5t-27.5 -43t-37.5 -23.5t-43 -7q-49 0 -79 26.5t-30 81.5zM1115 1672q0 64 32 102t87 38q48 0 78.5 -27t30.5 -83q0 -38 -11 -64.5t-27.5 -43 t-37.5 -23.5t-43 -7q-49 0 -79 26.5t-30 81.5z" />
<glyph unicode="&#xdd;" horiz-adv-x="1376" d="M175 1313l22 105h645l-21 -105h-90q-45 0 -64 -15.5t-19 -42.5q0 -17 6 -50t17 -79l72 -280q7 -29 14.5 -62t14 -66t11 -64.5t6.5 -55.5q18 39 56 100.5t89 133.5l196 281q24 34 42 73.5t18 72.5q0 27 -27.5 40.5t-93.5 13.5h-42l24 105h520l-22 -105h-37q-22 0 -41 -5.5 t-38.5 -20.5t-41 -40t-49.5 -63l-491 -683l-60 -283q-2 -10 -5 -24t-3 -21q0 -22 10.5 -35t30 -20t46 -9.5t57.5 -2.5h49l-22 -106h-734l22 106h54q31 0 60 4t53.5 17.5t42 36.5t25.5 62l57 276l-214 706q-9 29 -18 49t-21.5 32.5t-31.5 18t-48 5.5h-26zM801 1532l6 26 q27 28 59 65t63.5 76t61 78t53.5 73h311l-6 -20q-15 -18 -42.5 -41.5t-62 -51t-73.5 -56t-80 -55.5t-80.5 -52t-74.5 -42h-135z" />
<glyph unicode="&#xde;" horiz-adv-x="1267" d="M-46 0l22 106h26q31 0 60.5 3.5t54 16.5t42.5 36t25 62l207 976q4 11 6.5 24.5t2.5 20.5q0 22 -11 35.5t-30 21t-45.5 9.5t-57.5 2h-25l21 105h686l-22 -105h-26q-33 0 -63.5 -4t-55.5 -17t-43.5 -37t-26.5 -63l-6 -30h65q118 0 211.5 -24.5t159.5 -73.5t101.5 -121.5 t35.5 -167.5q0 -50 -10 -106.5t-34.5 -111t-68 -103.5t-111 -86t-162.5 -59.5t-222 -22.5h-150l-13 -68q-2 -10 -5 -24t-3 -21q0 -22 10.5 -35t30 -20t46 -9.5t57.5 -2.5h27l-23 -106h-683zM534 402h82q90 0 152.5 27t101.5 75.5t56.5 116.5t17.5 148q0 74 -17 126.5 t-47.5 86t-73 48.5t-91.5 15h-44z" />
<glyph unicode="&#xdf;" horiz-adv-x="1380" d="M-290 -457l28 110q17 -5 39.5 -9t53.5 -4q44 0 79 19t63.5 60t51.5 106t45 158l201 946h-161l25 136h165l16 61q26 113 79 190t127 125t165 69.5t195 21.5q107 0 187.5 -22.5t134.5 -63t80.5 -97.5t26.5 -127q0 -25 -3 -56.5t-8 -64.5t-11.5 -65.5t-12.5 -59.5h-114 q-59 0 -101.5 -11.5t-70.5 -32.5t-41 -50t-13 -65q0 -28 8.5 -51.5t27.5 -46t52.5 -46t84.5 -53.5q96 -55 137 -125.5t41 -166.5q0 -79 -31.5 -143t-89 -109.5t-138.5 -70t-180 -24.5q-75 0 -136 14.5t-104.5 42.5t-67.5 68t-24 91q0 39 14.5 69.5t41.5 51.5t64.5 31.5 t84.5 10.5q0 -47 7.5 -92.5t25.5 -82.5t46.5 -59.5t69.5 -22.5q66 0 100.5 43.5t34.5 115.5q0 31 -6 58.5t-22.5 54t-46 51.5t-75.5 53q-94 54 -145.5 127.5t-51.5 170.5q0 80 30.5 138t80.5 95.5t113 55t129 17.5q9 45 14.5 82.5t5.5 70.5q0 81 -39.5 130.5t-123.5 49.5 q-53 0 -94.5 -19t-72 -54t-51 -86t-32.5 -116l-248 -1157q-20 -91 -53.5 -160.5t-75.5 -121t-91.5 -86t-102 -55.5t-106.5 -29.5t-104 -8.5q-39 0 -73.5 6t-53.5 14z" />
<glyph unicode="&#xe0;" horiz-adv-x="1321" d="M80 343q0 78 17.5 163t53.5 167.5t89 157t122.5 131t154.5 89.5t186 33q39 0 79.5 -6t77 -16t69 -22t55.5 -24l104 47h106l-131 -620q-4 -16 -9.5 -43.5t-11 -58t-9.5 -59t-4 -47.5q0 -50 19.5 -74t50.5 -24q28 0 54 12t57 29l43 -79q-25 -19 -57 -40t-71.5 -38.5 t-85.5 -28.5t-99 -11q-88 0 -141.5 40t-53.5 118q0 31 3 60.5t11 68.5h-14q-37 -69 -73.5 -123t-81 -90.5t-99.5 -55t-127 -18.5q-71 0 -124.5 27.5t-89 76t-53 115t-17.5 143.5zM381 341q0 -57 8.5 -95.5t22.5 -62.5t34 -34t43 -10q44 0 90.5 37.5t87 99.5t73 139.5 t49.5 156.5l69 330q-19 28 -53.5 41.5t-73.5 13.5q-58 0 -106 -30t-86.5 -80.5t-68.5 -114.5t-49.5 -132.5t-29.5 -135.5t-10 -123zM412 1502l6 20h292q11 -36 30 -77.5t39.5 -81.5t41.5 -75t37 -58l-6 -26h-117q-43 25 -91 64t-92.5 81t-82 82.5t-57.5 70.5z" />
<glyph unicode="&#xe1;" horiz-adv-x="1321" d="M80 343q0 78 17.5 163t53.5 167.5t89 157t122.5 131t154.5 89.5t186 33q39 0 79.5 -6t77 -16t69 -22t55.5 -24l104 47h106l-131 -620q-4 -16 -9.5 -43.5t-11 -58t-9.5 -59t-4 -47.5q0 -50 19.5 -74t50.5 -24q28 0 54 12t57 29l43 -79q-25 -19 -57 -40t-71.5 -38.5 t-85.5 -28.5t-99 -11q-88 0 -141.5 40t-53.5 118q0 31 3 60.5t11 68.5h-14q-37 -69 -73.5 -123t-81 -90.5t-99.5 -55t-127 -18.5q-71 0 -124.5 27.5t-89 76t-53 115t-17.5 143.5zM381 341q0 -57 8.5 -95.5t22.5 -62.5t34 -34t43 -10q44 0 90.5 37.5t87 99.5t73 139.5 t49.5 156.5l69 330q-19 28 -53.5 41.5t-73.5 13.5q-58 0 -106 -30t-86.5 -80.5t-68.5 -114.5t-49.5 -132.5t-29.5 -135.5t-10 -123zM612 1204l6 26q27 28 59 65t63.5 76t61 78t53.5 73h311l-6 -20q-15 -18 -42.5 -41.5t-62 -51t-73.5 -56t-80 -55.5t-80.5 -52t-74.5 -42 h-135z" />
<glyph unicode="&#xe2;" horiz-adv-x="1321" d="M80 343q0 78 17.5 163t53.5 167.5t89 157t122.5 131t154.5 89.5t186 33q39 0 79.5 -6t77 -16t69 -22t55.5 -24l104 47h106l-131 -620q-4 -16 -9.5 -43.5t-11 -58t-9.5 -59t-4 -47.5q0 -50 19.5 -74t50.5 -24q28 0 54 12t57 29l43 -79q-25 -19 -57 -40t-71.5 -38.5 t-85.5 -28.5t-99 -11q-88 0 -141.5 40t-53.5 118q0 31 3 60.5t11 68.5h-14q-37 -69 -73.5 -123t-81 -90.5t-99.5 -55t-127 -18.5q-71 0 -124.5 27.5t-89 76t-53 115t-17.5 143.5zM371 1204l6 26q29 28 66 64.5t76 75t75.5 78t64.5 74.5h268q13 -31 32.5 -70t41 -78.5 t43 -77.5t38.5 -66l-6 -26h-125q-17 16 -40.5 38.5t-47.5 46.5t-48 48.5t-41 44.5q-26 -20 -59 -44.5t-67 -48.5t-66 -46.5t-56 -38.5h-155zM381 341q0 -57 8.5 -95.5t22.5 -62.5t34 -34t43 -10q44 0 90.5 37.5t87 99.5t73 139.5t49.5 156.5l69 330q-19 28 -53.5 41.5 t-73.5 13.5q-58 0 -106 -30t-86.5 -80.5t-68.5 -114.5t-49.5 -132.5t-29.5 -135.5t-10 -123z" />
<glyph unicode="&#xe3;" horiz-adv-x="1321" d="M80 343q0 78 17.5 163t53.5 167.5t89 157t122.5 131t154.5 89.5t186 33q39 0 79.5 -6t77 -16t69 -22t55.5 -24l104 47h106l-131 -620q-4 -16 -9.5 -43.5t-11 -58t-9.5 -59t-4 -47.5q0 -50 19.5 -74t50.5 -24q28 0 54 12t57 29l43 -79q-25 -19 -57 -40t-71.5 -38.5 t-85.5 -28.5t-99 -11q-88 0 -141.5 40t-53.5 118q0 31 3 60.5t11 68.5h-14q-37 -69 -73.5 -123t-81 -90.5t-99.5 -55t-127 -18.5q-71 0 -124.5 27.5t-89 76t-53 115t-17.5 143.5zM381 341q0 -57 8.5 -95.5t22.5 -62.5t34 -34t43 -10q44 0 90.5 37.5t87 99.5t73 139.5 t49.5 156.5l69 330q-19 28 -53.5 41.5t-73.5 13.5q-58 0 -106 -30t-86.5 -80.5t-68.5 -114.5t-49.5 -132.5t-29.5 -135.5t-10 -123zM386 1224q9 45 32 97t57.5 95.5t80 72.5t98.5 29q52 0 93.5 -19.5t76 -43t65 -43t61.5 -19.5q25 0 43.5 8.5t31.5 23t21.5 33.5t12.5 40h120 q-11 -48 -33 -100t-54.5 -95t-75.5 -71t-96 -28q-54 0 -96.5 19.5t-78.5 43t-67.5 43t-63.5 19.5q-20 0 -38.5 -9t-33 -23.5t-24.5 -33t-13 -39.5h-119z" />
<glyph unicode="&#xe4;" horiz-adv-x="1321" d="M80 343q0 78 17.5 163t53.5 167.5t89 157t122.5 131t154.5 89.5t186 33q39 0 79.5 -6t77 -16t69 -22t55.5 -24l104 47h106l-131 -620q-4 -16 -9.5 -43.5t-11 -58t-9.5 -59t-4 -47.5q0 -50 19.5 -74t50.5 -24q28 0 54 12t57 29l43 -79q-25 -19 -57 -40t-71.5 -38.5 t-85.5 -28.5t-99 -11q-88 0 -141.5 40t-53.5 118q0 31 3 60.5t11 68.5h-14q-37 -69 -73.5 -123t-81 -90.5t-99.5 -55t-127 -18.5q-71 0 -124.5 27.5t-89 76t-53 115t-17.5 143.5zM381 341q0 -57 8.5 -95.5t22.5 -62.5t34 -34t43 -10q44 0 90.5 37.5t87 99.5t73 139.5 t49.5 156.5l69 330q-19 28 -53.5 41.5t-73.5 13.5q-58 0 -106 -30t-86.5 -80.5t-68.5 -114.5t-49.5 -132.5t-29.5 -135.5t-10 -123zM412 1344q0 64 32 102t87 38q47 0 78 -27t31 -83q0 -38 -11 -64.5t-27.5 -43t-37.5 -23.5t-43 -7q-49 0 -79 26.5t-30 81.5zM827 1344 q0 64 32 102t87 38q48 0 78.5 -27t30.5 -83q0 -38 -11 -64.5t-27.5 -43t-37.5 -23.5t-43 -7q-49 0 -79 26.5t-30 81.5z" />
<glyph unicode="&#xe5;" horiz-adv-x="1321" d="M80 343q0 78 17.5 163t53.5 167.5t89 157t122.5 131t154.5 89.5t186 33q39 0 79.5 -6t77 -16t69 -22t55.5 -24l104 47h106l-131 -620q-4 -16 -9.5 -43.5t-11 -58t-9.5 -59t-4 -47.5q0 -50 19.5 -74t50.5 -24q28 0 54 12t57 29l43 -79q-25 -19 -57 -40t-71.5 -38.5 t-85.5 -28.5t-99 -11q-88 0 -141.5 40t-53.5 118q0 31 3 60.5t11 68.5h-14q-37 -69 -73.5 -123t-81 -90.5t-99.5 -55t-127 -18.5q-71 0 -124.5 27.5t-89 76t-53 115t-17.5 143.5zM381 341q0 -57 8.5 -95.5t22.5 -62.5t34 -34t43 -10q44 0 90.5 37.5t87 99.5t73 139.5 t49.5 156.5l69 330q-19 28 -53.5 41.5t-73.5 13.5q-58 0 -106 -30t-86.5 -80.5t-68.5 -114.5t-49.5 -132.5t-29.5 -135.5t-10 -123zM540 1389q0 52 18.5 93t51 68t76 41t93.5 14q49 0 93 -14t76.5 -41t51 -68t18.5 -93q0 -53 -18.5 -93.5t-51 -68t-76.5 -41.5t-93 -14 q-50 0 -93.5 14t-76 41.5t-51 68t-18.5 93.5zM662 1389q0 -29 9 -49.5t25 -33.5t37.5 -19t45.5 -6q23 0 44.5 6t37.5 19t25.5 33.5t9.5 49.5t-9.5 49t-25.5 33t-37.5 19t-44.5 6q-24 0 -45.5 -6t-37.5 -19t-25 -33t-9 -49z" />
<glyph unicode="&#xe6;" horiz-adv-x="1747" d="M80 343q0 78 17.5 163t53.5 167.5t89 157t122.5 131t154.5 89.5t186 33q100 0 180.5 -30.5t149.5 -90.5q78 60 176.5 92.5t219.5 32.5q149 0 229 -61.5t80 -171.5q0 -81 -44.5 -155t-123 -131t-187 -90.5t-236.5 -33.5h-37t-37 2q-3 -19 -3.5 -39t-0.5 -36 q0 -116 54 -178.5t162 -62.5q49 0 92.5 14t80.5 37t67 51.5t50 58.5q12 -15 19 -37.5t7 -47.5q0 -36 -23 -76t-71 -73.5t-122.5 -55t-176.5 -21.5q-182 0 -291 72.5t-146 214.5h-18q-37 -69 -75 -123t-83.5 -90.5t-102 -55t-128.5 -18.5q-71 0 -124.5 27.5t-89 76t-53 115 t-17.5 143.5zM381 341q0 -57 8.5 -95.5t22.5 -62.5t34 -34t43 -10q36 0 74.5 27t75 72t68.5 105t55 126q10 51 23.5 104t32.5 103.5t43 98t55 87.5q-10 15 -29 31.5t-43.5 30.5t-53.5 23.5t-59 9.5q-58 0 -106 -30t-86.5 -80.5t-68.5 -114.5t-49.5 -132.5t-29.5 -135.5 t-10 -123zM1086 561h19q74 0 137.5 20t110 56.5t73 88t26.5 114.5q0 61 -25 95t-72 34q-32 0 -62.5 -17t-57.5 -46.5t-50.5 -69.5t-43 -85.5t-33.5 -94t-22 -95.5z" />
<glyph unicode="&#xe7;" horiz-adv-x="1048" d="M80 391q0 74 18 154t55 157t92 146.5t127.5 121.5t163 83t197.5 31q83 0 142.5 -16.5t98 -45.5t57 -67t18.5 -81q0 -31 -13.5 -60.5t-42.5 -53.5t-75 -38.5t-112 -14.5q0 53 -9 100t-27.5 82t-45.5 55.5t-62 20.5q-43 0 -80.5 -28.5t-68.5 -75.5t-54.5 -107.5t-40.5 -125 t-26 -127.5t-9 -114q0 -121 55.5 -188.5t163.5 -67.5q53 0 95 14t76 37.5t60 52.5t47 59q12 -12 21 -34.5t9 -52.5q0 -39 -23 -79.5t-71 -73t-121.5 -53t-175.5 -20.5q-90 0 -170 25t-140 76.5t-94.5 128t-34.5 180.5zM146 -451l27 117q34 -7 68 -11t61 -4q30 0 57 5.5 t46.5 18t31 31.5t11.5 46q0 19 -10 35t-27.5 28t-42 19t-51.5 9l80 174h113l-38 -85q40 -5 72.5 -19.5t56 -36.5t36 -49.5t12.5 -59.5q0 -64 -29.5 -110t-79 -76t-113 -44t-131.5 -14q-31 0 -73.5 7t-76.5 19z" />
<glyph unicode="&#xe8;" horiz-adv-x="1063" d="M80 391q0 74 19 154.5t57.5 157.5t95 146.5t131.5 121.5t167.5 82.5t202.5 30.5q142 0 220.5 -61.5t78.5 -171.5q0 -81 -44.5 -154.5t-123 -129.5t-187 -89t-236.5 -33h-36.5t-37.5 2q-3 -19 -3.5 -39t-0.5 -36q0 -116 54 -178.5t162 -62.5q49 0 92.5 14t81 37t67 51.5 t50.5 58.5q12 -15 19 -37.5t7 -47.5q0 -36 -23.5 -76t-71.5 -73.5t-122 -55t-176 -21.5q-91 0 -171.5 25t-141.5 76t-95.5 128t-34.5 181zM402 561h17q74 0 137.5 19t110.5 55.5t73.5 87t26.5 113.5q0 61 -25.5 95t-72.5 34q-48 0 -91.5 -36.5t-78.5 -94.5t-60.5 -130.5 t-36.5 -142.5zM416 1502l6 20h292q11 -36 30 -77.5t39.5 -81.5t41.5 -75t37 -58l-6 -26h-117q-43 25 -91 64t-92.5 81t-82 82.5t-57.5 70.5z" />
<glyph unicode="&#xe9;" horiz-adv-x="1063" d="M80 391q0 74 19 154.5t57.5 157.5t95 146.5t131.5 121.5t167.5 82.5t202.5 30.5q142 0 220.5 -61.5t78.5 -171.5q0 -81 -44.5 -154.5t-123 -129.5t-187 -89t-236.5 -33h-36.5t-37.5 2q-3 -19 -3.5 -39t-0.5 -36q0 -116 54 -178.5t162 -62.5q49 0 92.5 14t81 37t67 51.5 t50.5 58.5q12 -15 19 -37.5t7 -47.5q0 -36 -23.5 -76t-71.5 -73.5t-122 -55t-176 -21.5q-91 0 -171.5 25t-141.5 76t-95.5 128t-34.5 181zM402 561h17q74 0 137.5 19t110.5 55.5t73.5 87t26.5 113.5q0 61 -25.5 95t-72.5 34q-48 0 -91.5 -36.5t-78.5 -94.5t-60.5 -130.5 t-36.5 -142.5zM608 1204l6 26q27 28 59 65t63.5 76t61 78t53.5 73h311l-6 -20q-15 -18 -42.5 -41.5t-62 -51t-73.5 -56t-80 -55.5t-80.5 -52t-74.5 -42h-135z" />
<glyph unicode="&#xea;" horiz-adv-x="1063" d="M80 391q0 74 19 154.5t57.5 157.5t95 146.5t131.5 121.5t167.5 82.5t202.5 30.5q142 0 220.5 -61.5t78.5 -171.5q0 -81 -44.5 -154.5t-123 -129.5t-187 -89t-236.5 -33h-36.5t-37.5 2q-3 -19 -3.5 -39t-0.5 -36q0 -116 54 -178.5t162 -62.5q49 0 92.5 14t81 37t67 51.5 t50.5 58.5q12 -15 19 -37.5t7 -47.5q0 -36 -23.5 -76t-71.5 -73.5t-122 -55t-176 -21.5q-91 0 -171.5 25t-141.5 76t-95.5 128t-34.5 181zM354 1204l6 26q29 28 66 64.5t76 75t75.5 78t64.5 74.5h268q13 -31 32.5 -70t41 -78.5t43 -77.5t38.5 -66l-6 -26h-125 q-17 16 -40.5 38.5t-47.5 46.5t-48 48.5t-41 44.5q-26 -20 -59 -44.5t-67 -48.5t-66 -46.5t-56 -38.5h-155zM402 561h17q74 0 137.5 19t110.5 55.5t73.5 87t26.5 113.5q0 61 -25.5 95t-72.5 34q-48 0 -91.5 -36.5t-78.5 -94.5t-60.5 -130.5t-36.5 -142.5z" />
<glyph unicode="&#xeb;" horiz-adv-x="1063" d="M80 391q0 74 19 154.5t57.5 157.5t95 146.5t131.5 121.5t167.5 82.5t202.5 30.5q142 0 220.5 -61.5t78.5 -171.5q0 -81 -44.5 -154.5t-123 -129.5t-187 -89t-236.5 -33h-36.5t-37.5 2q-3 -19 -3.5 -39t-0.5 -36q0 -116 54 -178.5t162 -62.5q49 0 92.5 14t81 37t67 51.5 t50.5 58.5q12 -15 19 -37.5t7 -47.5q0 -36 -23.5 -76t-71.5 -73.5t-122 -55t-176 -21.5q-91 0 -171.5 25t-141.5 76t-95.5 128t-34.5 181zM387 1344q0 64 32 102t87 38q47 0 78 -27t31 -83q0 -38 -11 -64.5t-27.5 -43t-37.5 -23.5t-43 -7q-49 0 -79 26.5t-30 81.5zM402 561 h17q74 0 137.5 19t110.5 55.5t73.5 87t26.5 113.5q0 61 -25.5 95t-72.5 34q-48 0 -91.5 -36.5t-78.5 -94.5t-60.5 -130.5t-36.5 -142.5zM802 1344q0 64 32 102t87 38q48 0 78.5 -27t30.5 -83q0 -38 -11 -64.5t-27.5 -43t-37.5 -23.5t-43 -7q-49 0 -79 26.5t-30 81.5z" />
<glyph unicode="&#xec;" horiz-adv-x="703" d="M113 959l18 106h471l-137 -646q-12 -54 -20 -101t-8 -89q0 -44 18 -67t51 -23q31 0 57.5 11.5t60.5 33.5l47 -67q-23 -25 -53 -49.5t-68 -44t-83 -31t-99 -11.5q-115 0 -176 53.5t-61 149.5q0 43 7.5 102t24.5 135l78 370q2 12 4.5 25.5t4.5 26t3 21t1 12.5q0 27 -6 43.5 t-18.5 25.5t-32 11.5t-48.5 2.5h-36zM120 1502l6 20h292q11 -36 30 -77.5t39.5 -81.5t41.5 -75t37 -58l-6 -26h-117q-43 25 -91 64t-92.5 81t-82 82.5t-57.5 70.5z" />
<glyph unicode="&#xed;" horiz-adv-x="703" d="M113 959l18 106h471l-137 -646q-12 -54 -20 -101t-8 -89q0 -44 18 -67t51 -23q31 0 57.5 11.5t60.5 33.5l47 -67q-23 -25 -53 -49.5t-68 -44t-83 -31t-99 -11.5q-115 0 -176 53.5t-61 149.5q0 43 7.5 102t24.5 135l78 370q2 12 4.5 25.5t4.5 26t3 21t1 12.5q0 27 -6 43.5 t-18.5 25.5t-32 11.5t-48.5 2.5h-36zM329 1204l6 26q27 28 59 65t63.5 76t61 78t53.5 73h311l-6 -20q-15 -18 -42.5 -41.5t-62 -51t-73.5 -56t-80 -55.5t-80.5 -52t-74.5 -42h-135z" />
<glyph unicode="&#xee;" horiz-adv-x="703" d="M61 1204l6 26q29 28 66 64.5t76 75t75.5 78t64.5 74.5h268q13 -31 32.5 -70t41 -78.5t43 -77.5t38.5 -66l-6 -26h-125q-17 16 -40.5 38.5t-47.5 46.5t-48 48.5t-41 44.5q-26 -20 -59 -44.5t-67 -48.5t-66 -46.5t-56 -38.5h-155zM113 959l18 106h471l-137 -646 q-12 -54 -20 -101t-8 -89q0 -44 18 -67t51 -23q31 0 57.5 11.5t60.5 33.5l47 -67q-23 -25 -53 -49.5t-68 -44t-83 -31t-99 -11.5q-115 0 -176 53.5t-61 149.5q0 43 7.5 102t24.5 135l78 370q2 12 4.5 25.5t4.5 26t3 21t1 12.5q0 27 -6 43.5t-18.5 25.5t-32 11.5t-48.5 2.5 h-36z" />
<glyph unicode="&#xef;" horiz-adv-x="703" d="M113 959l18 106h471l-137 -646q-12 -54 -20 -101t-8 -89q0 -44 18 -67t51 -23q31 0 57.5 11.5t60.5 33.5l47 -67q-23 -25 -53 -49.5t-68 -44t-83 -31t-99 -11.5q-115 0 -176 53.5t-61 149.5q0 43 7.5 102t24.5 135l78 370q2 12 4.5 25.5t4.5 26t3 21t1 12.5q0 27 -6 43.5 t-18.5 25.5t-32 11.5t-48.5 2.5h-36zM117 1344q0 64 32 102t87 38q47 0 78 -27t31 -83q0 -38 -11 -64.5t-27.5 -43t-37.5 -23.5t-43 -7q-49 0 -79 26.5t-30 81.5zM532 1344q0 64 32 102t87 38q48 0 78.5 -27t30.5 -83q0 -38 -11 -64.5t-27.5 -43t-37.5 -23.5t-43 -7 q-49 0 -79 26.5t-30 81.5z" />
<glyph unicode="&#xf0;" horiz-adv-x="1222" d="M80 398q0 61 16 130.5t48 138.5t80.5 133t114 112.5t148.5 77.5t184 29q50 0 96 -14.5t77 -39.5q-14 79 -45.5 142t-79.5 115l-312 -145l29 138l188 88q-47 34 -99.5 57.5t-109.5 42.5l38 121q88 -21 172 -57t160 -89l296 136l-30 -141l-165 -76q57 -54 104.5 -118 t81.5 -140.5t52.5 -165.5t18.5 -194q0 -86 -17 -171.5t-51.5 -163t-87 -144t-124 -115.5t-163.5 -76.5t-203 -27.5q-93 0 -169.5 25.5t-131.5 77t-85.5 130t-30.5 184.5zM381 381q0 -67 11.5 -114t32 -76t50.5 -42.5t67 -13.5q54 0 96.5 24.5t75.5 66t56.5 94.5t38.5 110.5 t22 114t7 105.5q0 121 -41 176.5t-118 55.5q-54 0 -97.5 -25t-76.5 -66t-56 -93.5t-38 -108t-22.5 -110t-7.5 -98.5z" />
<glyph unicode="&#xf1;" horiz-adv-x="1334" d="M74 0l167 791q2 12 4.5 25.5t4.5 26t3 21t1 12.5q0 27 -6 43.5t-18.5 25.5t-32 11.5t-48.5 2.5h-36l18 106h441l-22 -212h13q37 59 77.5 102.5t87 72t101.5 42.5t121 14q63 0 106 -18t69.5 -49.5t38.5 -73t12 -86.5q0 -26 -3.5 -54.5t-9 -57.5t-11.5 -58t-11 -56 l-45 -212q-12 -54 -19.5 -101t-7.5 -89q0 -44 18 -67t52 -23q31 0 56.5 11.5t59.5 33.5l48 -67q-24 -25 -54 -49.5t-67 -44t-83 -31t-100 -11.5q-114 0 -175.5 53.5t-61.5 149.5q0 86 32 237l32 157q4 20 10 48t12 58.5t10 61t4 54.5q0 19 -3 39t-12.5 36.5t-25.5 27.5 t-42 11q-34 0 -67.5 -23t-64.5 -60.5t-59 -85.5t-51 -98t-39.5 -98.5t-25.5 -87.5l-100 -461h-298zM388 1224q9 45 32 97t57.5 95.5t80 72.5t98.5 29q52 0 93.5 -19.5t76 -43t65 -43t61.5 -19.5q25 0 43.5 8.5t31.5 23t21.5 33.5t12.5 40h120q-11 -48 -33 -100t-54.5 -95 t-75.5 -71t-96 -28q-54 0 -96.5 19.5t-78.5 43t-67.5 43t-63.5 19.5q-20 0 -38.5 -9t-33 -23.5t-24.5 -33t-13 -39.5h-119z" />
<glyph unicode="&#xf2;" horiz-adv-x="1228" d="M80 398q0 74 17 153.5t52.5 156.5t89 145.5t125.5 119.5t164 81t203 30q86 0 161.5 -23.5t132 -74t89.5 -129.5t33 -190q0 -71 -16.5 -150t-51 -155t-87.5 -145.5t-125 -121.5t-163 -83t-203 -31q-94 0 -171.5 25.5t-132.5 77.5t-86 130.5t-31 183.5zM383 349 q0 -121 41 -173.5t112 -52.5q54 0 97 30.5t77.5 80.5t59.5 114t41 132t24.5 133.5t8.5 117.5q0 118 -40.5 169.5t-109.5 51.5q-51 0 -93.5 -29.5t-77 -78t-61 -111t-44 -129.5t-26.5 -133.5t-9 -121.5zM412 1502l6 20h292q11 -36 30 -77.5t39.5 -81.5t41.5 -75t37 -58 l-6 -26h-117q-43 25 -91 64t-92.5 81t-82 82.5t-57.5 70.5z" />
<glyph unicode="&#xf3;" horiz-adv-x="1228" d="M80 398q0 74 17 153.5t52.5 156.5t89 145.5t125.5 119.5t164 81t203 30q86 0 161.5 -23.5t132 -74t89.5 -129.5t33 -190q0 -71 -16.5 -150t-51 -155t-87.5 -145.5t-125 -121.5t-163 -83t-203 -31q-94 0 -171.5 25.5t-132.5 77.5t-86 130.5t-31 183.5zM383 349 q0 -121 41 -173.5t112 -52.5q54 0 97 30.5t77.5 80.5t59.5 114t41 132t24.5 133.5t8.5 117.5q0 118 -40.5 169.5t-109.5 51.5q-51 0 -93.5 -29.5t-77 -78t-61 -111t-44 -129.5t-26.5 -133.5t-9 -121.5zM648 1204l6 26q27 28 59 65t63.5 76t61 78t53.5 73h311l-6 -20 q-15 -18 -42.5 -41.5t-62 -51t-73.5 -56t-80 -55.5t-80.5 -52t-74.5 -42h-135z" />
<glyph unicode="&#xf4;" horiz-adv-x="1228" d="M80 398q0 74 17 153.5t52.5 156.5t89 145.5t125.5 119.5t164 81t203 30q86 0 161.5 -23.5t132 -74t89.5 -129.5t33 -190q0 -71 -16.5 -150t-51 -155t-87.5 -145.5t-125 -121.5t-163 -83t-203 -31q-94 0 -171.5 25.5t-132.5 77.5t-86 130.5t-31 183.5zM383 349 q0 -121 41 -173.5t112 -52.5q54 0 97 30.5t77.5 80.5t59.5 114t41 132t24.5 133.5t8.5 117.5q0 118 -40.5 169.5t-109.5 51.5q-51 0 -93.5 -29.5t-77 -78t-61 -111t-44 -129.5t-26.5 -133.5t-9 -121.5zM390 1204l6 26q29 28 66 64.5t76 75t75.5 78t64.5 74.5h268 q13 -31 32.5 -70t41 -78.5t43 -77.5t38.5 -66l-6 -26h-125q-17 16 -40.5 38.5t-47.5 46.5t-48 48.5t-41 44.5q-26 -20 -59 -44.5t-67 -48.5t-66 -46.5t-56 -38.5h-155z" />
<glyph unicode="&#xf5;" horiz-adv-x="1228" d="M80 398q0 74 17 153.5t52.5 156.5t89 145.5t125.5 119.5t164 81t203 30q86 0 161.5 -23.5t132 -74t89.5 -129.5t33 -190q0 -71 -16.5 -150t-51 -155t-87.5 -145.5t-125 -121.5t-163 -83t-203 -31q-94 0 -171.5 25.5t-132.5 77.5t-86 130.5t-31 183.5zM383 349 q0 -121 41 -173.5t112 -52.5q54 0 97 30.5t77.5 80.5t59.5 114t41 132t24.5 133.5t8.5 117.5q0 118 -40.5 169.5t-109.5 51.5q-51 0 -93.5 -29.5t-77 -78t-61 -111t-44 -129.5t-26.5 -133.5t-9 -121.5zM386 1224q9 45 32 97t57.5 95.5t80 72.5t98.5 29q52 0 93.5 -19.5 t76 -43t65 -43t61.5 -19.5q25 0 43.5 8.5t31.5 23t21.5 33.5t12.5 40h120q-11 -48 -33 -100t-54.5 -95t-75.5 -71t-96 -28q-54 0 -96.5 19.5t-78.5 43t-67.5 43t-63.5 19.5q-20 0 -38.5 -9t-33 -23.5t-24.5 -33t-13 -39.5h-119z" />
<glyph unicode="&#xf6;" horiz-adv-x="1228" d="M80 398q0 74 17 153.5t52.5 156.5t89 145.5t125.5 119.5t164 81t203 30q86 0 161.5 -23.5t132 -74t89.5 -129.5t33 -190q0 -71 -16.5 -150t-51 -155t-87.5 -145.5t-125 -121.5t-163 -83t-203 -31q-94 0 -171.5 25.5t-132.5 77.5t-86 130.5t-31 183.5zM383 349 q0 -121 41 -173.5t112 -52.5q54 0 97 30.5t77.5 80.5t59.5 114t41 132t24.5 133.5t8.5 117.5q0 118 -40.5 169.5t-109.5 51.5q-51 0 -93.5 -29.5t-77 -78t-61 -111t-44 -129.5t-26.5 -133.5t-9 -121.5zM442 1344q0 64 32 102t87 38q47 0 78 -27t31 -83q0 -38 -11 -64.5 t-27.5 -43t-37.5 -23.5t-43 -7q-49 0 -79 26.5t-30 81.5zM857 1344q0 64 32 102t87 38q48 0 78.5 -27t30.5 -83q0 -38 -11 -64.5t-27.5 -43t-37.5 -23.5t-43 -7q-49 0 -79 26.5t-30 81.5z" />
<glyph unicode="&#xf7;" d="M161 639v142h852v-142h-852zM477 334q0 68 31.5 94.5t79.5 26.5q23 0 43.5 -6.5t35.5 -20.5t23.5 -37t8.5 -57t-8.5 -57t-23.5 -37.5t-35.5 -21t-43.5 -6.5q-48 0 -79.5 27.5t-31.5 94.5zM477 1086q0 68 31.5 95t79.5 27q23 0 43.5 -6.5t35.5 -20.5t23.5 -37.5t8.5 -57.5 t-8.5 -56.5t-23.5 -37t-35.5 -21t-43.5 -6.5q-48 0 -79.5 27t-31.5 94z" />
<glyph unicode="&#xf8;" horiz-adv-x="1228" d="M26 -80l149 183q-47 52 -71 125.5t-24 169.5q0 74 17 153.5t52.5 156.5t89 145.5t125.5 119.5t164 81t203 30q59 0 111.5 -10.5t99.5 -32.5l89 104h149l-141 -174q49 -50 78.5 -125.5t29.5 -178.5q0 -71 -16.5 -150t-51 -155t-87.5 -145.5t-125 -121.5t-163 -83t-203 -31 q-133 0 -233 51l-91 -112h-151zM383 358l430 526q-20 34 -50.5 51t-68.5 17q-51 0 -93 -29t-76.5 -76t-61 -108.5t-43.5 -127.5t-27 -131.5t-10 -121.5zM407 203q20 -42 52.5 -61t76.5 -19q54 0 97 30.5t77.5 80.5t59.5 114t41 132t24.5 133.5t8.5 117.5v4z" />
<glyph unicode="&#xf9;" horiz-adv-x="1336" d="M113 959l18 106h477l-131 -595q-6 -23 -11.5 -52t-10.5 -58t-8.5 -55.5t-3.5 -44.5q0 -44 18.5 -69.5t67.5 -25.5q43 0 89 39t88.5 102t75.5 140t50 152l106 467h296l-135 -646q-13 -54 -20.5 -101t-7.5 -89q0 -44 18 -67t52 -23q31 0 56.5 11.5t59.5 33.5l49 -67 q-25 -25 -55 -49.5t-67 -44t-83 -31t-100 -11.5q-66 0 -110 15t-71.5 40.5t-39 60t-11.5 74.5q0 8 1 20t2.5 24.5t3 23.5t3.5 19h-17q-43 -62 -85.5 -112.5t-90 -87t-102.5 -56t-126 -19.5q-64 0 -107.5 17.5t-70 48t-38 70.5t-11.5 84q0 49 11.5 108.5t22.5 109.5l72 350 q7 41 12 74t5 49q0 40 -24 52.5t-81 12.5h-36zM406 1502l6 20h292q11 -36 30 -77.5t39.5 -81.5t41.5 -75t37 -58l-6 -26h-117q-43 25 -91 64t-92.5 81t-82 82.5t-57.5 70.5z" />
<glyph unicode="&#xfa;" horiz-adv-x="1336" d="M113 959l18 106h477l-131 -595q-6 -23 -11.5 -52t-10.5 -58t-8.5 -55.5t-3.5 -44.5q0 -44 18.5 -69.5t67.5 -25.5q43 0 89 39t88.5 102t75.5 140t50 152l106 467h296l-135 -646q-13 -54 -20.5 -101t-7.5 -89q0 -44 18 -67t52 -23q31 0 56.5 11.5t59.5 33.5l49 -67 q-25 -25 -55 -49.5t-67 -44t-83 -31t-100 -11.5q-66 0 -110 15t-71.5 40.5t-39 60t-11.5 74.5q0 8 1 20t2.5 24.5t3 23.5t3.5 19h-17q-43 -62 -85.5 -112.5t-90 -87t-102.5 -56t-126 -19.5q-64 0 -107.5 17.5t-70 48t-38 70.5t-11.5 84q0 49 11.5 108.5t22.5 109.5l72 350 q7 41 12 74t5 49q0 40 -24 52.5t-81 12.5h-36zM661 1204l6 26q27 28 59 65t63.5 76t61 78t53.5 73h311l-6 -20q-15 -18 -42.5 -41.5t-62 -51t-73.5 -56t-80 -55.5t-80.5 -52t-74.5 -42h-135z" />
<glyph unicode="&#xfb;" horiz-adv-x="1336" d="M113 959l18 106h477l-131 -595q-6 -23 -11.5 -52t-10.5 -58t-8.5 -55.5t-3.5 -44.5q0 -44 18.5 -69.5t67.5 -25.5q43 0 89 39t88.5 102t75.5 140t50 152l106 467h296l-135 -646q-13 -54 -20.5 -101t-7.5 -89q0 -44 18 -67t52 -23q31 0 56.5 11.5t59.5 33.5l49 -67 q-25 -25 -55 -49.5t-67 -44t-83 -31t-100 -11.5q-66 0 -110 15t-71.5 40.5t-39 60t-11.5 74.5q0 8 1 20t2.5 24.5t3 23.5t3.5 19h-17q-43 -62 -85.5 -112.5t-90 -87t-102.5 -56t-126 -19.5q-64 0 -107.5 17.5t-70 48t-38 70.5t-11.5 84q0 49 11.5 108.5t22.5 109.5l72 350 q7 41 12 74t5 49q0 40 -24 52.5t-81 12.5h-36zM431 1204l6 26q29 28 66 64.5t76 75t75.5 78t64.5 74.5h268q13 -31 32.5 -70t41 -78.5t43 -77.5t38.5 -66l-6 -26h-125q-17 16 -40.5 38.5t-47.5 46.5t-48 48.5t-41 44.5q-26 -20 -59 -44.5t-67 -48.5t-66 -46.5t-56 -38.5 h-155z" />
<glyph unicode="&#xfc;" horiz-adv-x="1336" d="M113 959l18 106h477l-131 -595q-6 -23 -11.5 -52t-10.5 -58t-8.5 -55.5t-3.5 -44.5q0 -44 18.5 -69.5t67.5 -25.5q43 0 89 39t88.5 102t75.5 140t50 152l106 467h296l-135 -646q-13 -54 -20.5 -101t-7.5 -89q0 -44 18 -67t52 -23q31 0 56.5 11.5t59.5 33.5l49 -67 q-25 -25 -55 -49.5t-67 -44t-83 -31t-100 -11.5q-66 0 -110 15t-71.5 40.5t-39 60t-11.5 74.5q0 8 1 20t2.5 24.5t3 23.5t3.5 19h-17q-43 -62 -85.5 -112.5t-90 -87t-102.5 -56t-126 -19.5q-64 0 -107.5 17.5t-70 48t-38 70.5t-11.5 84q0 49 11.5 108.5t22.5 109.5l72 350 q7 41 12 74t5 49q0 40 -24 52.5t-81 12.5h-36zM482 1344q0 64 32 102t87 38q47 0 78 -27t31 -83q0 -38 -11 -64.5t-27.5 -43t-37.5 -23.5t-43 -7q-49 0 -79 26.5t-30 81.5zM897 1344q0 64 32 102t87 38q48 0 78.5 -27t30.5 -83q0 -38 -11 -64.5t-27.5 -43t-37.5 -23.5 t-43 -7q-49 0 -79 26.5t-30 81.5z" />
<glyph unicode="&#xfd;" horiz-adv-x="1164" d="M-334 -441l30 111q24 -8 66 -17t103 -9q91 0 167 24.5t140.5 65.5t121 96.5t110.5 118.5l-249 906q-16 59 -47.5 81.5t-90.5 22.5h-19l24 106h389l131 -515q10 -39 20.5 -91t20.5 -103.5t16.5 -97t8.5 -69.5h6q59 80 111.5 160.5t92 156.5t62 145t22.5 126 q0 67 -32.5 102t-90.5 35q0 39 12 70.5t33.5 53.5t50.5 34t63 12q80 0 121.5 -44.5t41.5 -123.5q0 -78 -26 -164.5t-74.5 -183.5t-118 -205.5t-156.5 -229.5q-72 -101 -135 -185.5t-124 -152.5t-123.5 -118.5t-132.5 -85t-153 -51.5t-185 -17q-57 0 -111 9.5t-96 26.5z M487 1204l6 26q27 28 59 65t63.5 76t61 78t53.5 73h311l-6 -20q-15 -18 -42.5 -41.5t-62 -51t-73.5 -56t-80 -55.5t-80.5 -52t-74.5 -42h-135z" />
<glyph unicode="&#xfe;" horiz-adv-x="1237" d="M-59 -477l365 1713q2 12 5 26t5 26t3 20.5t1 12.5q0 27 -6 43.5t-18.5 25.5t-33 12t-48.5 3h-45l18 104h482l-79 -377q-4 -18 -13 -46.5t-19.5 -60.5t-22.5 -66t-23 -64.5t-20.5 -55.5t-14.5 -39h14q34 62 70 114.5t79.5 90.5t98.5 58.5t129 20.5q65 0 119 -23 t91.5 -68.5t58.5 -112.5t21 -154q0 -72 -17 -155t-51 -166t-85 -159.5t-119.5 -135.5t-154.5 -94t-189 -35q-60 0 -112 12t-90 33q-1 -15 -4 -32q-2 -13 -5 -30t-7 -34l-28 -133q-3 -12 -5.5 -25.5t-4.5 -26t-3 -21t-1 -12.5q0 -27 6 -43.5t18.5 -25.5t32.5 -12t48 -3h76 l-18 -105h-504zM379 163q9 -9 23.5 -19t33 -18t40.5 -13t45 -5q53 0 99 29t83.5 77.5t66.5 111t48.5 129.5t29.5 133.5t10 122.5q0 41 -5 79t-17 68.5t-33 48.5t-52 18q-33 0 -65.5 -18.5t-63 -50.5t-57.5 -74t-48.5 -87t-37.5 -90.5t-24 -85.5z" />
<glyph unicode="&#xff;" horiz-adv-x="1164" d="M-334 -441l30 111q24 -8 66 -17t103 -9q91 0 167 24.5t140.5 65.5t121 96.5t110.5 118.5l-249 906q-16 59 -47.5 81.5t-90.5 22.5h-19l24 106h389l131 -515q10 -39 20.5 -91t20.5 -103.5t16.5 -97t8.5 -69.5h6q59 80 111.5 160.5t92 156.5t62 145t22.5 126 q0 67 -32.5 102t-90.5 35q0 39 12 70.5t33.5 53.5t50.5 34t63 12q80 0 121.5 -44.5t41.5 -123.5q0 -78 -26 -164.5t-74.5 -183.5t-118 -205.5t-156.5 -229.5q-72 -101 -135 -185.5t-124 -152.5t-123.5 -118.5t-132.5 -85t-153 -51.5t-185 -17q-57 0 -111 9.5t-96 26.5z M312 1344q0 64 32 102t87 38q47 0 78 -27t31 -83q0 -38 -11 -64.5t-27.5 -43t-37.5 -23.5t-43 -7q-49 0 -79 26.5t-30 81.5zM727 1344q0 64 32 102t87 38q48 0 78.5 -27t30.5 -83q0 -38 -11 -64.5t-27.5 -43t-37.5 -23.5t-43 -7q-49 0 -79 26.5t-30 81.5z" />
<glyph unicode="&#x152;" horiz-adv-x="1969" d="M125 529q0 95 24 199.5t71.5 206t118 193t164.5 161t211 110.5t257 41q46 0 94 -5.5t89 -16.5h888l-69 -369h-142q1 6 2.5 23.5t3 36.5t3 35t1.5 20q0 27 -7 51.5t-24 43t-44 28.5t-66 10h-263l-106 -497h451l-26 -119h-450l-120 -560h314q46 0 83 13t64 35.5t46.5 52 t31.5 62.5l31 86h141l-91 -370h-940q-43 -11 -90.5 -16.5t-96.5 -5.5q-117 0 -218.5 35t-176 105t-117 173t-42.5 238zM449 481q0 -98 21 -168.5t57.5 -115.5t86 -66t105.5 -21q43 0 83 8t76 28l237 1118q-34 20 -82.5 33.5t-103.5 13.5q-82 0 -149.5 -39.5t-121 -106 t-93 -152.5t-65.5 -178.5t-38.5 -184t-12.5 -169.5z" />
<glyph unicode="&#x153;" horiz-adv-x="1789" d="M80 391q0 74 17 154t52.5 157t89.5 146.5t126.5 121.5t164.5 83t203 31q112 0 198 -36.5t134 -118.5q78 73 180.5 116t234.5 43q142 0 221 -61.5t79 -171.5q0 -81 -44.5 -155t-123 -131t-187.5 -90.5t-237 -33.5h-35.5t-37.5 2q-3 -19 -3.5 -39t-0.5 -36 q0 -116 53.5 -178.5t162.5 -62.5q48 0 92 14t80.5 37t67 51.5t50.5 58.5q12 -15 19 -37.5t7 -47.5q0 -36 -23 -76t-71 -73.5t-123 -55t-177 -21.5q-113 0 -202 38.5t-143 117.5q-72 -70 -172 -113t-231 -43q-94 0 -171.5 25t-132.5 76.5t-86 128t-31 180.5zM383 345 q0 -60 10.5 -102t30.5 -69t48.5 -39t63.5 -12q54 0 97.5 31t77.5 82t59.5 116t42 133t25 133.5t8.5 116.5q0 117 -40.5 167t-110.5 50q-50 0 -93 -30t-77.5 -79t-61.5 -112.5t-44 -130.5t-26.5 -133.5t-9.5 -121.5zM1128 561h19q73 0 136.5 20t110 56.5t73.5 88t27 114.5 q0 61 -25.5 95t-71.5 34q-32 0 -62.5 -17t-58 -46.5t-50.5 -69.5t-42.5 -85.5t-33.5 -94t-22 -95.5z" />
<glyph unicode="&#x178;" horiz-adv-x="1376" d="M175 1313l22 105h645l-21 -105h-90q-45 0 -64 -15.5t-19 -42.5q0 -17 6 -50t17 -79l72 -280q7 -29 14.5 -62t14 -66t11 -64.5t6.5 -55.5q18 39 56 100.5t89 133.5l196 281q24 34 42 73.5t18 72.5q0 27 -27.5 40.5t-93.5 13.5h-42l24 105h520l-22 -105h-37q-22 0 -41 -5.5 t-38.5 -20.5t-41 -40t-49.5 -63l-491 -683l-60 -283q-2 -10 -5 -24t-3 -21q0 -22 10.5 -35t30 -20t46 -9.5t57.5 -2.5h49l-22 -106h-734l22 106h54q31 0 60 4t53.5 17.5t42 36.5t25.5 62l57 276l-214 706q-9 29 -18 49t-21.5 32.5t-31.5 18t-48 5.5h-26zM664 1672 q0 64 32 102t87 38q47 0 78 -27t31 -83q0 -38 -11 -64.5t-27.5 -43t-37.5 -23.5t-43 -7q-49 0 -79 26.5t-30 81.5zM1079 1672q0 64 32 102t87 38q48 0 78.5 -27t30.5 -83q0 -38 -11 -64.5t-27.5 -43t-37.5 -23.5t-43 -7q-49 0 -79 26.5t-30 81.5z" />
<glyph unicode="&#x2c6;" horiz-adv-x="1146" d="M314 1204l6 26q29 28 66 64.5t76 75t75.5 78t64.5 74.5h268q13 -31 32.5 -70t41 -78.5t43 -77.5t38.5 -66l-6 -26h-125q-17 16 -40.5 38.5t-47.5 46.5t-48 48.5t-41 44.5q-26 -20 -59 -44.5t-67 -48.5t-66 -46.5t-56 -38.5h-155z" />
<glyph unicode="&#x2dc;" horiz-adv-x="1146" d="M314 1224q9 45 32 97t57.5 95.5t80 72.5t98.5 29q52 0 93.5 -19.5t76 -43t65 -43t61.5 -19.5q25 0 43.5 8.5t31.5 23t21.5 33.5t12.5 40h120q-11 -48 -33 -100t-54.5 -95t-75.5 -71t-96 -28q-54 0 -96.5 19.5t-78.5 43t-67.5 43t-63.5 19.5q-20 0 -38.5 -9t-33 -23.5 t-24.5 -33t-13 -39.5h-119z" />
<glyph unicode="&#x2000;" horiz-adv-x="925" />
<glyph unicode="&#x2001;" horiz-adv-x="1850" />
<glyph unicode="&#x2002;" horiz-adv-x="925" />
<glyph unicode="&#x2003;" horiz-adv-x="1850" />
<glyph unicode="&#x2004;" horiz-adv-x="616" />
<glyph unicode="&#x2005;" horiz-adv-x="462" />
<glyph unicode="&#x2006;" horiz-adv-x="308" />
<glyph unicode="&#x2007;" horiz-adv-x="308" />
<glyph unicode="&#x2008;" horiz-adv-x="231" />
<glyph unicode="&#x2009;" horiz-adv-x="370" />
<glyph unicode="&#x200a;" horiz-adv-x="102" />
<glyph unicode="&#x2010;" horiz-adv-x="615" d="M19 437l47 209h516l-46 -209h-517z" />
<glyph unicode="&#x2011;" horiz-adv-x="615" d="M19 437l47 209h516l-46 -209h-517z" />
<glyph unicode="&#x2012;" horiz-adv-x="615" d="M19 437l47 209h516l-46 -209h-517z" />
<glyph unicode="&#x2013;" horiz-adv-x="993" d="M-24 463l28 141h1014l-31 -141h-1011z" />
<glyph unicode="&#x2014;" horiz-adv-x="1986" d="M-24 463l28 141h2007l-30 -141h-2005z" />
<glyph unicode="&#x2018;" horiz-adv-x="555" d="M224 997q0 76 27.5 144t82.5 123t137 95.5t191 60.5l-23 -105q-203 -48 -203 -165q0 -21 8 -35.5t20 -26.5t26.5 -24t27 -27t20.5 -34.5t8 -48.5q0 -32 -12 -57.5t-32.5 -43.5t-47 -27t-56.5 -9q-36 0 -67.5 12t-55.5 35t-37.5 56.5t-13.5 76.5z" />
<glyph unicode="&#x2019;" horiz-adv-x="555" d="M173 817l22 105q205 48 205 164q0 21 -8.5 36t-21 27t-26.5 23.5t-26.5 26.5t-21 35t-8.5 49q0 32 12 57.5t32.5 43.5t47.5 27t57 9q36 0 67.5 -12t55 -35t37 -56.5t13.5 -76.5q0 -76 -27.5 -144t-82.5 -123t-137 -95.5t-190 -60.5z" />
<glyph unicode="&#x201a;" horiz-adv-x="555" d="M-36 -300l22 105q205 49 205 165q0 20 -8 35t-21 27.5t-27 24t-26.5 26.5t-20.5 35t-8 49q0 32 12 57t32.5 43t47.5 27.5t57 9.5q36 0 67.5 -12.5t54.5 -35t37 -56t14 -77.5q0 -75 -28 -143t-82.5 -123.5t-136.5 -95.5t-191 -61z" />
<glyph unicode="&#x201c;" horiz-adv-x="970" d="M224 997q0 76 27.5 144t82.5 123t137 95.5t191 60.5l-23 -105q-203 -48 -203 -165q0 -21 8 -35.5t20 -26.5t26.5 -24t27 -27t20.5 -34.5t8 -48.5q0 -32 -12 -57.5t-32.5 -43.5t-47 -27t-56.5 -9q-36 0 -67.5 12t-55.5 35t-37.5 56.5t-13.5 76.5zM639 997q0 76 28 144 t82.5 123t136.5 95.5t191 60.5l-23 -105q-203 -48 -203 -165q0 -21 8 -35.5t20 -26.5t27 -24t27 -27t20 -34.5t8 -48.5q0 -32 -12 -57.5t-32.5 -43.5t-47 -27t-56.5 -9q-36 0 -67.5 12t-55.5 35t-37.5 56.5t-13.5 76.5z" />
<glyph unicode="&#x201d;" horiz-adv-x="970" d="M173 817l22 105q205 48 205 164q0 21 -8.5 36t-21 27t-26.5 23.5t-26.5 26.5t-21 35t-8.5 49q0 32 12 57.5t32.5 43.5t47.5 27t57 9q36 0 67.5 -12t55 -35t37 -56.5t13.5 -76.5q0 -76 -27.5 -144t-82.5 -123t-137 -95.5t-190 -60.5zM586 817l22 105q205 48 205 164 q0 21 -8.5 36t-21 27t-26.5 23.5t-26.5 26.5t-21 35t-8.5 49q0 32 12.5 57.5t32.5 43.5t47.5 27t57.5 9q36 0 67.5 -12t54.5 -35t36.5 -56.5t13.5 -76.5q0 -76 -27.5 -144t-82.5 -123t-136.5 -95.5t-190.5 -60.5z" />
<glyph unicode="&#x201e;" horiz-adv-x="970" d="M-22 -300l22 105q205 49 205 165q0 20 -8.5 35t-21 27.5t-26.5 24t-26.5 26.5t-21 35t-8.5 49q0 32 12 57t32.5 43t47.5 27.5t57 9.5q36 0 67.5 -12.5t55 -35t37 -56t13.5 -77.5q0 -75 -27.5 -143t-82.5 -123.5t-137 -95.5t-190 -61zM391 -300l22 105q205 49 205 165 q0 20 -8.5 35t-21 27.5t-26.5 24t-26.5 26.5t-21 35t-8.5 49q0 32 12.5 57t32.5 43t47.5 27.5t57.5 9.5q36 0 67.5 -12.5t54.5 -35t36.5 -56t13.5 -77.5q0 -75 -27.5 -143t-82.5 -123.5t-136.5 -95.5t-190.5 -61z" />
<glyph unicode="&#x2022;" horiz-adv-x="794" d="M153 671q0 79 21.5 144t61 110.5t95 70.5t124.5 25q60 0 112 -17t90 -51t59 -86.5t21 -123.5q0 -98 -26.5 -164.5t-69.5 -107.5t-97 -59t-108 -18q-64 0 -115.5 17t-89 51.5t-58 86t-20.5 122.5z" />
<glyph unicode="&#x2026;" horiz-adv-x="1817" d="M95 119q0 81 42.5 129t114.5 48q31 0 58.5 -9t47.5 -26t32 -42.5t12 -59.5q0 -49 -14.5 -82.5t-36.5 -54.5t-50 -30t-57 -9q-66 0 -107.5 33.5t-41.5 102.5zM701 119q0 81 42.5 129t114.5 48q31 0 58.5 -9t47.5 -26t31.5 -42.5t11.5 -59.5q0 -49 -14 -82.5t-36.5 -54.5 t-50 -30t-55.5 -9q-68 0 -109 33.5t-41 102.5zM1306 121q0 82 42 129.5t114 47.5q31 0 58 -9t47.5 -26t32 -42.5t11.5 -59.5q0 -49 -14 -82.5t-36.5 -54.5t-50.5 -30.5t-56 -9.5q-67 0 -107.5 34t-40.5 103z" />
<glyph unicode="&#x202f;" horiz-adv-x="370" />
<glyph unicode="&#x2039;" horiz-adv-x="701" d="M121 501l22 103l373 330h140l-284 -398l115 -397h-140z" />
<glyph unicode="&#x203a;" horiz-adv-x="701" d="M44 139l286 397l-118 398h139l227 -360l-22 -104l-374 -331h-138z" />
<glyph unicode="&#x205f;" horiz-adv-x="462" />
<glyph unicode="&#x20ac;" d="M44 527l26 123h103q3 19 10 52t18 71h-104l26 123h114q52 155 121 258.5t151 165.5t174.5 88.5t190.5 26.5q86 0 150.5 -17.5t107 -47t63 -68.5t20.5 -83q0 -86 -68 -134t-195 -48q0 49 -5.5 97.5t-20 87.5t-40 63.5t-63.5 24.5q-40 0 -80 -19.5t-78 -67t-73 -127 t-65 -200.5h365l-26 -123h-373q-11 -36 -17.5 -71.5t-8.5 -51.5h292l-26 -123h-282q-3 -25 -3.5 -53t-0.5 -49q0 -141 61.5 -218.5t177.5 -77.5q49 0 89 13t72.5 35.5t58 51.5t48.5 61q11 -12 23 -30.5t12 -52.5q0 -35 -23.5 -75t-71.5 -73.5t-120.5 -55.5t-169.5 -22 q-95 0 -176.5 26.5t-141.5 82t-94.5 140t-34.5 201.5q0 25 0.5 47.5t3.5 48.5h-117z" />
<glyph unicode="&#x2122;" horiz-adv-x="1658" d="M187 1238l6 180h580l7 -180h-58l-8 47q-4 28 -20.5 48.5t-59.5 21.5h-91v-509q0 -21 6.5 -32.5t16.5 -18t24 -8.5t29 -2h31v-54h-338v54h34q15 0 28.5 2t23.5 7.5t16 17t6 28.5v515h-87q-22 -1 -36.5 -6.5t-23 -15t-13.5 -21.5t-7 -27l-8 -47h-58zM813 731v54h20 q30 0 53 9.5t25 45.5v468q-1 18 -7.5 29t-17 17t-24.5 7.5t-29 1.5h-20v55h229l218 -550l225 550h224v-55h-21q-17 0 -31 -2t-24 -8t-15.5 -18t-5.5 -32v-457q0 -21 5.5 -32.5t15.5 -18t24 -8.5t31 -2h21v-54h-294v54q34 0 54.5 9.5t23.5 43.5v443l-225 -550h-69l-225 552 v-437q0 -40 20.5 -50.5t58.5 -10.5v-54h-240z" />
<glyph unicode="&#x25fc;" horiz-adv-x="1067" d="M0 0v1067h1067v-1067h-1067z" />
</font>
</defs>
</svg>
